<svg version="1.1" id="Layer_1" xmlns="http://www.w3.org/2000/svg" xmlns:xlink="http://www.w3.org/1999/xlink" x="0px" y="0px"
	 width="100%" viewBox="0 0 280 280" enable-background="new 0 0 280 280" xml:space="preserve">
<path fill="transparent" opacity="1.000000" stroke="none" 
	d="
M26.000000,281.000000 
	C17.675352,281.000000 9.350705,281.000000 1.019543,281.000000 
	C1.013029,187.772629 1.013029,94.545273 1.013029,1.000000 
	C39.020302,1.000000 77.041496,1.000000 115.558342,1.241586 
	C116.054001,1.483172 116.019142,1.968102 115.655586,2.076315 
	C113.089966,2.828682 110.807899,3.279770 108.700729,4.152930 
	C102.195122,6.848697 96.528328,10.547341 93.637939,17.848915 
	C92.599731,21.178307 91.899750,24.266525 91.092957,27.826010 
	C90.841682,27.950279 89.841240,28.445051 88.537498,29.101116 
	C73.818954,36.716579 63.955250,47.944756 59.900146,63.841396 
	C58.954441,67.548698 58.614353,71.410484 57.614780,75.278946 
	C57.026695,82.558258 56.810978,89.759636 56.668919,96.962479 
	C56.665874,97.116852 57.509438,97.287933 57.914864,97.831612 
	C57.743740,100.703186 57.216393,103.251228 57.561470,105.675072 
	C58.674458,113.492752 59.849850,121.320633 61.516685,129.033173 
	C62.508701,133.623276 64.468193,138.004288 65.679688,142.690384 
	C58.204002,154.968567 51.331676,167.243103 40.706917,177.107422 
	C40.237732,177.428650 40.042419,177.674728 39.752586,177.766663 
	C39.658066,177.612549 39.316582,177.731476 39.046921,177.899002 
	C37.022308,180.825745 39.296268,180.997940 40.786247,180.602249 
	C45.875492,179.250732 50.873650,177.556213 56.156723,175.722351 
	C59.391548,174.324860 62.376217,173.197571 65.657913,171.958115 
	C66.536026,186.358597 54.306564,192.167847 46.544540,202.723633 
	C50.673450,201.995178 53.544678,201.268936 56.455166,201.038361 
	C59.236439,200.818024 62.058567,201.113480 64.711838,201.463196 
	C58.471504,207.711182 52.382080,213.678177 45.462559,220.458588 
	C48.034668,221.241425 49.924713,222.357254 51.768581,222.285568 
	C60.380241,221.950653 68.715057,223.101807 76.685753,226.387665 
	C75.538605,227.158325 74.552139,227.773026 73.494415,227.942200 
	C64.911728,229.314957 56.315678,230.604202 47.420795,232.119476 
	C44.096561,233.152817 41.075233,233.985565 37.867538,234.652451 
	C37.113731,235.032516 36.546291,235.578461 35.655449,236.169403 
	C30.584265,238.545151 30.396114,240.052139 33.474335,244.540985 
	C36.185184,248.494125 38.471409,252.738449 40.835285,257.173462 
	C38.770744,259.906494 36.816067,262.320251 34.552635,264.918579 
	C32.453308,268.175903 30.662725,271.248688 28.514687,274.637482 
	C27.876797,276.074707 27.596367,277.195892 27.314926,278.280823 
	C27.313913,278.244598 27.243696,278.263733 26.802395,278.256226 
	C26.240730,279.165833 26.120365,280.082916 26.000000,281.000000 
z"/>
<path fill="transparent" opacity="1.000000" stroke="none" 
	d="
M136.000000,1.000000 
	C184.285828,1.000000 232.571655,1.000000 280.928741,1.000000 
	C280.928741,94.333305 280.928741,187.666641 280.923462,281.000000 
	C274.258087,281.000000 267.597961,281.000000 260.471130,280.599365 
	C259.966217,279.131866 259.928009,278.065002 260.086060,276.785706 
	C258.690308,272.132446 257.098358,267.691620 255.356262,262.904175 
	C252.903214,259.389343 250.520599,256.274109 248.353088,253.015823 
	C247.807007,252.194916 247.949417,250.916000 248.043976,249.750885 
	C251.763641,246.281616 255.214767,242.909027 259.023712,239.186752 
	C257.104553,238.340759 255.552963,237.656784 253.918488,236.709961 
	C252.933319,236.326782 252.031052,236.206482 251.115417,235.687256 
	C248.980011,233.905060 246.978760,232.265961 244.709503,231.194458 
	C240.620499,229.263641 236.371017,227.672729 232.070984,225.699768 
	C231.654831,225.276733 231.356277,225.093781 230.918976,224.628204 
	C229.696594,223.568253 228.612961,222.790924 227.864136,221.861984 
	C230.561050,221.457275 232.949173,221.337891 235.272705,220.886292 
	C236.222885,220.701614 237.033356,219.798157 237.907364,219.221680 
	C237.331375,218.446243 236.755402,217.670807 236.139709,216.550232 
	C234.925232,214.868484 233.899750,213.352036 232.547348,212.229416 
	C228.670975,209.011612 224.662125,205.953430 220.584564,202.526764 
	C218.323792,198.118927 216.183777,194.016830 214.038605,189.952026 
	C214.033432,189.989319 214.108047,189.979080 214.086548,189.649353 
	C213.737305,188.526596 213.409546,187.733566 213.109955,186.553986 
	C213.138107,185.206711 213.138107,184.246017 213.138107,183.100769 
	C220.088287,186.421265 226.727341,189.593109 233.366409,192.764969 
	C233.881546,192.190094 234.396683,191.615219 234.911835,191.040344 
	C232.548965,187.301559 230.234299,183.531250 227.813522,179.830338 
	C222.210724,171.264740 217.734192,162.276306 217.198303,151.606445 
	C218.047043,150.284851 218.674667,149.197495 219.581635,147.927002 
	C224.416351,140.718536 229.343842,133.857635 230.107544,125.120163 
	C230.442780,121.284836 230.397018,117.384827 231.091080,113.618645 
	C232.626923,105.284630 228.874023,98.102463 226.559372,90.600693 
	C225.139771,85.999779 223.539276,81.454674 222.383179,76.830841 
	C230.767151,84.697693 238.787994,92.618210 246.808838,100.538734 
	C247.425522,100.222885 248.042221,99.907036 248.658905,99.591187 
	C248.168747,97.968964 247.678589,96.346741 247.166595,94.355499 
	C245.133408,89.654678 243.122040,85.322876 241.153717,80.607346 
	C237.485184,72.820152 234.259644,65.113846 229.898499,58.115181 
	C226.768112,53.091625 222.179031,48.960037 218.137344,44.524689 
	C207.617157,32.979809 195.608292,23.035246 181.758453,16.028292 
	C171.731873,10.955610 160.631439,7.955397 149.906906,4.336151 
	C145.408325,2.818002 140.643677,2.088205 136.000000,1.000000 
z"/>
<path fill="#D169C0" opacity="1.000000" stroke="none" 
	d="
M216.000000,281.000000 
	C196.979111,281.000000 177.958206,281.000000 158.595154,280.681305 
	C165.467865,268.735168 174.769455,258.896088 184.214432,249.073654 
	C195.247498,237.599640 208.529877,230.346664 223.493713,225.805466 
	C225.478271,225.203171 227.847672,225.868896 230.061707,226.303070 
	C234.043381,229.899506 237.806366,233.432541 242.037354,236.267014 
	C244.424973,237.866562 245.081711,239.292145 243.751709,241.920105 
	C241.454330,243.785477 239.431107,245.450272 237.478271,247.193893 
	C227.130524,256.433075 218.594955,266.831696 216.000000,281.000000 
M205.274384,248.171097 
	C205.731857,245.264969 206.189346,242.358856 206.646820,239.452744 
	C206.052872,239.311752 205.458923,239.170776 204.864975,239.029800 
	C202.871490,242.562576 200.971008,246.152252 198.854492,249.609695 
	C197.224319,252.272690 197.909302,254.115372 200.689896,254.877335 
	C204.648773,255.962158 204.460983,258.148499 203.081650,261.199158 
	C202.206467,263.134766 201.801971,265.283203 201.186386,267.336182 
	C201.766510,267.572266 202.346634,267.808350 202.926758,268.044403 
	C206.067413,263.265869 209.208084,258.487305 212.220612,253.903717 
	C209.389053,251.895325 207.233536,250.366455 205.274384,248.171097 
z"/>
<path fill="#D26AC1" opacity="1.000000" stroke="none" 
	d="
M38.053902,234.818314 
	C41.075233,233.985565 44.096561,233.152817 47.704956,232.424408 
	C54.244289,234.408371 60.150436,236.452637 66.157814,238.135559 
	C81.764175,242.507584 95.493355,250.483017 108.239227,260.194305 
	C115.740356,265.909515 123.078751,271.966644 127.000000,281.000000 
	C108.312439,281.000000 89.624878,281.000000 70.358307,280.681580 
	C63.114883,271.383575 56.286415,262.519653 49.844364,253.383224 
	C45.624859,247.398956 41.964622,241.020325 38.053902,234.818314 
z"/>
<path fill="#9A5599" opacity="1.000000" stroke="none" 
	d="
M127.468658,281.000000 
	C123.078751,271.966644 115.740356,265.909515 108.239227,260.194305 
	C95.493355,250.483017 81.764175,242.507584 66.157814,238.135559 
	C60.150436,236.452637 54.244289,234.408371 48.007858,232.223831 
	C56.315678,230.604202 64.911728,229.314957 73.494415,227.942200 
	C74.552139,227.773026 75.538605,227.158325 77.097504,226.408798 
	C82.546829,227.914581 87.433273,229.828751 92.383942,231.559158 
	C93.549522,231.966599 94.931679,231.754364 96.385574,231.799683 
	C96.556938,231.772156 96.901466,231.732407 96.920540,232.117218 
	C100.597481,235.655777 104.088737,239.032349 107.947273,241.917740 
	C116.456512,248.280899 124.270950,255.268875 129.958160,264.363464 
	C132.200378,267.949127 134.235962,271.670776 136.619522,275.156891 
	C137.264694,276.100464 138.836655,276.410309 140.335938,277.045197 
	C141.776581,276.372589 142.864532,275.665833 144.017761,275.308960 
	C146.811569,276.904144 147.030563,277.007111 148.438522,274.012848 
	C153.789291,262.633636 160.776001,252.248291 171.120224,245.181778 
	C180.626999,238.687317 190.970490,233.159088 201.532822,228.552032 
	C209.657715,225.008133 218.218094,221.583237 227.529327,222.013596 
	C228.612961,222.790924 229.696594,223.568253 230.887512,224.897339 
	C230.983719,225.628906 230.972641,225.808685 230.730591,225.984482 
	C230.499634,225.980484 230.038834,225.947388 230.038834,225.947388 
	C227.847672,225.868896 225.478271,225.203171 223.493713,225.805466 
	C208.529877,230.346664 195.247498,237.599640 184.214432,249.073654 
	C174.769455,258.896088 165.467865,268.735168 158.126495,280.681305 
	C147.979111,281.000000 137.958206,281.000000 127.468658,281.000000 
z"/>
<path fill="#2E2D2E" opacity="1.000000" stroke="none" 
	d="
M247.775421,249.847565 
	C247.949417,250.916000 247.807007,252.194916 248.353088,253.015823 
	C250.520599,256.274109 252.903214,259.389343 255.029327,262.768036 
	C254.230545,262.658112 253.608551,262.337769 252.936859,261.860046 
	C252.790878,261.649506 252.694595,261.596375 252.598297,261.543213 
	C252.738449,261.690369 252.878601,261.837524 253.003815,262.392670 
	C254.289368,268.082214 255.589859,273.363739 256.972076,278.977173 
	C258.527618,277.922089 259.208740,277.460114 259.889832,276.998138 
	C259.928009,278.065002 259.966217,279.131866 260.002197,280.599365 
	C247.979111,281.000000 235.958206,281.000000 223.489029,280.637085 
	C226.625961,274.390045 229.672333,268.072327 233.955124,262.749481 
	C237.865982,257.888885 243.115738,254.105621 247.775421,249.847565 
z"/>
<path fill="#D487C7" opacity="1.000000" stroke="none" 
	d="
M135.666672,1.000000 
	C140.643677,2.088205 145.408325,2.818002 149.906906,4.336151 
	C160.631439,7.955397 171.731873,10.955610 181.758453,16.028292 
	C195.608292,23.035246 207.617157,32.979809 218.137344,44.524689 
	C222.179031,48.960037 226.768112,53.091625 229.898499,58.115181 
	C234.259644,65.113846 237.485184,72.820152 240.790878,80.576904 
	C239.553955,80.197586 238.510483,79.603516 237.927231,78.709274 
	C234.767624,73.864876 231.755783,68.924431 228.629745,64.057732 
	C222.116516,53.917816 213.436142,45.828857 204.514908,37.843571 
	C194.959137,29.290302 185.255814,20.801750 173.399139,15.955069 
	C161.531509,11.103914 148.979202,7.932960 136.755692,3.937814 
	C135.705276,3.594496 134.869965,2.593103 133.953369,1.673224 
	C133.972000,1.449041 134.000000,1.000000 134.000000,1.000000 
	C134.444443,1.000000 134.888901,1.000000 135.666672,1.000000 
z"/>
<path fill="#2E2D2D" opacity="1.000000" stroke="none" 
	d="
M34.861389,264.734009 
	C36.816067,262.320251 38.770744,259.906494 41.142815,257.345154 
	C43.189796,259.479065 44.854942,261.736115 46.441940,264.046844 
	C50.313892,269.684662 54.149654,275.347351 58.000000,281.000000 
	C47.645771,281.000000 37.291542,281.000000 26.468658,281.000000 
	C26.120365,280.082916 26.240730,279.165833 27.037762,278.537292 
	C29.997854,279.484863 31.639275,279.651398 31.786863,276.297516 
	C31.963243,272.289337 37.009880,269.463226 34.861389,264.734009 
z"/>
<path fill="#C868B9" opacity="1.000000" stroke="none" 
	d="
M248.043976,249.750885 
	C243.115738,254.105621 237.865982,257.888885 233.955124,262.749481 
	C229.672333,268.072327 226.625961,274.390045 223.020370,280.637085 
	C221.933334,281.000000 220.866653,281.000000 219.408157,280.616272 
	C222.273468,269.485535 227.556274,260.120056 236.438263,252.855759 
	C242.540710,247.864777 248.163940,242.287857 254.001373,236.972839 
	C255.552963,237.656784 257.104553,238.340759 259.023712,239.186752 
	C255.214767,242.909027 251.763641,246.281616 248.043976,249.750885 
z"/>
<path fill="#45BED7" opacity="1.000000" stroke="none" 
	d="
M37.867538,234.652451 
	C41.964622,241.020325 45.624859,247.398956 49.844364,253.383224 
	C56.286415,262.519653 63.114883,271.383575 69.889648,280.681580 
	C67.958336,281.000000 65.916664,281.000000 63.325958,280.676270 
	C61.829113,279.018982 60.993710,277.586029 59.916080,276.367279 
	C49.390247,264.462860 41.543354,250.974838 35.978851,236.124390 
	C36.546291,235.578461 37.113731,235.032516 37.867538,234.652451 
z"/>
<path fill="#C866B9" opacity="1.000000" stroke="none" 
	d="
M35.655449,236.169403 
	C41.543354,250.974838 49.390247,264.462860 59.916080,276.367279 
	C60.993710,277.586029 61.829113,279.018982 62.888458,280.676270 
	C61.611111,281.000000 60.222221,281.000000 58.416664,281.000000 
	C54.149654,275.347351 50.313892,269.684662 46.441940,264.046844 
	C44.854942,261.736115 43.189796,259.479065 41.252678,257.025879 
	C38.471409,252.738449 36.185184,248.494125 33.474335,244.540985 
	C30.396114,240.052139 30.584265,238.545151 35.655449,236.169403 
z"/>
<path fill="#44BBD3" opacity="1.000000" stroke="none" 
	d="
M253.918488,236.709961 
	C248.163940,242.287857 242.540710,247.864777 236.438263,252.855759 
	C227.556274,260.120056 222.273468,269.485535 219.008163,280.616272 
	C218.250000,281.000000 217.500000,281.000000 216.375000,281.000000 
	C218.594955,266.831696 227.130524,256.433075 237.478271,247.193893 
	C239.431107,245.450272 241.454330,243.785477 244.060516,241.855469 
	C246.826889,239.779816 248.977829,237.932999 251.128754,236.086182 
	C252.031052,236.206482 252.933319,236.326782 253.918488,236.709961 
z"/>
<path fill="#786275" opacity="1.000000" stroke="none" 
	d="
M133.532059,1.000000 
	C134.000000,1.000000 133.972000,1.449041 133.591339,1.882010 
	C127.480164,2.199353 121.749657,2.083727 116.019142,1.968102 
	C116.019142,1.968102 116.054001,1.483172 116.027000,1.241586 
	C121.688042,1.000000 127.376076,1.000000 133.532059,1.000000 
z"/>
<path fill="#D26AC1" opacity="1.000000" stroke="none" 
	d="
M115.655586,2.076315 
	C121.749657,2.083727 127.480164,2.199353 133.572693,2.106192 
	C134.869965,2.593103 135.705276,3.594496 136.755692,3.937814 
	C148.979202,7.932960 161.531509,11.103914 173.399139,15.955069 
	C185.255814,20.801750 194.959137,29.290302 204.514908,37.843571 
	C213.436142,45.828857 222.116516,53.917816 228.629745,64.057732 
	C231.755783,68.924431 234.767624,73.864876 237.927231,78.709274 
	C238.510483,79.603516 239.553955,80.197586 240.747833,80.960648 
	C243.122040,85.322876 245.133408,89.654678 246.799561,94.472473 
	C245.407516,94.595474 244.066254,94.525826 243.363220,93.820251 
	C239.732574,90.176445 236.291397,86.344910 232.734711,82.626106 
	C228.032944,77.709991 224.232178,71.651779 216.625000,69.844650 
	C212.218643,67.129570 208.111710,64.561691 203.949097,61.851654 
	C203.802963,61.660828 203.712524,61.612164 203.622070,61.563499 
	C203.745911,61.710697 203.869736,61.857891 204.024658,62.359398 
	C204.980225,64.260399 205.791473,65.889404 206.846664,67.341080 
	C217.745468,82.335052 224.451035,98.949020 223.758850,117.599060 
	C223.433548,126.363731 220.539520,135.025360 218.946060,143.758606 
	C218.693741,145.141418 219.165359,146.656296 219.302277,148.110123 
	C218.674667,149.197495 218.047043,150.284851 216.936157,151.793839 
	C215.649048,153.195312 214.845184,154.175156 213.747131,154.887589 
	C213.318985,154.146301 212.988678,153.630417 213.079742,153.204651 
	C215.400986,142.352142 214.618729,131.461670 212.866791,120.697975 
	C211.746689,113.816086 210.110947,106.813232 204.018402,101.739594 
	C200.811890,90.437569 197.687836,79.467087 188.461639,71.521019 
	C197.624649,86.873245 202.556885,103.594879 205.100433,122.098503 
	C205.938477,119.682922 206.401230,118.349052 206.961533,117.248932 
	C207.339661,117.902939 207.620270,118.323204 207.572205,119.040527 
	C207.474426,125.271622 207.705338,131.205643 207.883392,137.327652 
	C207.830551,137.515625 207.685242,137.878098 207.454117,138.058899 
	C206.474625,140.081528 205.726257,141.923355 204.673309,143.526840 
	C202.735214,126.465340 198.553375,110.486252 187.841690,96.976044 
	C183.630035,91.664070 178.647202,86.963547 173.999908,81.659111 
	C173.331131,80.893623 172.677994,80.453590 171.744766,79.827774 
	C169.281036,77.212410 167.097397,74.782829 164.913757,72.353256 
	C167.077438,78.581070 169.955841,84.280930 172.988815,89.897316 
	C174.141495,92.031776 175.649612,93.974289 176.995850,96.310745 
	C177.109833,97.134644 177.223663,97.652092 177.337494,98.169533 
	C177.512695,98.159485 177.687912,98.149437 177.863129,98.139389 
	C177.940613,97.397850 178.018112,96.656311 178.338455,96.097748 
	C179.345871,97.185394 180.110413,98.090065 180.923279,99.312897 
	C181.259079,100.428223 181.546555,101.225388 181.582336,102.264114 
	C182.448578,105.706238 183.566513,108.906807 184.753937,112.420059 
	C184.846634,113.158600 184.869873,113.584442 184.679565,114.157364 
	C184.826385,114.924843 185.186752,115.545235 185.643295,116.562256 
	C186.272888,120.344704 186.806305,123.730515 187.339737,127.116333 
	C187.102478,127.113289 186.865234,127.110252 186.627975,127.107216 
	C183.044754,120.948532 179.461533,114.789848 175.869507,108.572838 
	C175.860718,108.514511 175.919601,108.412300 175.971497,107.991524 
	C175.973953,106.744240 176.131363,105.837112 175.845184,105.102882 
	C165.618332,78.865005 150.339767,57.209270 122.739113,46.786465 
	C108.673004,41.474697 100.373810,30.478525 93.976158,17.607742 
	C96.528328,10.547341 102.195122,6.848697 108.700729,4.152930 
	C110.807899,3.279770 113.089966,2.828682 115.655586,2.076315 
M162.481903,69.600723 
	C162.481903,69.600723 162.408722,69.480103 162.481903,69.600723 
M186.596359,68.523293 
	C186.596359,68.523293 186.476135,68.599411 186.596359,68.523293 
z"/>
<path fill="#CD68BD" opacity="1.000000" stroke="none" 
	d="
M57.995613,75.201195 
	C58.614353,71.410484 58.954441,67.548698 59.900146,63.841396 
	C63.955250,47.944756 73.818954,36.716579 88.746552,29.294125 
	C90.992653,29.079897 92.581650,28.800020 92.793633,31.428625 
	C92.945595,33.313053 93.640999,35.153664 94.048172,37.360138 
	C94.638138,39.146366 95.273895,40.586277 95.933990,42.401409 
	C97.794899,49.389843 101.549080,54.712143 106.919640,59.422943 
	C107.365669,62.890015 107.759392,65.915672 108.098083,69.302063 
	C107.692345,70.514145 107.341637,71.365479 106.715546,71.902969 
	C106.109474,68.905327 105.778786,66.221542 105.448105,63.537762 
	C104.078377,66.223701 103.897064,68.829773 103.321739,71.345749 
	C101.972466,77.246338 100.434593,83.103790 98.830856,89.039085 
	C98.799377,89.075012 98.910103,89.050568 99.303391,88.905350 
	C100.348213,88.521294 101.110474,88.258011 101.821953,88.338898 
	C99.536575,92.143478 97.301964,95.603874 94.758179,98.778053 
	C93.600166,87.675140 92.344780,76.939468 88.007545,66.791321 
	C88.007545,72.533081 88.007545,78.274834 87.868561,84.286163 
	C87.085861,85.335075 86.442139,86.114426 85.460831,86.957420 
	C76.785286,96.273224 73.080231,107.701805 72.262062,119.588402 
	C71.183189,135.262390 76.457268,149.959152 82.643456,164.171906 
	C84.304077,167.987167 86.747734,171.461609 89.018127,175.377701 
	C89.786674,177.132355 90.369034,178.601807 90.999290,180.437775 
	C92.341805,183.876266 93.636421,186.948227 94.920883,190.338562 
	C94.548141,191.127304 94.185539,191.597672 93.591003,191.950378 
	C92.948410,191.518845 92.537758,191.204987 92.078827,190.641235 
	C91.849197,189.933777 91.667854,189.476181 91.365761,188.708160 
	C90.834953,187.915726 90.424889,187.433746 90.006310,186.976868 
	C89.997787,187.001984 90.050148,186.993469 89.997314,186.717804 
	C89.636581,186.277573 89.328682,186.113007 89.010986,185.974518 
	C89.001198,186.000610 89.052856,185.979767 89.047020,185.666443 
	C88.702209,185.217194 88.363235,185.081268 88.014603,184.973480 
	C88.004944,185.001602 88.056931,184.972733 88.166336,184.634521 
	C87.194099,182.842133 86.112450,181.387970 85.019012,179.964905 
	C85.007225,179.995972 85.073563,179.992004 85.005547,179.710724 
	C84.629120,179.206955 84.320709,178.984451 83.902802,178.441864 
	C82.572693,175.712250 81.352081,173.302704 80.024368,170.651459 
	C79.626274,170.253891 79.335289,170.098022 79.021141,169.962860 
	C78.997986,169.983566 79.059990,169.987473 79.078438,169.676208 
	C78.740364,168.889954 78.383850,168.414963 78.017746,167.970917 
	C78.008156,168.001877 78.072762,167.996887 78.081482,167.678574 
	C77.739037,166.890396 77.387878,166.420517 77.020935,165.976624 
	C77.005142,166.002579 77.063766,165.986603 77.105453,165.666962 
	C76.777550,164.880859 76.407944,164.414398 76.020172,163.972702 
	C76.001999,163.997482 76.062752,163.988358 76.086472,163.671265 
	C75.751808,162.885040 75.393425,162.415909 75.019669,161.973480 
	C75.004288,162.000168 75.065002,161.989624 75.086945,161.675522 
	C74.750183,160.888275 74.391479,160.415115 74.019135,159.970642 
	C74.005508,159.999329 74.068748,159.993607 74.070534,159.679047 
	C73.726418,158.892548 73.380524,158.420609 73.020523,157.975891 
	C73.006424,158.003082 73.066063,157.989014 73.102966,157.665878 
	C72.773109,156.878357 72.406364,156.413971 72.019180,155.971008 
	C71.998749,155.992416 72.057915,155.991409 72.085220,155.648193 
	C71.750305,154.737442 71.388100,154.169907 71.006134,153.264801 
	C69.321823,149.444580 67.657272,145.961945 65.992729,142.479309 
	C64.468193,138.004288 62.508701,133.623276 61.516685,129.033173 
	C59.849850,121.320633 58.674458,113.492752 57.561470,105.675072 
	C57.216393,103.251228 57.743740,100.703186 57.784977,97.543755 
	C57.797394,89.650734 57.896503,82.425964 57.995613,75.201195 
z"/>
<path fill="#9A5599" opacity="1.000000" stroke="none" 
	d="
M94.093956,37.013824 
	C93.640999,35.153664 92.945595,33.313053 92.793633,31.428625 
	C92.581650,28.800020 90.992653,29.079897 89.049858,29.132830 
	C89.841240,28.445051 90.841682,27.950279 91.092957,27.826010 
	C91.899750,24.266525 92.599731,21.178307 93.637939,17.848915 
	C100.373810,30.478525 108.673004,41.474697 122.739113,46.786465 
	C150.339767,57.209270 165.618332,78.865005 175.845184,105.102882 
	C176.131363,105.837112 175.973953,106.744240 175.658569,107.805878 
	C170.527206,102.205299 165.760651,96.369591 160.967712,90.185745 
	C160.610870,89.563072 160.280396,89.288528 159.977371,89.011101 
	C160.004807,89.008224 159.973434,89.053627 160.000107,88.701309 
	C157.669952,85.904518 155.313126,83.460030 152.978210,81.006638 
	C153.000122,80.997719 152.982239,81.041504 153.056610,80.709839 
	C152.738068,79.924835 152.345123,79.471504 151.977371,79.011444 
	C152.002548,79.004723 151.964722,79.040825 152.038879,78.735222 
	C151.531021,78.054222 150.948990,77.678825 150.254745,76.946930 
	C147.226654,73.645790 144.310776,70.701157 141.394882,67.756516 
	C141.292831,67.984200 141.190781,68.211884 141.088715,68.439575 
	C145.114029,76.556320 149.139328,84.673073 152.832458,92.725159 
	C148.877075,88.001328 145.705383,82.872063 141.493134,78.826195 
	C137.880981,75.356728 135.066452,70.268013 129.012817,69.607269 
	C128.178619,68.461601 127.532089,67.465302 126.619682,66.892563 
	C120.373505,62.971634 114.071548,59.139542 107.436127,55.062908 
	C107.227760,56.498394 107.047546,57.739960 106.867325,58.981522 
	C101.549080,54.712143 97.794899,49.389843 96.277390,42.348328 
	C97.995949,39.145302 97.670418,37.250465 94.093956,37.013824 
z"/>
<path fill="#734175" opacity="1.000000" stroke="none" 
	d="
M65.679688,142.690384 
	C67.657272,145.961945 69.321823,149.444580 71.014252,153.625717 
	C71.380730,154.879944 71.719322,155.435684 72.057915,155.991409 
	C72.057915,155.991409 71.998749,155.992416 71.988426,156.293457 
	C72.340752,157.059326 72.703407,157.524170 73.066063,157.989014 
	C73.066063,157.989014 73.006424,158.003082 73.002792,158.298370 
	C73.355698,159.060303 73.712219,159.526947 74.068748,159.993607 
	C74.068748,159.993607 74.005508,159.999329 73.997452,160.293671 
	C74.347939,161.055222 74.706467,161.522415 75.065002,161.989624 
	C75.065002,161.989624 75.004288,162.000168 75.000076,162.294281 
	C75.351494,163.055054 75.707123,163.521698 76.062752,163.988358 
	C76.062752,163.988358 76.001999,163.997482 75.988777,164.295303 
	C76.338295,165.057617 76.701027,165.522110 77.063766,165.986603 
	C77.063766,165.986603 77.005142,166.002579 77.000061,166.298615 
	C77.354240,167.062057 77.713501,167.529465 78.072762,167.996887 
	C78.072762,167.996887 78.008156,168.001877 78.015625,168.290771 
	C78.368721,169.048920 78.714355,169.518204 79.059990,169.987473 
	C79.059990,169.987473 78.997986,169.983566 78.977928,170.225311 
	C79.349068,170.609085 79.740273,170.751129 80.131477,170.893173 
	C81.352081,173.302704 82.572693,175.712250 83.969231,178.734131 
	C84.454628,179.561661 84.764091,179.776825 85.073563,179.992004 
	C85.073563,179.992004 85.007225,179.995972 84.989578,180.344849 
	C84.652435,182.141281 84.332947,183.588821 84.007965,185.016571 
	C84.002480,184.996750 84.035248,185.021835 83.692253,185.044693 
	C82.572136,186.056442 81.795013,187.045334 81.008255,188.016632 
	C80.998604,187.999039 81.035950,188.013657 80.701859,188.027222 
	C79.915794,188.707382 79.463821,189.373962 79.003334,190.021011 
	C78.994820,190.001495 79.035774,190.013016 78.724197,189.997391 
	C77.941032,190.333191 77.469429,190.684616 76.998611,191.014709 
	C76.999390,190.993362 77.037544,191.012558 76.693634,191.038239 
	C75.573067,192.054092 74.796417,193.044250 74.008217,194.018356 
	C73.996674,194.002289 74.034096,194.014435 73.762726,194.060074 
	C73.332359,194.415131 73.173363,194.724564 73.005081,195.017334 
	C72.995789,195.000687 73.033295,195.007355 72.716904,195.132065 
	C72.267532,195.678787 72.134544,196.100815 71.942879,196.633682 
	C71.774612,196.880020 71.635002,196.967682 71.068932,196.957001 
	C69.134972,197.591919 67.597466,198.277374 66.059952,198.962830 
	C66.397949,199.359253 66.735939,199.755692 67.043251,200.437836 
	C66.978416,201.104248 66.944260,201.484940 66.641586,201.800110 
	C65.869614,201.550476 65.366180,201.366348 64.862740,201.182236 
	C62.058567,201.113480 59.236439,200.818024 56.455166,201.038361 
	C53.544678,201.268936 50.673450,201.995178 46.544540,202.723633 
	C54.306564,192.167847 66.536026,186.358597 65.657913,171.958115 
	C62.376217,173.197571 59.391548,174.324860 55.754704,175.719620 
	C53.227287,176.421646 51.371693,177.067947 49.472485,177.244156 
	C46.101131,177.556931 42.703323,177.584564 39.316582,177.731476 
	C39.316582,177.731476 39.658066,177.612549 39.981819,177.675812 
	C40.596100,177.566010 40.821171,177.330414 40.980793,177.032272 
	C51.331676,167.243103 58.204002,154.968567 65.679688,142.690384 
z"/>
<path fill="#C966B9" opacity="1.000000" stroke="none" 
	d="
M64.711838,201.463196 
	C65.366180,201.366348 65.869614,201.550476 67.031860,201.834625 
	C69.495110,202.645309 71.299553,203.355942 72.942963,204.365723 
	C67.568329,208.918839 62.354736,213.172806 56.735737,217.757538 
	C64.473587,219.302475 71.318230,220.430725 78.035980,222.076813 
	C84.868462,223.750992 91.407829,226.246506 96.214203,231.827209 
	C94.931679,231.754364 93.549522,231.966599 92.383942,231.559158 
	C87.433273,229.828751 82.546829,227.914581 77.225174,226.046387 
	C68.715057,223.101807 60.380241,221.950653 51.768581,222.285568 
	C49.924713,222.357254 48.034668,221.241425 45.462559,220.458588 
	C52.382080,213.678177 58.471504,207.711182 64.711838,201.463196 
z"/>
<path fill="#8A5D83" opacity="1.000000" stroke="none" 
	d="
M57.614777,75.278946 
	C57.896503,82.425964 57.797394,89.650734 57.828175,97.163361 
	C57.509438,97.287933 56.665874,97.116852 56.668919,96.962479 
	C56.810978,89.759636 57.026695,82.558258 57.614777,75.278946 
z"/>
<path fill="#3E3E3E" opacity="1.000000" stroke="none" 
	d="
M34.552639,264.918579 
	C37.009880,269.463226 31.963243,272.289337 31.786863,276.297516 
	C31.639275,279.651398 29.997854,279.484863 27.479061,278.544800 
	C27.243696,278.263733 27.313913,278.244598 27.738062,278.049866 
	C28.398855,276.677216 28.635500,275.499329 28.872145,274.321442 
	C30.662725,271.248688 32.453308,268.175903 34.552639,264.918579 
z"/>
<path fill="#504B51" opacity="1.000000" stroke="none" 
	d="
M39.046921,177.899002 
	C42.703323,177.584564 46.101131,177.556931 49.472485,177.244156 
	C51.371693,177.067947 53.227287,176.421646 55.504547,175.989838 
	C50.873650,177.556213 45.875492,179.250732 40.786247,180.602249 
	C39.296268,180.997940 37.022308,180.825745 39.046921,177.899002 
z"/>
<path fill="#2E2D2D" opacity="1.000000" stroke="none" 
	d="
M28.514687,274.637482 
	C28.635500,275.499329 28.398855,276.677216 27.739075,278.086090 
	C27.596367,277.195892 27.876797,276.074707 28.514687,274.637482 
z"/>
<path fill="#504B51" opacity="1.000000" stroke="none" 
	d="
M40.706917,177.107422 
	C40.821171,177.330414 40.596100,177.566010 40.076340,177.829926 
	C40.042419,177.674728 40.237732,177.428650 40.706917,177.107422 
z"/>
<path fill="#CB67BB" opacity="1.000000" stroke="none" 
	d="
M227.864136,221.861984 
	C218.218094,221.583237 209.657715,225.008133 201.532822,228.552032 
	C190.970490,233.159088 180.626999,238.687317 171.120224,245.181778 
	C160.776001,252.248291 153.789291,262.633636 148.438522,274.012848 
	C147.030563,277.007111 146.811569,276.904144 143.950439,275.036835 
	C143.527725,273.937897 143.237579,273.460968 143.001328,272.634827 
	C145.419373,268.184662 147.783539,264.083771 150.487671,259.968079 
	C158.235092,252.335907 165.642532,244.718506 173.351196,236.938416 
	C187.199051,225.426941 204.662537,222.869415 220.952011,216.158188 
	C218.244537,213.816254 216.157867,211.678436 213.753555,209.994019 
	C206.556107,204.951736 199.234421,200.086807 192.097366,194.832672 
	C193.826965,192.732010 195.420456,190.951309 197.378326,189.193756 
	C202.525208,192.096893 207.307693,194.976883 212.303177,197.947388 
	C212.516174,198.037903 212.976959,198.081696 212.979385,198.045593 
	C212.981812,198.009491 212.917099,198.041885 212.945190,198.277802 
	C212.973267,198.513702 213.081955,198.976135 212.789032,199.005585 
	C212.236404,199.203995 211.958054,199.351868 211.728790,199.555130 
	C211.662750,199.613647 211.680374,199.907455 211.756927,199.965881 
	C219.639679,205.980911 226.100372,214.050629 236.179413,216.895370 
	C236.755402,217.670807 237.331375,218.446243 237.907364,219.221680 
	C237.033356,219.798157 236.222885,220.701614 235.272705,220.886292 
	C232.949173,221.337891 230.561050,221.457275 227.864136,221.861984 
z"/>
<path fill="#734274" opacity="1.000000" stroke="none" 
	d="
M212.090179,197.856873 
	C207.307693,194.976883 202.525208,192.096893 197.347305,188.818359 
	C194.274902,186.265305 191.597900,184.110825 189.059937,181.650131 
	C193.440247,176.202774 197.681519,171.061630 201.960846,166.297989 
	C202.162811,167.687927 202.326721,168.700378 202.490631,169.712830 
	C202.877960,169.869980 203.265289,170.027130 203.652618,170.184280 
	C205.764374,167.107330 207.876144,164.030380 209.997986,160.975662 
	C210.008057,160.997894 209.959229,160.998611 210.221100,160.929688 
	C210.657776,160.553436 210.832550,160.246140 211.011703,159.595856 
	C212.024490,157.886902 213.032913,156.520950 214.041321,155.154984 
	C214.845184,154.175156 215.649048,153.195312 216.715042,152.028076 
	C217.734192,162.276306 222.210724,171.264740 227.813522,179.830338 
	C230.234299,183.531250 232.548965,187.301559 234.911835,191.040344 
	C234.396683,191.615219 233.881546,192.190094 233.366409,192.764969 
	C226.727341,189.593109 220.088287,186.421265 213.138107,183.100769 
	C213.138107,184.246017 213.138107,185.206711 212.861877,186.730865 
	C213.093109,188.189224 213.600586,189.084152 214.108047,189.979080 
	C214.108047,189.979080 214.033432,189.989319 214.016907,190.344971 
	C214.608505,192.703613 215.341858,194.681259 215.755463,196.723648 
	C215.896469,197.419998 215.233490,198.279160 214.957642,199.032715 
	C214.977417,199.001495 214.979004,199.075394 214.829819,198.797791 
	C214.092789,198.360764 213.504944,198.201324 212.917099,198.041885 
	C212.917099,198.041885 212.981812,198.009491 212.936218,197.857025 
	C212.623825,197.755341 212.356995,197.806107 212.090179,197.856873 
z"/>
<path fill="#D789CA" opacity="1.000000" stroke="none" 
	d="
M204.004791,61.993816 
	C208.111710,64.561691 212.218643,67.129570 216.660767,70.222084 
	C217.930389,72.466896 218.864822,74.187073 219.987366,76.201065 
	C220.803925,76.649811 221.432373,76.804741 222.027069,76.953705 
	C221.993317,76.947731 222.020020,76.884514 222.020020,76.884514 
	C223.539276,81.454674 225.139771,85.999779 226.559372,90.600693 
	C228.874023,98.102463 232.626923,105.284630 231.091080,113.618645 
	C230.397018,117.384827 230.442780,121.284836 230.107544,125.120163 
	C229.343842,133.857635 224.416351,140.718536 219.581619,147.927002 
	C219.165359,146.656296 218.693741,145.141418 218.946060,143.758606 
	C220.539520,135.025360 223.433548,126.363731 223.758850,117.599060 
	C224.451035,98.949020 217.745468,82.335052 206.846664,67.341080 
	C205.791473,65.889404 204.980225,64.260399 204.027863,62.356865 
	C204.000000,62.000015 204.004791,61.993816 204.004791,61.993816 
z"/>
<path fill="#8E548D" opacity="1.000000" stroke="none" 
	d="
M219.799255,75.907249 
	C218.864822,74.187073 217.930389,72.466896 216.960205,70.369293 
	C224.232178,71.651779 228.032944,77.709991 232.734711,82.626106 
	C236.291397,86.344910 239.732574,90.176445 243.363220,93.820251 
	C244.066254,94.525826 245.407516,94.595474 246.821411,94.841492 
	C247.678589,96.346741 248.168747,97.968964 248.658905,99.591187 
	C248.042221,99.907036 247.425522,100.222885 246.808838,100.538734 
	C238.787994,92.618210 230.767151,84.697693 222.383163,76.830841 
	C222.020020,76.884514 221.993317,76.947731 222.100464,76.612770 
	C221.404816,76.154289 220.602036,76.030769 219.799255,75.907249 
z"/>
<path fill="#D180C3" opacity="1.000000" stroke="none" 
	d="
M251.115417,235.687256 
	C248.977829,237.932999 246.826889,239.779816 244.367126,241.691269 
	C245.081711,239.292145 244.424973,237.866562 242.037354,236.267014 
	C237.806366,233.432541 234.043381,229.899506 230.061707,226.303070 
	C230.038834,225.947388 230.499634,225.980484 231.038269,225.984314 
	C231.780807,225.972031 231.984695,225.955948 232.188568,225.939850 
	C236.371017,227.672729 240.620499,229.263641 244.709503,231.194458 
	C246.978760,232.265961 248.980011,233.905060 251.115417,235.687256 
z"/>
<path fill="#D182C4" opacity="1.000000" stroke="none" 
	d="
M236.139709,216.550232 
	C226.100372,214.050629 219.639679,205.980911 211.756927,199.965881 
	C211.680374,199.907455 211.662750,199.613647 211.728790,199.555130 
	C211.958054,199.351868 212.236404,199.203995 213.109497,199.091309 
	C214.141602,199.123520 214.560303,199.099457 214.979004,199.075394 
	C214.979004,199.075394 214.977417,199.001495 214.955780,199.382416 
	C216.857864,200.786392 218.781601,201.809448 220.705338,202.832504 
	C224.662125,205.953430 228.670975,209.011612 232.547348,212.229416 
	C233.899750,213.352036 234.925232,214.868484 236.139709,216.550232 
z"/>
<path fill="#585857" opacity="1.000000" stroke="none" 
	d="
M252.986542,262.017426 
	C253.608551,262.337769 254.230545,262.658112 255.179459,263.114624 
	C257.098358,267.691620 258.690308,272.132446 260.086060,276.785706 
	C259.208740,277.460114 258.527618,277.922089 256.972076,278.977173 
	C255.589859,273.363739 254.289368,268.082214 252.994843,262.400055 
	C253.000793,261.999451 252.986542,262.017426 252.986542,262.017426 
z"/>
<path fill="#493F49" opacity="1.000000" stroke="none" 
	d="
M220.584564,202.526764 
	C218.781601,201.809448 216.857864,200.786392 214.935989,199.413635 
	C215.233490,198.279160 215.896469,197.419998 215.755463,196.723648 
	C215.341858,194.681259 214.608505,192.703613 214.022079,190.307663 
	C216.183777,194.016830 218.323792,198.118927 220.584564,202.526764 
z"/>
<path fill="#493F49" opacity="1.000000" stroke="none" 
	d="
M214.086548,189.649353 
	C213.600586,189.084152 213.093109,188.189224 212.833725,187.117416 
	C213.409546,187.733566 213.737305,188.526596 214.086548,189.649353 
z"/>
<path fill="#D169C0" opacity="1.000000" stroke="none" 
	d="
M232.070984,225.699768 
	C231.984695,225.955948 231.780807,225.972031 231.269241,225.988312 
	C230.972641,225.808685 230.983719,225.628906 231.026245,225.179962 
	C231.356277,225.093781 231.654831,225.276733 232.070984,225.699768 
z"/>
<path fill="#EEE629" opacity="1.000000" stroke="none" 
	d="
M205.176208,248.504333 
	C207.233536,250.366455 209.389053,251.895325 212.220612,253.903717 
	C209.208084,258.487305 206.067413,263.265869 202.926758,268.044403 
	C202.346634,267.808350 201.766510,267.572266 201.186386,267.336182 
	C201.801971,265.283203 202.206467,263.134766 203.081650,261.199158 
	C204.460983,258.148499 204.648773,255.962158 200.689896,254.877335 
	C197.909302,254.115372 197.224319,252.272690 198.854492,249.609695 
	C200.971008,246.152252 202.871490,242.562576 204.864975,239.029800 
	C205.458923,239.170776 206.052872,239.311752 206.646820,239.452744 
	C206.189346,242.358856 205.731857,245.264969 205.176208,248.504333 
z"/>
<path fill="#3A94AD" opacity="1.000000" stroke="none" 
	d="
M142.947449,272.984070 
	C143.237579,273.460968 143.527725,273.937897 143.885162,274.686920 
	C142.864532,275.665833 141.776581,276.372589 140.220642,276.713989 
	C134.830124,266.321014 130.803162,255.729660 121.988678,247.822144 
	C121.624512,247.008591 121.270485,246.518570 120.936005,246.081116 
	C120.955544,246.133698 120.869431,246.205582 120.885338,245.837875 
	C115.137093,236.663742 109.333534,227.882767 103.623123,219.041626 
	C100.034515,213.485565 94.591423,210.474045 88.745659,208.095978 
	C84.205521,206.249008 79.514549,204.772842 75.074928,202.829620 
	C80.881866,198.648636 86.504486,194.769882 92.127106,190.891113 
	C92.537758,191.204987 92.948410,191.518845 93.779770,192.237274 
	C95.455368,194.103287 96.710258,195.564697 97.965157,197.026123 
	C98.221214,196.830795 98.477280,196.635468 98.733337,196.440140 
	C97.795708,194.287064 96.858078,192.134003 96.088348,189.691986 
	C97.881630,188.290817 99.507004,187.178558 101.475601,186.079742 
	C107.103661,189.354370 112.401123,192.595474 117.659737,195.898453 
	C118.445839,196.392181 119.582237,197.122284 119.654167,197.834213 
	C120.267929,203.909241 121.232567,210.552567 116.885506,215.309662 
	C113.263451,219.273392 113.567093,221.840271 117.059128,225.429688 
	C124.738091,239.505707 132.248810,253.267929 139.833221,267.390320 
	C140.920425,269.495026 141.933929,271.239563 142.947449,272.984070 
M100.916153,198.346863 
	C100.609032,198.122650 100.301903,197.898438 99.436554,198.025589 
	C99.639351,198.796555 99.842140,199.567505 100.044945,200.338470 
	C100.301613,199.807388 100.558289,199.276306 100.916153,198.346863 
z"/>
<path fill="#46C7E1" opacity="1.000000" stroke="none" 
	d="
M74.890617,203.131866 
	C79.514549,204.772842 84.205521,206.249008 88.745659,208.095978 
	C94.591423,210.474045 100.034515,213.485565 103.623123,219.041626 
	C109.333534,227.882767 115.137093,236.663742 120.528366,245.838577 
	C115.082497,242.306458 110.156746,238.188446 104.867493,234.607330 
	C102.601891,233.073380 99.579819,232.656738 96.901466,231.732407 
	C96.901466,231.732407 96.556938,231.772156 96.385574,231.799683 
	C91.407829,226.246506 84.868462,223.750992 78.035980,222.076813 
	C71.318230,220.430725 64.473587,219.302475 56.735737,217.757538 
	C62.354736,213.172806 67.568329,208.918839 73.181374,204.270584 
	C74.017426,203.628143 74.454018,203.380020 74.890617,203.131866 
z"/>
<path fill="#CA66BA" opacity="1.000000" stroke="none" 
	d="
M96.920540,232.117218 
	C99.579819,232.656738 102.601891,233.073380 104.867493,234.607330 
	C110.156746,238.188446 115.082497,242.306458 120.512451,246.206284 
	C120.869431,246.205582 120.955544,246.133698 120.843292,246.402802 
	C121.153633,247.163162 121.576225,247.654404 121.998825,248.145660 
	C130.803162,255.729660 134.830124,266.321014 139.867935,276.679840 
	C138.836655,276.410309 137.264694,276.100464 136.619522,275.156891 
	C134.235962,271.670776 132.200378,267.949127 129.958160,264.363464 
	C124.270950,255.268875 116.456512,248.280899 107.947273,241.917740 
	C104.088737,239.032349 100.597481,235.655777 96.920540,232.117218 
z"/>
<path fill="#585857" opacity="1.000000" stroke="none" 
	d="
M253.009766,261.992065 
	C252.878601,261.837524 252.738449,261.690369 252.598297,261.543213 
	C252.694595,261.596375 252.790878,261.649506 252.936859,261.860046 
	C252.986542,262.017426 253.000793,261.999451 253.009766,261.992065 
z"/>
<path fill="#F9C62D" opacity="1.000000" stroke="none" 
	d="
M160.994095,90.533875 
	C165.760651,96.369591 170.527206,102.205299 175.606689,108.226654 
	C175.919601,108.412300 175.860718,108.514511 175.538696,108.718536 
	C172.089493,111.239189 168.962311,113.555817 165.857147,115.906273 
	C165.879150,115.940102 165.958359,115.919769 165.591446,115.780441 
	C165.123657,116.080215 165.022797,116.519318 164.956345,116.970520 
	C164.990768,116.982613 164.976532,116.911026 164.700592,116.685745 
	C163.979568,116.953789 163.534500,117.447113 163.034637,118.294243 
	C162.948334,119.122215 162.916809,119.596367 162.586212,120.232666 
	C161.102310,122.532684 160.078201,124.781418 158.697083,126.783920 
	C156.282227,130.285248 156.752731,132.897934 160.724976,134.582382 
	C164.201752,136.056717 167.641815,138.041321 171.282684,138.602158 
	C176.301697,139.375320 181.666641,140.010727 186.433777,136.135605 
	C187.832138,136.328552 188.891449,136.564468 189.938477,137.252106 
	C190.331406,142.949402 190.701553,148.198013 191.149139,153.440002 
	C192.068863,164.211273 190.820267,174.382278 183.653763,183.157379 
	C182.635193,184.404572 182.531631,186.399017 181.928894,188.306000 
	C181.561630,188.767578 181.270035,188.970764 180.633118,189.206207 
	C175.252472,191.828354 170.217148,194.418274 164.814499,197.031647 
	C157.444565,199.376663 150.578995,202.599564 143.389618,203.692352 
	C138.848419,204.382629 133.420456,202.715073 129.121918,200.610580 
	C124.193787,198.197815 119.996948,194.230103 115.624985,190.758377 
	C110.349792,186.569412 105.224365,182.191864 100.133949,177.633926 
	C100.566055,176.916138 100.898331,176.460358 101.512970,175.846680 
	C114.788635,161.338760 127.721092,146.932953 140.807068,132.667984 
	C145.595886,127.447723 150.748993,122.561638 155.735901,117.523094 
	C155.516876,117.134354 155.297852,116.745613 155.078827,116.356865 
	C152.068146,117.285301 149.057480,118.213737 145.648376,119.059639 
	C143.011230,119.345528 140.772507,119.713951 138.533798,120.082375 
	C138.280365,119.663071 138.026917,119.243767 137.773483,118.824455 
	C142.164764,112.492683 146.556046,106.160912 151.266602,99.983475 
	C154.069595,104.017822 156.553299,107.897827 159.161942,111.973022 
	C160.887497,110.507805 162.325089,109.287125 163.765869,108.063721 
	C162.661407,106.829376 161.803375,105.870438 161.076996,104.617081 
	C160.796188,100.504234 160.383713,96.685822 159.889252,92.567108 
	C159.205109,91.494049 158.602936,90.721298 157.997192,89.977737 
	C157.993637,90.006920 158.052414,90.005348 158.243225,89.809235 
	C158.947159,89.426628 159.460297,89.240128 159.973434,89.053627 
	C159.973434,89.053627 160.004807,89.008224 159.980286,89.349724 
	C160.301865,89.972107 160.647980,90.252991 160.994095,90.533875 
M148.496948,174.224991 
	C145.879349,174.424942 143.263138,174.645813 140.643860,174.820633 
	C134.539734,175.228043 128.434143,175.613297 121.549271,176.057892 
	C129.948242,187.774094 151.835953,187.564743 160.693665,176.413574 
	C156.703629,175.651413 153.027237,174.949173 148.496948,174.224991 
z"/>
<path fill="#985496" opacity="1.000000" stroke="none" 
	d="
M180.874969,98.994736 
	C180.110413,98.090065 179.345871,97.185394 178.329041,96.115562 
	C178.076767,95.950401 178.076355,95.928703 178.073029,95.591736 
	C177.740204,94.462227 177.410721,93.669685 177.067184,92.661072 
	C177.053131,92.445000 176.982452,92.017761 176.902451,91.776199 
	C176.574631,91.308243 176.326828,91.081863 176.074188,90.644386 
	C176.069351,90.433296 176.014099,90.014641 176.024658,89.615204 
	C175.024155,87.470261 174.013107,85.724770 172.985321,83.733719 
	C172.968597,83.488167 172.983749,82.996155 173.212952,82.902969 
	C173.733017,82.617813 173.914551,82.351357 173.993500,82.004974 
	C174.000259,81.999535 174.015549,81.984573 174.015549,81.984573 
	C178.647202,86.963547 183.630035,91.664070 187.841690,96.976044 
	C198.553375,110.486252 202.735214,126.465340 204.900879,143.749329 
	C203.667114,149.183212 201.901184,154.156281 200.135269,159.129364 
	C199.553101,158.960281 198.970917,158.791214 198.388748,158.622147 
	C197.975388,154.436066 197.551025,150.251038 197.151779,146.063614 
	C196.759201,141.946381 196.392090,137.826706 196.184921,133.431793 
	C195.886047,131.120087 195.416046,129.084702 194.960785,126.659531 
	C194.658020,124.546593 194.340546,122.823418 194.037445,120.767632 
	C193.710266,119.943878 193.368713,119.452744 193.053040,118.957092 
	C193.078903,118.952568 193.100098,118.904221 193.135269,118.520241 
	C192.211258,115.530876 191.500305,112.791405 190.194214,110.373405 
	C189.479263,109.049797 187.758728,108.269386 186.491638,107.244026 
	C185.889252,108.865143 185.286865,110.486259 184.684464,112.107376 
	C183.566513,108.906807 182.448578,105.706238 181.915741,102.125885 
	C181.958893,100.828987 181.416931,99.911858 180.874969,98.994736 
z"/>
<path fill="#B79432" opacity="1.000000" stroke="none" 
	d="
M196.013794,133.708115 
	C196.392090,137.826706 196.759201,141.946381 197.151779,146.063614 
	C197.551025,150.251038 197.975388,154.436066 198.388748,158.622147 
	C198.970917,158.791214 199.553101,158.960281 200.135269,159.129364 
	C201.901184,154.156281 203.667114,149.183212 205.205460,143.987671 
	C205.726257,141.923355 206.474625,140.081528 207.614197,138.356689 
	C208.064148,141.977615 208.122894,145.481567 208.094238,149.352341 
	C205.978821,155.119614 203.950806,160.520050 201.922791,165.920502 
	C197.681519,171.061630 193.440247,176.202774 188.770370,181.798889 
	C186.229370,184.185104 184.116974,186.116364 182.004578,188.047623 
	C182.531631,186.399017 182.635193,184.404572 183.653763,183.157379 
	C190.820267,174.382278 192.068863,164.211273 191.149139,153.440002 
	C190.701553,148.198013 190.331406,142.949402 189.860748,137.075043 
	C189.795273,136.446289 189.828796,136.060120 190.179352,135.942719 
	C192.357864,135.119598 194.185822,134.413849 196.013794,133.708115 
z"/>
<path fill="#333130" opacity="1.000000" stroke="none" 
	d="
M189.828796,136.060120 
	C189.828796,136.060120 189.795273,136.446289 189.873016,136.623352 
	C188.891449,136.564468 187.832138,136.328552 186.154526,136.030838 
	C185.300140,135.663422 185.064072,135.357788 184.959381,134.755005 
	C185.449005,133.483597 185.807220,132.509354 186.165451,131.535095 
	C185.035751,131.334412 183.874557,130.854019 182.781296,130.977066 
	C173.678589,132.001709 168.308350,126.452293 169.668289,117.355453 
	C169.801315,116.465622 169.686081,115.538673 169.686081,114.632179 
	C168.264847,115.089912 167.049988,115.481186 165.835129,115.872452 
	C168.962311,113.555817 172.089493,111.239189 175.547485,108.776863 
	C179.461533,114.789848 183.044754,120.948532 186.627975,127.107216 
	C186.865234,127.110252 187.102478,127.113289 187.339737,127.116333 
	C186.806305,123.730515 186.272888,120.344704 185.741776,116.258957 
	C185.460419,115.042786 185.176758,114.526535 184.893097,114.010284 
	C184.869873,113.584442 184.846634,113.158600 184.753937,112.420059 
	C185.286865,110.486259 185.889252,108.865143 186.491638,107.244026 
	C187.758728,108.269386 189.479263,109.049797 190.194214,110.373405 
	C191.500305,112.791405 192.211258,115.530876 192.843140,118.752396 
	C191.428925,122.078026 190.085617,124.724579 189.396469,127.531723 
	C189.160461,128.493088 190.563187,129.856781 191.070358,131.331696 
	C190.558594,133.104538 190.193695,134.582321 189.828796,136.060120 
M178.136154,117.524216 
	C176.781815,117.563805 175.427475,117.603386 174.073135,117.642967 
	C174.146317,119.022324 173.701462,121.045616 174.419556,121.623314 
	C175.387573,122.402061 177.251068,122.067688 178.730270,122.211014 
	C178.693848,120.816879 178.657440,119.422745 178.136154,117.524216 
z"/>
<path fill="#995498" opacity="1.000000" stroke="none" 
	d="
M208.181656,148.985519 
	C208.122894,145.481567 208.064148,141.977615 207.845306,138.175873 
	C207.685242,137.878098 207.830551,137.515625 208.208710,137.038330 
	C208.358215,130.621841 208.129532,124.682655 207.900864,118.743462 
	C207.620270,118.323204 207.339661,117.902939 207.013397,116.887375 
	C206.003525,111.556145 205.039322,106.820221 204.075119,102.084305 
	C210.110947,106.813232 211.746689,113.816086 212.866791,120.697975 
	C214.618729,131.461670 215.400986,142.352142 213.079742,153.204651 
	C212.988678,153.630417 213.318985,154.146301 213.747147,154.887589 
	C213.032913,156.520950 212.024490,157.886902 210.756317,159.682022 
	C210.317444,160.406998 210.138351,160.702805 209.959229,160.998627 
	C209.959229,160.998611 210.008057,160.997894 209.621185,160.934235 
	C209.018631,159.770950 208.688187,158.679413 208.609695,157.570068 
	C208.407516,154.712769 208.316864,151.847565 208.181656,148.985519 
z"/>
<path fill="#D989CB" opacity="1.000000" stroke="none" 
	d="
M204.018402,101.739594 
	C205.039322,106.820221 206.003525,111.556145 206.915863,116.653625 
	C206.401230,118.349052 205.938477,119.682922 205.100433,122.098503 
	C202.556885,103.594879 197.624649,86.873245 188.461639,71.521019 
	C197.687836,79.467087 200.811890,90.437569 204.018402,101.739594 
z"/>
<path fill="#DA84CB" opacity="1.000000" stroke="none" 
	d="
M176.982452,92.017761 
	C176.982452,92.017761 177.053131,92.445000 177.038681,93.052238 
	C177.017578,94.438248 177.010925,95.217010 177.002258,95.997787 
	C177.000244,95.999786 176.995728,96.004280 176.995728,96.004280 
	C175.649612,93.974289 174.141495,92.031776 172.988815,89.897316 
	C169.955841,84.280930 167.077438,78.581070 164.913757,72.353256 
	C167.097397,74.782829 169.281036,77.212410 171.821487,80.095329 
	C172.446335,81.035446 172.714371,81.522217 172.980423,82.255775 
	C172.978439,82.502571 172.983749,82.996155 172.983749,82.996155 
	C172.983749,82.996155 172.968597,83.488167 173.015030,84.083755 
	C174.045670,86.457771 175.029892,88.236206 176.014099,90.014641 
	C176.014099,90.014641 176.069351,90.433296 176.140198,90.896187 
	C176.468185,91.578644 176.725327,91.798203 176.982452,92.017761 
z"/>
<path fill="#573C56" opacity="1.000000" stroke="none" 
	d="
M207.572205,119.040527 
	C208.129532,124.682655 208.358215,130.621841 208.261566,136.850357 
	C207.705338,131.205643 207.474426,125.271622 207.572205,119.040527 
z"/>
<path fill="#41353D" opacity="1.000000" stroke="none" 
	d="
M180.923279,99.312897 
	C181.416931,99.911858 181.958893,100.828987 182.167450,101.884338 
	C181.546555,101.225388 181.259079,100.428223 180.923279,99.312897 
z"/>
<path fill="#985496" opacity="1.000000" stroke="none" 
	d="
M184.679565,114.157364 
	C185.176758,114.526535 185.460419,115.042786 185.645599,115.862335 
	C185.186752,115.545235 184.826385,114.924843 184.679565,114.157364 
z"/>
<path fill="#DA84CB" opacity="1.000000" stroke="none" 
	d="
M178.086182,95.932587 
	C178.018112,96.656311 177.940613,97.397850 177.863129,98.139389 
	C177.687912,98.149437 177.512695,98.159485 177.337494,98.169533 
	C177.223663,97.652092 177.109833,97.134644 176.995850,96.310745 
	C176.995728,96.004280 177.000244,95.999786 177.270721,95.988754 
	C177.719589,95.961388 177.897964,95.945045 178.076355,95.928703 
	C178.076355,95.928703 178.076767,95.950401 178.086182,95.932587 
z"/>
<path fill="#985496" opacity="1.000000" stroke="none" 
	d="
M172.982407,82.008980 
	C172.714371,81.522217 172.446335,81.035446 172.101593,80.281113 
	C172.677994,80.453590 173.331131,80.893623 173.999908,81.659111 
	C174.015549,81.984573 174.000259,81.999535 173.742493,82.002625 
	C173.317291,82.006805 173.149841,82.007889 172.982407,82.008980 
z"/>
<path fill="#DA84CB" opacity="1.000000" stroke="none" 
	d="
M162.445312,69.540413 
	C162.408722,69.480103 162.481903,69.600723 162.445312,69.540413 
z"/>
<path fill="#D989CB" opacity="1.000000" stroke="none" 
	d="
M186.536255,68.561356 
	C186.476135,68.599411 186.596359,68.523293 186.536255,68.561356 
z"/>
<path fill="#D789CA" opacity="1.000000" stroke="none" 
	d="
M203.996796,62.002548 
	C203.869736,61.857891 203.745911,61.710697 203.622070,61.563499 
	C203.712524,61.612164 203.802963,61.660828 203.949097,61.851654 
	C204.004791,61.993816 204.000000,62.000015 203.996796,62.002548 
z"/>
<path fill="#F8C62C" opacity="1.000000" stroke="none" 
	d="
M95.067352,99.064270 
	C97.301964,95.603874 99.536575,92.143478 101.993454,88.016319 
	C103.807465,82.305313 105.399200,77.261063 106.990936,72.216820 
	C107.341637,71.365479 107.692345,70.514145 108.344826,69.038528 
	C108.888138,66.546577 109.129684,64.678902 109.364899,62.860165 
	C112.495903,64.727493 115.520355,66.335838 118.322105,68.267227 
	C120.374367,69.681961 122.134193,71.520905 123.876793,73.467499 
	C116.289810,82.893417 108.736099,91.933044 101.472847,101.200333 
	C98.925842,104.450081 97.092529,108.259178 94.631302,111.951218 
	C92.057152,113.460327 91.404823,115.507385 91.509605,118.017960 
	C88.726341,121.075706 86.288773,124.130386 83.601074,127.321350 
	C82.356865,128.626907 81.362785,129.796188 80.007980,130.771942 
	C79.144608,128.056808 78.641968,125.535179 78.124176,122.604019 
	C78.153206,120.830467 78.197365,119.466438 78.604462,117.980331 
	C79.293007,116.814796 79.623795,115.772934 79.943344,114.727623 
	C81.706535,108.959885 83.466988,103.191299 85.228371,97.423004 
	C85.896706,97.558487 86.565033,97.693970 87.233360,97.829453 
	C87.233360,101.426743 87.233360,105.024033 87.233360,108.621315 
	C87.882141,108.782684 88.530914,108.944054 89.179695,109.105423 
	C89.836334,107.124664 90.492981,105.143906 91.427742,103.005699 
	C92.826355,101.586922 93.946854,100.325592 95.067352,99.064270 
z"/>
<path fill="#945293" opacity="1.000000" stroke="none" 
	d="
M88.831932,175.092499 
	C86.747734,171.461609 84.304077,167.987167 82.643456,164.171906 
	C76.457268,149.959152 71.183189,135.262390 72.262062,119.588402 
	C73.080231,107.701805 76.785286,96.273224 85.506706,87.346420 
	C85.918732,88.446846 85.947296,89.221931 85.989136,89.997551 
	C86.002403,89.998093 85.989616,89.973824 85.706825,89.999641 
	C85.283905,90.361443 85.143768,90.697418 84.997185,91.014099 
	C84.990730,90.994804 85.031090,90.989548 84.772476,91.154404 
	C84.347008,91.889038 84.180145,92.458809 84.004608,93.013229 
	C83.995949,92.997879 84.031227,92.998047 83.721069,93.172409 
	C82.599983,95.900047 81.789070,98.453316 80.989838,101.003754 
	C81.001526,101.000923 80.996185,100.977516 80.647400,101.077423 
	C79.509338,105.114983 78.720062,109.052635 77.928787,113.254318 
	C77.893738,113.691238 77.860687,113.864136 77.548172,114.156265 
	C76.921631,115.184967 76.574562,116.094429 76.142334,117.427368 
	C76.037460,124.293442 75.546188,130.782043 76.168671,137.161972 
	C76.564438,141.218292 78.614227,145.113235 80.043503,149.343567 
	C81.150307,152.688354 82.135933,155.770142 83.139618,159.231171 
	C85.049095,164.771118 86.940514,169.931808 88.831932,175.092499 
z"/>
<path fill="#965395" opacity="1.000000" stroke="none" 
	d="
M75.074928,202.829636 
	C74.454018,203.380020 74.017426,203.628143 73.342415,203.971436 
	C71.299553,203.355942 69.495110,202.645309 67.300385,201.900146 
	C66.944260,201.484940 66.978416,201.104248 67.371017,200.355621 
	C68.974770,198.994308 70.220078,198.000931 71.465378,197.007538 
	C71.635002,196.967682 71.774612,196.880020 72.174103,196.417999 
	C72.653763,195.730072 72.843529,195.368713 73.033295,195.007355 
	C73.033295,195.007355 72.995789,195.000687 73.271431,194.963974 
	C73.709412,194.622986 73.871758,194.318710 74.034103,194.014435 
	C74.034096,194.014435 73.996674,194.002289 74.346779,193.995193 
	C75.477104,192.996262 76.257324,192.004410 77.037552,191.012558 
	C77.037544,191.012558 76.999390,190.993362 77.312973,191.060959 
	C78.096298,190.756714 78.566032,190.384857 79.035774,190.013016 
	C79.035774,190.013016 78.994820,190.001495 79.326950,189.988129 
	C80.118042,189.321060 80.576996,188.667358 81.035950,188.013657 
	C81.035950,188.013657 80.998604,187.999039 81.352631,188.003510 
	C82.482849,187.012604 83.259048,186.017227 84.035248,185.021835 
	C84.035248,185.021835 84.002480,184.996750 84.411446,185.082901 
	C85.899254,185.103622 86.978088,185.038177 88.056931,184.972733 
	C88.056931,184.972733 88.004944,185.001602 88.040184,185.265076 
	C88.401237,185.678970 88.727051,185.829361 89.052856,185.979767 
	C89.052856,185.979767 89.001198,186.000610 89.018707,186.274704 
	C89.374199,186.697021 89.712173,186.845245 90.050140,186.993469 
	C90.050148,186.993469 89.997787,187.001984 89.948990,187.351364 
	C90.428970,188.140030 90.957741,188.579315 91.486511,189.018585 
	C91.667854,189.476181 91.849197,189.933777 92.078819,190.641235 
	C86.504486,194.769882 80.881866,198.648636 75.074928,202.829636 
z"/>
<path fill="#B39331" opacity="1.000000" stroke="none" 
	d="
M124.024353,73.170776 
	C122.134193,71.520905 120.374367,69.681961 118.322105,68.267227 
	C115.520355,66.335838 112.495903,64.727493 109.364899,62.860165 
	C109.129684,64.678902 108.888138,66.546577 108.399857,68.677780 
	C107.759392,65.915672 107.365669,62.890015 106.919640,59.422943 
	C107.047546,57.739960 107.227760,56.498394 107.436127,55.062908 
	C114.071548,59.139542 120.373505,62.971634 126.619682,66.892563 
	C127.532089,67.465302 128.178619,68.461601 128.862518,69.853668 
	C128.447250,70.913483 128.117630,71.381554 127.458252,71.901291 
	C126.093773,72.358902 125.059059,72.764839 124.024353,73.170776 
z"/>
<path fill="#945292" opacity="1.000000" stroke="none" 
	d="
M94.758179,98.778046 
	C93.946854,100.325592 92.826355,101.586922 91.335854,102.623810 
	C90.930344,100.992439 90.984344,99.576431 90.842712,98.180267 
	C90.401474,93.830551 89.886162,89.488350 89.238083,84.872910 
	C88.720245,84.407249 88.363892,84.211922 88.007545,84.016594 
	C88.007545,78.274834 88.007545,72.533081 88.007545,66.791321 
	C92.344780,76.939468 93.600166,87.675140 94.758179,98.778046 
z"/>
<path fill="#D586C7" opacity="1.000000" stroke="none" 
	d="
M106.715546,71.902969 
	C105.399200,77.261063 103.807465,82.305313 102.044220,87.672134 
	C101.110474,88.258011 100.348213,88.521294 99.292603,88.892365 
	C98.999245,89.000145 98.973061,88.978706 98.973061,88.978706 
	C100.434593,83.103790 101.972466,77.246338 103.321739,71.345749 
	C103.897064,68.829773 104.078377,66.223701 105.448105,63.537762 
	C105.778786,66.221542 106.109474,68.905327 106.715546,71.902969 
z"/>
<path fill="#945293" opacity="1.000000" stroke="none" 
	d="
M101.132378,186.066315 
	C99.507004,187.178558 97.881630,188.290817 95.841263,189.702759 
	C95.426277,190.002457 94.931038,190.020203 94.931038,190.020203 
	C93.636421,186.948227 92.341805,183.876266 91.322800,180.389847 
	C92.367767,179.582886 93.137115,179.190369 94.179428,178.950943 
	C95.254990,179.718201 96.057587,180.332367 97.009346,181.245300 
	C98.483131,183.051468 99.807755,184.558899 101.132378,186.066315 
z"/>
<path fill="#463043" opacity="1.000000" stroke="none" 
	d="
M93.906464,178.797852 
	C93.137115,179.190369 92.367767,179.582886 91.274902,180.023331 
	C90.369034,178.601807 89.786674,177.132355 89.018127,175.377701 
	C86.940514,169.931808 85.049095,164.771118 83.450798,159.225830 
	C84.778183,157.901611 85.812447,156.961975 86.861801,156.349594 
	C86.879128,157.113419 86.881348,157.550018 86.622108,158.176025 
	C84.557159,164.722092 88.969078,168.902130 91.221329,173.793777 
	C93.183594,173.128098 94.660622,172.627045 96.200294,172.378906 
	C96.217690,172.799545 96.172432,172.967270 95.827629,173.277710 
	C94.987534,175.212906 94.446999,177.005371 93.906464,178.797852 
z"/>
<path fill="#8D508C" opacity="1.000000" stroke="none" 
	d="
M94.920883,190.338562 
	C94.931038,190.020203 95.426277,190.002457 95.673363,189.991699 
	C96.858078,192.134003 97.795708,194.287064 98.733337,196.440140 
	C98.477280,196.635468 98.221214,196.830795 97.965157,197.026123 
	C96.710258,195.564697 95.455368,194.103287 94.011703,192.354950 
	C94.185539,191.597672 94.548141,191.127304 94.920883,190.338562 
z"/>
<path fill="#945392" opacity="1.000000" stroke="none" 
	d="
M94.048172,37.360138 
	C97.670418,37.250465 97.995949,39.145302 96.253052,41.973106 
	C95.273895,40.586277 94.638138,39.146366 94.048172,37.360138 
z"/>
<path fill="#3F333F" opacity="1.000000" stroke="none" 
	d="
M88.166336,184.634521 
	C86.978088,185.038177 85.899254,185.103622 84.416931,185.102722 
	C84.332947,183.588821 84.652435,182.141281 85.001358,180.313782 
	C86.112450,181.387970 87.194099,182.842133 88.166336,184.634521 
z"/>
<path fill="#45383C" opacity="1.000000" stroke="none" 
	d="
M87.868561,84.286163 
	C88.363892,84.211922 88.720245,84.407249 89.027611,85.145081 
	C87.977707,87.124054 86.976784,88.560532 85.975861,89.997009 
	C85.947296,89.221931 85.918732,88.446846 85.844292,87.282776 
	C86.442139,86.114426 87.085861,85.335075 87.868561,84.286163 
z"/>
<path fill="#3D313D" opacity="1.000000" stroke="none" 
	d="
M76.086472,163.671265 
	C75.707123,163.521698 75.351494,163.055054 75.015457,162.267578 
	C75.393425,162.415909 75.751808,162.885040 76.086472,163.671265 
z"/>
<path fill="#3D313D" opacity="1.000000" stroke="none" 
	d="
M74.070534,159.679047 
	C73.712219,159.526947 73.355698,159.060303 73.016891,158.271164 
	C73.380524,158.420609 73.726418,158.892548 74.070534,159.679047 
z"/>
<path fill="#3D313D" opacity="1.000000" stroke="none" 
	d="
M77.105453,165.666962 
	C76.701027,165.522110 76.338295,165.057617 76.006943,164.270523 
	C76.407944,164.414398 76.777550,164.880859 77.105453,165.666962 
z"/>
<path fill="#3D313D" opacity="1.000000" stroke="none" 
	d="
M78.081482,167.678574 
	C77.713501,167.529465 77.354240,167.062057 77.015854,166.272644 
	C77.387878,166.420517 77.739037,166.890396 78.081482,167.678574 
z"/>
<path fill="#3D313D" opacity="1.000000" stroke="none" 
	d="
M72.085220,155.648193 
	C71.719322,155.435684 71.380730,154.879944 71.034012,153.963287 
	C71.388100,154.169907 71.750305,154.737442 72.085220,155.648193 
z"/>
<path fill="#3F333F" opacity="1.000000" stroke="none" 
	d="
M91.365768,188.708160 
	C90.957741,188.579315 90.428970,188.140030 89.957512,187.326248 
	C90.424889,187.433746 90.834953,187.915726 91.365768,188.708160 
z"/>
<path fill="#3D313D" opacity="1.000000" stroke="none" 
	d="
M79.078438,169.676208 
	C78.714355,169.518204 78.368721,169.048920 78.025208,168.259811 
	C78.383850,168.414963 78.740364,168.889954 79.078438,169.676208 
z"/>
<path fill="#3D313D" opacity="1.000000" stroke="none" 
	d="
M73.102966,157.665878 
	C72.703407,157.524170 72.340752,157.059326 72.008858,156.272034 
	C72.406364,156.413971 72.773109,156.878357 73.102966,157.665878 
z"/>
<path fill="#3D313D" opacity="1.000000" stroke="none" 
	d="
M80.024368,170.651459 
	C79.740273,170.751129 79.349068,170.609085 79.001083,170.204605 
	C79.335289,170.098022 79.626274,170.253891 80.024368,170.651459 
z"/>
<path fill="#3D313D" opacity="1.000000" stroke="none" 
	d="
M75.086945,161.675522 
	C74.706467,161.522415 74.347939,161.055222 74.011086,160.264984 
	C74.391479,160.415115 74.750183,160.888275 75.086945,161.675522 
z"/>
<path fill="#3F333F" opacity="1.000000" stroke="none" 
	d="
M85.005547,179.710724 
	C84.764091,179.776825 84.454628,179.561661 84.078735,179.054230 
	C84.320709,178.984451 84.629120,179.206955 85.005547,179.710724 
z"/>
<path fill="#3F333F" opacity="1.000000" stroke="none" 
	d="
M89.047028,185.666443 
	C88.727051,185.829361 88.401237,185.678970 88.049843,185.236969 
	C88.363235,185.081268 88.702209,185.217194 89.047028,185.666443 
z"/>
<path fill="#3F333F" opacity="1.000000" stroke="none" 
	d="
M89.997314,186.717804 
	C89.712173,186.845245 89.374199,186.697021 89.028503,186.248627 
	C89.328682,186.113007 89.636581,186.277573 89.997314,186.717804 
z"/>
<path fill="#D586C7" opacity="1.000000" stroke="none" 
	d="
M99.010040,89.013130 
	C98.910103,89.050568 98.799377,89.075012 98.830856,89.039085 
	C98.973061,88.978706 98.999245,89.000145 99.010040,89.013130 
z"/>
<path fill="#852276" opacity="1.000000" stroke="none" 
	d="
M127.788025,71.849625 
	C128.117630,71.381554 128.447250,70.913483 128.927185,70.199020 
	C135.066452,70.268013 137.880981,75.356728 141.493134,78.826195 
	C145.705383,82.872063 148.877075,88.001328 152.840149,92.765732 
	C153.180023,92.870979 153.185425,92.950813 153.164459,93.251007 
	C153.482635,93.979431 153.821777,94.407669 154.242386,95.130219 
	C154.369034,95.623055 154.414230,95.821564 154.089355,96.077057 
	C153.091644,96.758690 152.463974,97.383347 151.549957,97.846130 
	C145.203659,91.308884 139.218384,84.859329 133.020462,78.621040 
	C131.788452,77.380997 129.741898,76.950211 128.061279,75.711227 
	C127.963722,74.134018 127.875870,72.991821 127.788025,71.849625 
z"/>
<path fill="#CB67BB" opacity="1.000000" stroke="none" 
	d="
M154.459412,96.020065 
	C154.414230,95.821564 154.369034,95.623055 154.218445,94.850143 
	C153.803833,93.834099 153.494629,93.392456 153.185425,92.950806 
	C153.185425,92.950813 153.180023,92.870979 153.172333,92.830399 
	C149.139328,84.673073 145.114029,76.556320 141.088715,68.439575 
	C141.190781,68.211884 141.292831,67.984200 141.394882,67.756516 
	C144.310776,70.701157 147.226654,73.645790 150.349945,77.179237 
	C151.026489,78.192314 151.495605,78.616570 151.964722,79.040825 
	C151.964722,79.040825 152.002548,79.004723 151.947174,79.321365 
	C152.255280,80.105850 152.618759,80.573677 152.982239,81.041504 
	C152.982239,81.041504 153.000122,80.997719 153.007141,81.365616 
	C154.693588,84.490791 156.373001,87.248070 158.052414,90.005348 
	C158.052414,90.005348 157.993637,90.006920 157.992981,90.312119 
	C158.651978,91.367348 159.311600,92.117378 159.971237,92.867409 
	C160.383713,96.685822 160.796188,100.504234 160.758194,104.519974 
	C158.358292,101.818214 156.408844,98.919144 154.459412,96.020065 
z"/>
<path fill="#503A4B" opacity="1.000000" stroke="none" 
	d="
M158.243225,89.809235 
	C156.373001,87.248070 154.693588,84.490791 152.985229,81.374527 
	C155.313126,83.460030 157.669952,85.904518 160.000107,88.701309 
	C159.460297,89.240128 158.947159,89.426628 158.243225,89.809235 
z"/>
<path fill="#503A4B" opacity="1.000000" stroke="none" 
	d="
M152.038879,78.735222 
	C151.495605,78.616570 151.026489,78.192314 150.462158,77.535736 
	C150.948990,77.678825 151.531021,78.054222 152.038879,78.735222 
z"/>
<path fill="#503A4B" opacity="1.000000" stroke="none" 
	d="
M153.056610,80.709839 
	C152.618759,80.573677 152.255280,80.105850 151.921997,79.328094 
	C152.345123,79.471504 152.738068,79.924835 153.056610,80.709839 
z"/>
<path fill="#503A4B" opacity="1.000000" stroke="none" 
	d="
M160.967712,90.185745 
	C160.647980,90.252991 160.301865,89.972107 159.952850,89.352600 
	C160.280396,89.288528 160.610870,89.563072 160.967712,90.185745 
z"/>
<path fill="#3B303B" opacity="1.000000" stroke="none" 
	d="
M71.068939,196.957001 
	C70.220078,198.000931 68.974770,198.994308 67.401703,200.069901 
	C66.735939,199.755692 66.397949,199.359253 66.059952,198.962830 
	C67.597466,198.277374 69.134972,197.591919 71.068939,196.957001 
z"/>
<path fill="#3B303B" opacity="1.000000" stroke="none" 
	d="
M76.693634,191.038239 
	C76.257324,192.004410 75.477104,192.996262 74.358322,194.011261 
	C74.796417,193.044250 75.573067,192.054092 76.693634,191.038239 
z"/>
<path fill="#3F333F" opacity="1.000000" stroke="none" 
	d="
M83.692253,185.044693 
	C83.259048,186.017227 82.482849,187.012604 81.362274,188.021103 
	C81.795013,187.045334 82.572136,186.056442 83.692253,185.044693 
z"/>
<path fill="#3B303B" opacity="1.000000" stroke="none" 
	d="
M80.701859,188.027222 
	C80.576996,188.667358 80.118042,189.321060 79.335464,190.007660 
	C79.463821,189.373962 79.915794,188.707382 80.701859,188.027222 
z"/>
<path fill="#3B303B" opacity="1.000000" stroke="none" 
	d="
M78.724197,189.997391 
	C78.566032,190.384857 78.096298,190.756714 77.312195,191.082306 
	C77.469429,190.684616 77.941032,190.333191 78.724197,189.997391 
z"/>
<path fill="#3B303B" opacity="1.000000" stroke="none" 
	d="
M72.716904,195.132065 
	C72.843529,195.368713 72.653763,195.730072 72.232780,196.307129 
	C72.134544,196.100815 72.267532,195.678787 72.716904,195.132065 
z"/>
<path fill="#3B303B" opacity="1.000000" stroke="none" 
	d="
M73.762733,194.060074 
	C73.871758,194.318710 73.709412,194.622986 73.280716,194.980621 
	C73.173363,194.724564 73.332359,194.415131 73.762733,194.060074 
z"/>
<path fill="#B79532" opacity="1.000000" stroke="none" 
	d="
M101.475601,186.079742 
	C99.807755,184.558899 98.483131,183.051468 97.162720,180.965439 
	C98.122658,179.556534 99.078384,178.726242 100.034111,177.895935 
	C105.224365,182.191864 110.349792,186.569412 115.624985,190.758377 
	C119.996948,194.230103 124.193787,198.197815 129.121918,200.610580 
	C133.420456,202.715073 138.848419,204.382629 143.389618,203.692352 
	C150.578995,202.599564 157.444565,199.376663 164.741318,197.480225 
	C164.340805,206.804504 166.019806,215.044571 172.067642,221.877792 
	C166.439209,230.832336 160.876892,239.368851 155.668076,248.115875 
	C153.447418,251.844940 151.965378,256.013855 150.147705,259.982880 
	C147.783539,264.083771 145.419373,268.184662 143.001328,272.634827 
	C141.933929,271.239563 140.920425,269.495026 140.180756,267.251465 
	C145.949173,255.601303 150.845184,244.097687 157.136688,233.416000 
	C161.775589,225.540070 159.447601,218.702942 157.478165,210.749908 
	C145.715607,216.861282 135.491776,212.657745 125.740280,207.875900 
	C122.743515,213.714066 119.817200,219.414978 116.890884,225.115891 
	C113.567093,221.840271 113.263451,219.273392 116.885506,215.309662 
	C121.232567,210.552567 120.267929,203.909241 119.654167,197.834213 
	C119.582237,197.122284 118.445839,196.392181 117.659737,195.898453 
	C112.401123,192.595474 107.103661,189.354370 101.475601,186.079742 
z"/>
<path fill="#46C7E1" opacity="1.000000" stroke="none" 
	d="
M191.961243,195.152634 
	C199.234421,200.086807 206.556107,204.951736 213.753555,209.994019 
	C216.157867,211.678436 218.244537,213.816254 220.952011,216.158188 
	C204.662537,222.869415 187.199051,225.426941 173.030609,236.938324 
	C171.616669,237.413681 170.824539,237.726425 170.015015,238.019531 
	C169.997604,237.999878 169.958252,237.965149 169.988129,237.598724 
	C170.630051,235.712952 171.181198,234.165665 171.864136,232.678894 
	C175.911514,223.867615 179.827194,214.989990 184.130554,206.304825 
	C186.070511,202.389542 188.803787,198.867340 191.372742,195.139404 
	C191.568329,195.112015 191.961243,195.152634 191.961243,195.152634 
z"/>
<path fill="#3A94AD" opacity="1.000000" stroke="none" 
	d="
M170.032425,238.039185 
	C170.824539,237.726425 171.616669,237.413681 172.729370,237.101013 
	C165.642532,244.718506 158.235092,252.335907 150.487671,259.968079 
	C151.965378,256.013855 153.447418,251.844940 155.668076,248.115875 
	C160.876892,239.368851 166.439209,230.832336 172.067642,221.877792 
	C166.019806,215.044571 164.340805,206.804504 165.108658,197.456757 
	C170.217148,194.418274 175.252472,191.828354 180.805481,189.495224 
	C184.607834,191.556931 187.892487,193.361862 191.177139,195.166794 
	C188.803787,198.867340 186.070511,202.389542 184.130554,206.304825 
	C179.827194,214.989990 175.911514,223.867615 171.864136,232.678894 
	C171.181198,234.165665 170.630051,235.712952 169.833435,237.654419 
	C169.776733,238.064102 169.904572,238.051636 170.032425,238.039185 
z"/>
<path fill="#975396" opacity="1.000000" stroke="none" 
	d="
M191.372742,195.139404 
	C187.892487,193.361862 184.607834,191.556931 181.150818,189.462982 
	C181.270035,188.970764 181.561630,188.767578 181.928894,188.306000 
	C184.116974,186.116364 186.229370,184.185104 188.631332,182.105103 
	C191.597900,184.110825 194.274902,186.265305 196.982910,188.795212 
	C195.420456,190.951309 193.826965,192.732010 192.097366,194.832672 
	C191.961243,195.152634 191.568329,195.112015 191.372742,195.139404 
z"/>
<path fill="#493F49" opacity="1.000000" stroke="none" 
	d="
M214.829819,198.797791 
	C214.560303,199.099457 214.141602,199.123520 213.402435,199.061859 
	C213.081955,198.976135 212.973267,198.513702 212.945190,198.277802 
	C213.504944,198.201324 214.092789,198.360764 214.829819,198.797791 
z"/>
<path fill="#493F49" opacity="1.000000" stroke="none" 
	d="
M212.303177,197.947388 
	C212.356995,197.806107 212.623825,197.755341 212.933807,197.893127 
	C212.976959,198.081696 212.516174,198.037903 212.303177,197.947388 
z"/>
<path fill="#3A3138" opacity="1.000000" stroke="none" 
	d="
M208.094238,149.352341 
	C208.316864,151.847565 208.407516,154.712769 208.609695,157.570068 
	C208.688187,158.679413 209.018631,159.770950 209.611099,160.912018 
	C207.876144,164.030380 205.764374,167.107330 203.652618,170.184280 
	C203.265289,170.027130 202.877960,169.869980 202.490631,169.712830 
	C202.326721,168.700378 202.162811,167.687927 201.960846,166.297989 
	C203.950806,160.520050 205.978821,155.119614 208.094238,149.352341 
z"/>
<path fill="#3A3138" opacity="1.000000" stroke="none" 
	d="
M210.221115,160.929688 
	C210.138351,160.702805 210.317444,160.406998 210.751938,160.025024 
	C210.832550,160.246140 210.657776,160.553436 210.221115,160.929688 
z"/>
<path fill="#FEFEFE" opacity="1.000000" stroke="none" 
	d="
M219.987366,76.201065 
	C220.602036,76.030769 221.404816,76.154289 222.134201,76.618744 
	C221.432373,76.804741 220.803925,76.649811 219.987366,76.201065 
z"/>
<path fill="#FDC82C" opacity="1.000000" stroke="none" 
	d="
M117.059128,225.429688 
	C119.817200,219.414978 122.743515,213.714066 125.740280,207.875900 
	C135.491776,212.657745 145.715607,216.861282 157.478165,210.749908 
	C159.447601,218.702942 161.775589,225.540070 157.136688,233.416000 
	C150.845184,244.097687 145.949173,255.601303 140.107071,266.891266 
	C132.248810,253.267929 124.738091,239.505707 117.059128,225.429688 
z"/>
<path fill="#7D497C" opacity="1.000000" stroke="none" 
	d="
M100.814957,198.745224 
	C100.558289,199.276306 100.301613,199.807388 100.044937,200.338470 
	C99.842140,199.567505 99.639351,198.796555 99.779343,198.080811 
	C100.263191,198.441406 100.494133,198.644470 100.814957,198.745224 
z"/>
<path fill="#8D508C" opacity="1.000000" stroke="none" 
	d="
M100.865555,198.546051 
	C100.494133,198.644470 100.263191,198.441406 100.058456,197.905136 
	C100.301903,197.898438 100.609032,198.122650 100.865555,198.546051 
z"/>
<path fill="#46C7E1" opacity="1.000000" stroke="none" 
	d="
M121.988678,247.822144 
	C121.576225,247.654404 121.153633,247.163162 120.823746,246.350220 
	C121.270485,246.518570 121.624512,247.008591 121.988678,247.822144 
z"/>
<path fill="#B71E90" opacity="1.000000" stroke="none" 
	d="
M128.070969,76.146255 
	C129.741898,76.950211 131.788452,77.380997 133.020462,78.621040 
	C139.218384,84.859329 145.203659,91.308884 151.530640,98.107285 
	C151.514221,98.963257 151.230774,99.396194 150.947327,99.829132 
	C146.556046,106.160912 142.164764,112.492683 137.773483,118.824455 
	C138.026917,119.243767 138.280365,119.663071 138.533798,120.082375 
	C140.772507,119.713951 143.011230,119.345528 145.622223,119.403152 
	C140.552750,125.884796 135.317459,132.142776 129.623764,137.951416 
	C119.553627,148.224869 109.204536,158.224884 98.695312,168.436737 
	C97.951042,169.372375 97.483658,170.210648 97.014160,171.021957 
	C97.012062,170.994995 97.049110,171.034454 96.759811,170.943115 
	C96.269531,170.874420 96.068558,170.897064 95.520599,170.892181 
	C94.017197,169.375351 92.728844,167.968628 91.733681,166.378418 
	C90.020775,163.641342 88.490494,160.789993 86.883568,157.986603 
	C86.881348,157.550018 86.879128,157.113419 86.944931,155.979294 
	C86.977531,154.779556 86.942101,154.277374 87.104424,153.492554 
	C89.086311,149.282211 90.870445,145.354492 92.879608,140.931381 
	C89.145523,141.267715 86.081772,141.543671 82.851387,141.564331 
	C82.099571,140.793686 81.514381,140.278351 81.097076,139.484528 
	C83.414742,136.983566 85.564522,134.761078 88.040077,132.742493 
	C100.593216,139.907883 112.825432,141.530014 125.415428,132.938889 
	C129.009567,131.715561 129.722443,129.639984 127.826881,126.768265 
	C125.664566,123.492439 123.426361,120.266701 121.135193,116.669037 
	C118.739868,114.277626 116.430473,112.236366 113.774780,110.014023 
	C110.293060,108.711151 107.157631,107.589363 104.271126,106.278679 
	C112.370361,96.108612 120.220665,86.127434 128.070969,76.146255 
z"/>
<path fill="#44BFD8" opacity="1.000000" stroke="none" 
	d="
M98.972214,168.339355 
	C109.204536,158.224884 119.553627,148.224869 129.623764,137.951416 
	C135.317459,132.142776 140.552750,125.884796 146.020660,119.485687 
	C149.057480,118.213737 152.068146,117.285301 155.078827,116.356865 
	C155.297852,116.745613 155.516876,117.134354 155.735901,117.523094 
	C150.748993,122.561638 145.595886,127.447723 140.807068,132.667984 
	C127.721092,146.932953 114.788635,161.338760 101.144325,175.842224 
	C99.037926,175.042130 97.582550,174.088562 96.127182,173.134979 
	C96.172432,172.967270 96.217690,172.799545 96.185257,172.355255 
	C96.107582,172.078659 96.058311,172.050446 96.354355,172.054947 
	C96.783295,171.717789 96.916199,171.376114 97.049103,171.034454 
	C97.049110,171.034454 97.012062,170.994995 97.333267,170.980133 
	C98.093712,170.089951 98.532959,169.214661 98.972214,168.339355 
z"/>
<path fill="#A0372A" opacity="1.000000" stroke="none" 
	d="
M148.923889,174.235962 
	C153.027237,174.949173 156.703629,175.651413 160.693665,176.413574 
	C151.835953,187.564743 129.948242,187.774094 121.549271,176.057892 
	C128.434143,175.613297 134.539734,175.228043 140.643860,174.820633 
	C143.263138,174.645813 145.879349,174.424942 148.923889,174.235962 
M144.076324,180.628922 
	C145.020630,180.759140 145.964920,180.889359 146.909225,181.019577 
	C146.927170,180.678680 146.945129,180.337784 146.963089,179.996887 
	C145.976410,179.996887 144.989731,179.996887 143.441071,179.391556 
	C138.612411,178.976959 133.783768,178.562378 128.955109,178.147797 
	C128.933914,178.628738 128.912720,179.109680 128.891510,179.590607 
	C133.926666,179.728088 138.961807,179.865570 144.076324,180.628922 
M151.849976,179.127869 
	C151.202957,179.191177 150.555923,179.254486 149.908905,179.317795 
	C149.948288,179.543457 149.987686,179.769119 150.027069,179.994781 
	C150.753418,179.844543 151.479752,179.694305 151.849976,179.127869 
z"/>
<path fill="#F1F0E9" opacity="1.000000" stroke="none" 
	d="
M184.828003,135.052139 
	C185.064072,135.357788 185.300140,135.663422 185.815475,136.073822 
	C181.666641,140.010727 176.301697,139.375320 171.282684,138.602158 
	C167.641815,138.041321 164.201752,136.056717 160.724976,134.582382 
	C156.752731,132.897934 156.282227,130.285248 158.697083,126.783920 
	C160.078201,124.781418 161.102310,122.532684 162.710846,120.551010 
	C163.809067,122.362839 164.516739,124.005859 165.152420,125.676270 
	C168.012497,133.191895 175.965012,138.213425 184.828003,135.052139 
z"/>
<path fill="#A6722A" opacity="1.000000" stroke="none" 
	d="
M184.959381,134.755005 
	C175.965012,138.213425 168.012497,133.191895 165.152420,125.676270 
	C164.516739,124.005859 163.809067,122.362839 163.009903,120.388870 
	C162.916809,119.596367 162.948334,119.122215 163.343414,118.290192 
	C164.130157,117.591896 164.553345,117.251465 164.976532,116.911026 
	C164.976532,116.911026 164.990768,116.982613 165.243927,116.947090 
	C165.650848,116.580971 165.804596,116.250366 165.958359,115.919769 
	C165.958359,115.919769 165.879150,115.940102 165.857147,115.906281 
	C167.049988,115.481186 168.264847,115.089912 169.686081,114.632179 
	C169.686081,115.538673 169.801315,116.465622 169.668289,117.355453 
	C168.308350,126.452293 173.678589,132.001709 182.781296,130.977066 
	C183.874557,130.854019 185.035751,131.334412 186.165451,131.535095 
	C185.807220,132.509354 185.449005,133.483597 184.959381,134.755005 
z"/>
<path fill="#B49133" opacity="1.000000" stroke="none" 
	d="
M151.266602,99.983475 
	C151.230774,99.396194 151.514221,98.963257 151.816986,98.269150 
	C152.463974,97.383347 153.091644,96.758690 154.089355,96.077057 
	C156.408844,98.919144 158.358292,101.818214 160.626526,104.814400 
	C161.803375,105.870438 162.661407,106.829376 163.765869,108.063721 
	C162.325089,109.287125 160.887497,110.507805 159.161942,111.973022 
	C156.553299,107.897827 154.069595,104.017822 151.266602,99.983475 
z"/>
<path fill="#3890A8" opacity="1.000000" stroke="none" 
	d="
M95.827629,173.277710 
	C97.582550,174.088562 99.037926,175.042130 100.861954,176.000137 
	C100.898331,176.460358 100.566055,176.916138 100.133949,177.633926 
	C99.078384,178.726242 98.122658,179.556534 97.013550,180.666687 
	C96.057587,180.332367 95.254990,179.718201 94.179428,178.950943 
	C94.446999,177.005371 94.987534,175.212906 95.827629,173.277710 
z"/>
<path fill="#503A4B" opacity="1.000000" stroke="none" 
	d="
M159.889252,92.567108 
	C159.311600,92.117378 158.651978,91.367348 157.996552,90.282936 
	C158.602936,90.721298 159.205109,91.494049 159.889252,92.567108 
z"/>
<path fill="#333130" opacity="1.000000" stroke="none" 
	d="
M164.700592,116.685745 
	C164.553345,117.251465 164.130157,117.591896 163.398193,117.936371 
	C163.534500,117.447113 163.979568,116.953789 164.700592,116.685745 
z"/>
<path fill="#333130" opacity="1.000000" stroke="none" 
	d="
M165.591446,115.780441 
	C165.804596,116.250366 165.650848,116.580971 165.209503,116.934998 
	C165.022797,116.519318 165.123657,116.080215 165.591446,115.780441 
z"/>
<path fill="#7E5C31" opacity="1.000000" stroke="none" 
	d="
M191.217224,131.036652 
	C190.563187,129.856781 189.160461,128.493088 189.396469,127.531723 
	C190.085617,124.724579 191.428925,122.078026 192.807968,119.136375 
	C193.100098,118.904221 193.078903,118.952568 193.039581,119.274109 
	C193.341187,120.097191 193.682129,120.598724 194.023071,121.100250 
	C194.340546,122.823418 194.658020,124.546593 194.668747,126.767029 
	C193.313736,128.521744 192.265488,129.779205 191.217224,131.036652 
z"/>
<path fill="#A8A8AA" opacity="1.000000" stroke="none" 
	d="
M191.070358,131.331696 
	C192.265488,129.779205 193.313736,128.521744 194.654022,127.156799 
	C195.416046,129.084702 195.886047,131.120087 196.184921,133.431793 
	C194.185822,134.413849 192.357864,135.119598 190.179352,135.942719 
	C190.193695,134.582321 190.558594,133.104538 191.070358,131.331696 
z"/>
<path fill="#D26AC1" opacity="1.000000" stroke="none" 
	d="
M176.024658,89.615204 
	C175.029892,88.236206 174.045670,86.457771 173.031754,84.329308 
	C174.013107,85.724770 175.024155,87.470261 176.024658,89.615204 
z"/>
<path fill="#D26AC1" opacity="1.000000" stroke="none" 
	d="
M178.073029,95.591736 
	C177.897964,95.945045 177.719589,95.961388 177.272736,95.986755 
	C177.010925,95.217010 177.017578,94.438248 177.052734,93.268311 
	C177.410721,93.669685 177.740204,94.462227 178.073029,95.591736 
z"/>
<path fill="#333130" opacity="1.000000" stroke="none" 
	d="
M194.037445,120.767639 
	C193.682129,120.598724 193.341187,120.097191 193.013702,119.278633 
	C193.368713,119.452744 193.710266,119.943878 194.037445,120.767639 
z"/>
<path fill="#D26AC1" opacity="1.000000" stroke="none" 
	d="
M172.980423,82.255775 
	C173.149841,82.007889 173.317291,82.006805 173.735748,82.008064 
	C173.914551,82.351357 173.733017,82.617813 173.212952,82.902969 
	C172.983749,82.996155 172.978439,82.502571 172.980423,82.255775 
z"/>
<path fill="#D26AC1" opacity="1.000000" stroke="none" 
	d="
M176.902451,91.776199 
	C176.725327,91.798203 176.468185,91.578644 176.145035,91.107277 
	C176.326828,91.081863 176.574631,91.308243 176.902451,91.776199 
z"/>
<path fill="#D7D7D7" opacity="1.000000" stroke="none" 
	d="
M178.378601,117.776413 
	C178.657440,119.422745 178.693848,120.816879 178.730255,122.211014 
	C177.251068,122.067688 175.387573,122.402061 174.419556,121.623314 
	C173.701462,121.045616 174.146317,119.022324 174.073135,117.642967 
	C175.427475,117.603386 176.781815,117.563805 178.378601,117.776413 
z"/>
<path fill="#F0EEED" opacity="1.000000" stroke="none" 
	d="
M125.066895,132.979736 
	C112.825432,141.530014 100.593216,139.907883 87.846939,132.525879 
	C86.169075,130.465256 85.010139,128.825150 83.851196,127.185059 
	C86.288773,124.130386 88.726341,121.075706 91.584518,118.454254 
	C92.015953,120.053947 92.223022,121.258362 92.006027,122.380775 
	C90.508987,130.124313 103.389351,137.139679 109.214600,134.585861 
	C113.437279,132.734619 116.551819,128.355682 120.502029,125.115692 
	C122.251335,127.744904 123.659111,130.362320 125.066895,132.979736 
z"/>
<path fill="#44C1DA" opacity="1.000000" stroke="none" 
	d="
M128.061279,75.711235 
	C120.220665,86.127434 112.370361,96.108612 103.959137,106.465134 
	C101.529854,108.230659 99.661491,109.620842 97.511131,111.154724 
	C96.463860,111.469894 95.698586,111.641380 94.933311,111.812866 
	C97.092529,108.259178 98.925842,104.450081 101.472847,101.200333 
	C108.736099,91.933044 116.289810,82.893417 123.876793,73.467499 
	C125.059059,72.764839 126.093773,72.358902 127.458252,71.901291 
	C127.875870,72.991821 127.963722,74.134018 128.061279,75.711235 
z"/>
<path fill="#A5722A" opacity="1.000000" stroke="none" 
	d="
M94.631302,111.951225 
	C95.698586,111.641380 96.463860,111.469894 97.570068,111.561691 
	C97.427849,114.587410 96.207695,117.473778 96.646103,120.081276 
	C97.207603,123.420883 98.305992,127.518646 100.673859,129.442780 
	C102.635406,131.036728 107.159599,130.926697 109.864861,129.851578 
	C115.361710,127.667038 116.485443,122.510628 116.289215,117.133888 
	C117.995438,118.494865 119.400543,119.717262 120.747444,121.295151 
	C120.512993,122.801735 120.336746,123.952812 120.160492,125.103889 
	C116.551819,128.355682 113.437279,132.734619 109.214600,134.585861 
	C103.389351,137.139679 90.508987,130.124313 92.006027,122.380775 
	C92.223022,121.258362 92.015953,120.053947 91.930206,118.451187 
	C91.404823,115.507385 92.057152,113.460327 94.631302,111.951225 
z"/>
<path fill="#AC8A27" opacity="1.000000" stroke="none" 
	d="
M85.989136,89.997551 
	C86.976784,88.560532 87.977707,87.124054 89.189102,85.415405 
	C89.886162,89.488350 90.401474,93.830551 90.842712,98.180267 
	C90.984344,99.576431 90.930344,100.992439 91.057732,102.781258 
	C90.492981,105.143906 89.836334,107.124664 89.179695,109.105423 
	C88.530914,108.944054 87.882141,108.782684 87.233360,108.621315 
	C87.233360,105.024033 87.233360,101.426743 87.233360,97.829453 
	C86.565033,97.693970 85.896706,97.558487 85.228371,97.423004 
	C83.466988,103.191299 81.706535,108.959885 79.943344,114.727623 
	C79.623795,115.772934 79.293007,116.814796 78.446838,117.717903 
	C77.849815,117.388489 77.773346,117.199417 77.777985,116.644577 
	C77.848618,115.531548 77.838135,114.784286 77.827644,114.037025 
	C77.860687,113.864136 77.893738,113.691238 78.029572,112.886444 
	C79.086960,108.495529 80.041573,104.736526 80.996185,100.977516 
	C80.996185,100.977516 81.001526,101.000923 81.313141,100.849823 
	C82.426918,98.131836 83.229073,95.564941 84.031227,92.998047 
	C84.031227,92.998047 83.995949,92.997879 84.324638,92.930191 
	C84.779251,92.238182 84.905174,91.613869 85.031090,90.989548 
	C85.031090,90.989548 84.990730,90.994804 85.280258,90.985855 
	C85.709740,90.642548 85.849678,90.308182 85.989616,89.973824 
	C85.989616,89.973824 86.002403,89.998093 85.989136,89.997551 
z"/>
<path fill="#41373E" opacity="1.000000" stroke="none" 
	d="
M77.696869,117.010338 
	C77.773346,117.199417 77.849815,117.388489 78.083900,117.839989 
	C78.197365,119.466438 78.153206,120.830467 77.812012,122.869087 
	C77.468216,127.102966 75.131432,130.989029 78.982254,134.356110 
	C78.611160,136.795990 75.481262,139.956207 80.929192,139.763000 
	C81.514381,140.278351 82.099571,140.793686 82.615662,141.639130 
	C82.546570,141.969223 82.071564,142.105164 81.679672,142.065552 
	C80.609535,142.802246 79.440491,143.530914 79.359497,144.365189 
	C79.210098,145.904251 79.699242,147.505310 79.922325,149.080536 
	C78.614227,145.113235 76.564438,141.218292 76.168671,137.161972 
	C75.546188,130.782043 76.037460,124.293442 76.386581,117.426880 
	C77.042976,117.003464 77.369934,117.005943 77.696869,117.010338 
z"/>
<path fill="#45B3CB" opacity="1.000000" stroke="none" 
	d="
M81.097076,139.484528 
	C75.481262,139.956207 78.611160,136.795990 78.975403,134.360977 
	C78.991798,133.998566 78.989494,134.016357 79.326187,133.841766 
	C79.781525,132.939682 79.900177,132.212173 80.129486,131.370499 
	C80.240150,131.256332 80.368706,130.965454 80.368706,130.965454 
	C81.362785,129.796188 82.356865,128.626907 83.601074,127.321350 
	C85.010139,128.825150 86.169075,130.465256 87.521164,132.321960 
	C85.564522,134.761078 83.414742,136.983566 81.097076,139.484528 
z"/>
<path fill="#AC8A27" opacity="1.000000" stroke="none" 
	d="
M80.007980,130.771942 
	C80.368706,130.965454 80.240150,131.256332 79.835312,131.608505 
	C79.283478,132.645905 79.136482,133.331131 78.989494,134.016357 
	C78.989494,134.016357 78.991798,133.998566 78.998642,133.993683 
	C75.131432,130.989029 77.468216,127.102966 77.827148,123.278618 
	C78.641968,125.535179 79.144608,128.056808 80.007980,130.771942 
z"/>
<path fill="#AB8B2D" opacity="1.000000" stroke="none" 
	d="
M80.043503,149.343567 
	C79.699242,147.505310 79.210098,145.904251 79.359497,144.365189 
	C79.440491,143.530914 80.609535,142.802246 81.645912,142.447861 
	C83.638260,146.504913 85.272461,150.140045 86.906670,153.775177 
	C86.942101,154.277374 86.977531,154.779556 86.929840,155.652054 
	C85.812447,156.961975 84.778183,157.901611 83.432739,158.846588 
	C82.135933,155.770142 81.150307,152.688354 80.043503,149.343567 
z"/>
<path fill="#45383C" opacity="1.000000" stroke="none" 
	d="
M80.647400,101.077423 
	C80.041573,104.736526 79.086960,108.495529 78.031570,112.622414 
	C78.720062,109.052635 79.509338,105.114983 80.647400,101.077423 
z"/>
<path fill="#45383C" opacity="1.000000" stroke="none" 
	d="
M83.721069,93.172409 
	C83.229073,95.564941 82.426918,98.131836 81.301460,100.852661 
	C81.789070,98.453316 82.599983,95.900047 83.721069,93.172409 
z"/>
<path fill="#45383C" opacity="1.000000" stroke="none" 
	d="
M77.777985,116.644577 
	C77.369934,117.005943 77.042976,117.003464 76.471756,117.003395 
	C76.574562,116.094429 76.921631,115.184967 77.548172,114.156265 
	C77.838135,114.784286 77.848618,115.531548 77.777985,116.644577 
z"/>
<path fill="#45383C" opacity="1.000000" stroke="none" 
	d="
M84.772476,91.154404 
	C84.905174,91.613869 84.779251,92.238182 84.333298,92.945541 
	C84.180145,92.458809 84.347008,91.889038 84.772476,91.154404 
z"/>
<path fill="#45383C" opacity="1.000000" stroke="none" 
	d="
M85.706825,89.999641 
	C85.849678,90.308182 85.709740,90.642548 85.286713,91.005157 
	C85.143768,90.697418 85.283905,90.361443 85.706825,89.999641 
z"/>
<path fill="#861E72" opacity="1.000000" stroke="none" 
	d="
M86.622108,158.176025 
	C88.490494,160.789993 90.020775,163.641342 91.733681,166.378418 
	C92.728844,167.968628 94.017197,169.375351 95.541016,171.179749 
	C95.958366,171.680038 96.008339,171.865234 96.058311,172.050446 
	C96.058311,172.050446 96.107582,172.078659 96.122620,172.102325 
	C94.660622,172.627045 93.183594,173.128098 91.221329,173.793777 
	C88.969078,168.902130 84.557159,164.722092 86.622108,158.176025 
z"/>
<path fill="#9A5599" opacity="1.000000" stroke="none" 
	d="
M153.164459,93.251007 
	C153.494629,93.392456 153.803833,93.834099 154.136963,94.555824 
	C153.821777,94.407669 153.482635,93.979431 153.164459,93.251007 
z"/>
<path fill="#46C7E1" opacity="1.000000" stroke="none" 
	d="
M170.015015,238.019531 
	C169.904572,238.051636 169.776733,238.064102 169.803558,238.020859 
	C169.958252,237.965149 169.997604,237.999878 170.015015,238.019531 
z"/>
<path fill="#31302F" opacity="1.000000" stroke="none" 
	d="
M115.988091,116.995308 
	C116.485443,122.510628 115.361710,127.667038 109.864861,129.851578 
	C107.159599,130.926697 102.635406,131.036728 100.673859,129.442780 
	C98.305992,127.518646 97.207603,123.420883 96.646103,120.081276 
	C96.207695,117.473778 97.427849,114.587410 97.852066,111.417999 
	C99.661491,109.620842 101.529854,108.230659 103.710205,106.654022 
	C107.157631,107.589363 110.293060,108.711151 113.754639,110.376213 
	C114.716560,112.944763 115.352325,114.970032 115.988091,116.995308 
M102.766052,121.923920 
	C104.199043,121.204239 105.993965,120.773689 106.903175,119.635574 
	C107.320221,119.113548 106.310204,116.811409 105.359772,116.049065 
	C104.658951,115.486931 101.973701,115.982613 101.942764,116.229111 
	C101.725624,117.959412 101.968353,119.747406 102.766052,121.923920 
z"/>
<path fill="#F8C52C" opacity="1.000000" stroke="none" 
	d="
M87.104424,153.492554 
	C85.272461,150.140045 83.638260,146.504913 82.037811,142.487473 
	C82.071564,142.105164 82.546570,141.969223 82.782288,141.894409 
	C86.081772,141.543671 89.145523,141.267715 92.879608,140.931381 
	C90.870445,145.354492 89.086311,149.282211 87.104424,153.492554 
z"/>
<path fill="#ADAEB4" opacity="1.000000" stroke="none" 
	d="
M120.502029,125.115692 
	C120.336746,123.952812 120.512993,122.801735 120.804672,120.906052 
	C121.020447,119.114029 121.120796,118.066605 121.221138,117.019188 
	C123.426361,120.266701 125.664566,123.492439 127.826881,126.768265 
	C129.722443,129.639984 129.009567,131.715561 125.415436,132.938889 
	C123.659111,130.362320 122.251335,127.744904 120.502029,125.115692 
z"/>
<path fill="#735232" opacity="1.000000" stroke="none" 
	d="
M121.135201,116.669037 
	C121.120796,118.066605 121.020447,119.114029 120.862877,120.550552 
	C119.400543,119.717262 117.995438,118.494865 116.289215,117.133888 
	C115.352325,114.970032 114.716560,112.944763 114.100937,110.557297 
	C116.430473,112.236366 118.739868,114.277626 121.135201,116.669037 
z"/>
<path fill="#463043" opacity="1.000000" stroke="none" 
	d="
M98.695320,168.436737 
	C98.532959,169.214661 98.093712,170.089951 97.335365,171.007080 
	C97.483658,170.210648 97.951042,169.372375 98.695320,168.436737 
z"/>
<path fill="#463043" opacity="1.000000" stroke="none" 
	d="
M96.354355,172.054947 
	C96.008339,171.865234 95.958366,171.680038 95.887985,171.207275 
	C96.068558,170.897064 96.269531,170.874420 96.759811,170.943115 
	C96.916199,171.376114 96.783295,171.717789 96.354355,172.054947 
z"/>
<path fill="#771D15" opacity="1.000000" stroke="none" 
	d="
M143.996948,180.003052 
	C138.961807,179.865570 133.926666,179.728088 128.891510,179.590607 
	C128.912720,179.109680 128.933914,178.628738 128.955109,178.147797 
	C133.783768,178.562378 138.612411,178.976959 143.720535,179.695770 
	C144.000000,180.000000 143.996948,180.003052 143.996948,180.003052 
z"/>
<path fill="#771D15" opacity="1.000000" stroke="none" 
	d="
M144.001526,179.998444 
	C144.989731,179.996887 145.976410,179.996887 146.963089,179.996887 
	C146.945129,180.337784 146.927170,180.678680 146.909225,181.019577 
	C145.964920,180.889359 145.020630,180.759140 144.036636,180.315979 
	C143.996948,180.003052 144.000000,180.000000 144.001526,179.998444 
z"/>
<path fill="#771D15" opacity="1.000000" stroke="none" 
	d="
M152.028030,179.335968 
	C151.479752,179.694305 150.753418,179.844543 150.027069,179.994781 
	C149.987686,179.769119 149.948288,179.543457 149.908905,179.317795 
	C150.555923,179.254486 151.202957,179.191177 152.028030,179.335968 
z"/>
<path fill="#41373E" opacity="1.000000" stroke="none" 
	d="
M79.326187,133.841766 
	C79.136482,133.331131 79.283478,132.645905 79.724648,131.722672 
	C79.900177,132.212173 79.781525,132.939682 79.326187,133.841766 
z"/>
<path fill="#ECECE9" opacity="1.000000" stroke="none" 
	d="
M102.415054,121.720444 
	C101.968353,119.747406 101.725624,117.959412 101.942764,116.229111 
	C101.973701,115.982613 104.658951,115.486931 105.359772,116.049065 
	C106.310204,116.811409 107.320221,119.113548 106.903175,119.635574 
	C105.993965,120.773689 104.199043,121.204239 102.415054,121.720444 
z"/>
</svg>