<?xml version="1.0" standalone="no"?>
<!DOCTYPE svg PUBLIC "-//W3C//DTD SVG 20010904//EN"
 "http://www.w3.org/TR/2001/REC-SVG-20010904/DTD/svg10.dtd">
<svg version="1.0" xmlns="http://www.w3.org/2000/svg"
 width="658.000000pt" height="400.000000pt" viewBox="0 0 658.000000 400.000000"
 preserveAspectRatio="xMidYMid meet">

<g transform="translate(0.000000,400.000000) scale(0.100000,-0.100000)"
fill="current" stroke="none">
<path d="M2455 3524 c-11 -3 -38 -14 -60 -24 -23 -11 -72 -21 -115 -24 -162
-11 -170 -17 -242 -196 -6 -14 -14 -33 -19 -42 -5 -10 -9 -25 -9 -33 0 -8 -4
-23 -9 -33 -8 -17 -36 -102 -61 -192 -7 -25 -16 -56 -21 -70 -4 -14 -29 -110
-54 -215 -25 -104 -50 -206 -55 -225 -5 -19 -14 -57 -20 -85 -6 -27 -15 -66
-20 -85 -5 -19 -11 -46 -14 -60 -3 -14 -8 -38 -11 -55 -3 -16 -10 -46 -15 -65
-8 -34 -20 -85 -39 -172 -5 -24 -14 -63 -20 -88 -6 -25 -20 -88 -31 -140 -29
-129 -70 -300 -79 -330 -5 -14 -14 -45 -21 -70 -38 -136 -66 -200 -85 -200 -7
0 -39 15 -72 33 -87 49 -239 121 -298 142 -103 36 -254 47 -324 23 -40 -14
-115 -61 -146 -93 -52 -51 -145 -219 -145 -260 0 -8 -4 -15 -10 -15 -18 0 -11
-55 14 -106 57 -118 197 -184 390 -184 179 0 387 64 528 162 14 10 30 18 35
18 8 0 70 -47 123 -93 14 -12 57 -47 95 -78 281 -223 475 -345 655 -410 54
-20 84 -24 180 -24 102 0 119 3 155 24 62 36 76 51 105 116 53 115 152 457
137 471 -3 3 -29 -13 -58 -35 -133 -101 -296 -140 -465 -111 -155 27 -236 55
-409 142 -117 60 -309 169 -317 181 -4 6 17 45 46 86 93 135 136 235 240 561
37 113 71 213 76 222 6 10 10 27 10 37 0 11 5 23 10 26 6 3 10 15 10 26 0 10
4 27 10 37 5 9 25 64 44 122 45 135 115 339 126 365 4 11 13 36 20 55 7 19 16
44 20 55 4 11 13 36 20 55 7 19 16 44 20 55 5 11 34 90 65 175 31 85 66 182
78 214 17 46 32 66 67 92 47 35 95 50 128 40 56 -18 56 -148 0 -301 -59 -160
-199 -368 -297 -440 -26 -19 -41 -38 -41 -52 0 -44 27 -28 194 112 234 196
370 390 416 592 30 134 -58 288 -200 350 -35 15 -196 27 -235 17z m-1438
-2374 c43 -19 127 -73 151 -97 7 -7 26 -20 42 -30 34 -20 45 -42 30 -57 -7 -7
-56 -11 -123 -11 -98 0 -118 3 -157 24 -63 34 -90 68 -90 115 0 75 58 97 147
56z"/>
<path d="M3812 3069 c-115 -11 -144 -22 -161 -61 -67 -156 -127 -286 -139
-300 -11 -14 -30 -18 -77 -18 -54 0 -66 -4 -88 -26 -15 -14 -35 -49 -45 -78
-37 -98 -37 -94 5 -105 21 -6 50 -11 65 -11 15 0 29 -4 32 -8 4 -7 -27 -90
-174 -467 -19 -51 -37 -79 -114 -181 -179 -238 -208 -274 -323 -394 -147 -154
-201 -143 -175 34 11 71 40 187 62 241 5 11 27 70 51 130 24 61 67 159 96 218
29 59 53 111 53 115 0 4 27 41 60 82 81 102 105 154 82 185 -24 34 -131 50
-256 40 l-82 -7 -36 -57 c-43 -67 -87 -155 -117 -236 -13 -33 -27 -69 -31 -80
-13 -32 -22 -58 -31 -92 -5 -18 -14 -50 -20 -70 -50 -176 -78 -360 -86 -553
-8 -229 19 -364 82 -406 23 -15 31 -15 66 -4 82 27 285 262 530 613 37 54 59
69 59 42 0 -9 -11 -60 -24 -113 -68 -280 -53 -451 46 -512 73 -44 230 -16 308
56 69 64 203 236 317 411 68 103 111 159 117 153 6 -6 4 -42 -5 -97 -8 -49
-14 -157 -14 -243 0 -177 9 -209 70 -255 68 -53 186 -32 253 44 13 14 77 108
144 208 66 101 125 180 130 177 6 -4 8 -31 4 -68 -3 -33 -9 -115 -12 -181 -5
-109 -4 -123 15 -152 17 -27 27 -33 55 -33 33 0 49 5 124 37 39 17 61 46 281
376 94 142 176 255 181 252 6 -3 10 -45 10 -92 0 -118 16 -204 67 -361 32
-102 56 -145 99 -180 91 -75 211 -55 330 56 47 44 170 193 224 272 13 19 27
37 30 40 10 9 104 143 165 235 33 50 63 92 66 95 17 15 99 150 99 164 0 9 -7
19 -16 23 -16 6 -71 -45 -153 -142 -18 -22 -52 -60 -75 -85 -50 -55 -180 -202
-221 -250 -103 -120 -207 -200 -259 -200 -12 0 -32 9 -44 20 -38 35 -52 86
-52 181 0 86 1 89 28 106 69 45 244 172 312 227 223 182 329 318 330 423 0 33
-6 47 -32 73 -50 49 -156 114 -224 139 -63 22 -179 29 -212 12 -9 -5 -29 -15
-45 -22 -40 -18 -124 -93 -180 -158 -62 -72 -118 -166 -163 -272 -19 -46 -38
-86 -42 -89 -4 -3 -29 -34 -57 -70 -27 -36 -52 -67 -55 -70 -3 -3 -35 -41 -70
-85 -133 -165 -219 -255 -242 -255 -15 0 -19 5 -15 18 3 9 14 51 26 92 20 76
77 230 112 305 10 22 39 63 64 90 50 56 98 144 93 172 -7 37 -74 58 -193 60
l-110 1 3 54 c2 44 -1 57 -21 80 -45 52 -170 89 -307 92 -65 1 -81 -3 -120
-26 -25 -14 -62 -44 -82 -65 -44 -46 -134 -188 -167 -263 -13 -30 -27 -63 -32
-72 -5 -10 -9 -26 -9 -35 0 -10 -14 -34 -30 -53 -17 -19 -41 -48 -53 -63 -12
-16 -27 -34 -32 -40 -6 -7 -32 -40 -58 -74 -26 -34 -53 -68 -60 -75 -7 -7 -69
-83 -138 -168 -217 -267 -309 -335 -309 -229 0 63 88 375 140 497 15 33 27 63
41 102 74 202 271 615 304 635 11 7 52 16 90 19 149 14 172 29 234 152 33 66
39 93 19 95 -24 3 -113 -2 -150 -7 -57 -9 -57 13 -1 98 27 40 68 106 92 146
42 70 43 73 26 92 -27 30 -127 42 -253 29z m734 -867 c43 -28 41 -108 -5 -269
-16 -54 -35 -127 -42 -162 -8 -35 -20 -73 -29 -86 -8 -12 -63 -94 -122 -182
-119 -176 -188 -256 -215 -251 -27 5 -43 47 -42 113 0 154 121 465 262 675 93
137 154 189 193 162z m1186 -35 c14 -21 8 -81 -12 -124 -33 -73 -99 -161 -197
-264 -126 -131 -147 -131 -99 1 61 170 125 287 198 363 41 43 50 49 75 42 15
-3 31 -12 35 -18z"/>
<path d="M2999 3036 c-52 -18 -121 -87 -155 -154 -56 -111 -31 -217 62 -263
62 -30 122 -12 189 55 67 67 98 133 99 211 1 73 -23 113 -87 144 -50 24 -59
25 -108 7z"/>
</g>
</svg>
