<svg width="current" height="current" viewBox="0 0 22 22" fill="none" xmlns="http://www.w3.org/2000/svg">
<path d="M21.6216 18.7949C21.9907 19.2051 21.9907 19.8203 21.5806 20.1895L20.4321 21.3379C20.063 21.748 19.4478 21.748 19.0376 21.3379L14.9771 17.2773C14.772 17.0723 14.6899 16.8262 14.6899 16.5801V15.8828C13.2134 17.0312 11.4087 17.6875 9.43994 17.6875C4.72314 17.6875 0.908691 13.873 0.908691 9.15625C0.908691 4.48047 4.72314 0.625 9.43994 0.625C14.1157 0.625 17.9712 4.48047 17.9712 9.15625C17.9712 11.166 17.2739 12.9707 16.1665 14.4062H16.8228C17.0688 14.4062 17.3149 14.5293 17.52 14.6934L21.6216 18.7949ZM9.43994 14.4062C12.311 14.4062 14.6899 12.0684 14.6899 9.15625C14.6899 6.28516 12.311 3.90625 9.43994 3.90625C6.52783 3.90625 4.18994 6.28516 4.18994 9.15625C4.18994 12.0684 6.52783 14.4062 9.43994 14.4062Z" fill="white"/>
</svg>
