<svg version="1.1" id="Layer_1" xmlns="http://www.w3.org/2000/svg" xmlns:xlink="http://www.w3.org/1999/xlink" x="0px" y="0px"
	 width="100%" viewBox="0 0 192 192" enable-background="new 0 0 192 192" xml:space="preserve">
<path fill="transparent" opacity="1.000000" stroke="none" 
	d="
M193.000000,67.000000 
	C193.000000,109.306084 193.000000,151.112167 193.000000,192.959137 
	C129.068954,192.959137 65.137871,192.959137 1.103394,192.959137 
	C1.103394,129.110764 1.103394,65.221298 1.103394,1.165919 
	C64.999649,1.165919 128.999786,1.165919 193.000000,1.165919 
	C193.000000,22.861858 193.000000,44.680927 193.000000,67.000000 
M156.366302,42.345974 
	C159.106140,34.393566 160.191803,26.331436 157.821854,17.359146 
	C154.195007,9.100674 148.225220,5.333624 139.662628,7.413554 
	C128.721756,10.071192 121.884109,17.708755 117.171120,28.054445 
	C115.376442,27.841969 113.552727,27.766811 111.791832,27.394529 
	C101.081421,25.130175 90.392433,24.371687 78.994537,27.472952 
	C73.061104,29.036907 67.127678,30.600863 60.567459,31.863441 
	C57.820278,29.214130 55.152512,26.476080 52.310528,23.932701 
	C44.775951,17.189768 35.606133,17.275341 28.980495,24.781940 
	C26.115232,28.028181 24.180405,32.300701 22.560804,36.398663 
	C19.197296,44.909115 22.005030,53.479771 23.028913,62.657856 
	C23.006575,63.092407 22.984236,63.526955 22.453211,64.404655 
	C21.917219,65.037956 21.283415,65.612160 20.859730,66.313324 
	C13.005373,79.311607 8.344192,92.872917 8.601145,108.605972 
	C8.812003,121.516731 11.410926,133.273605 17.367466,144.366364 
	C18.710224,146.866943 22.235262,148.195724 25.106138,150.589630 
	C25.718121,151.438309 26.330103,152.286987 26.840986,153.748932 
	C29.381334,157.377029 31.379452,161.593552 34.561253,164.525558 
	C45.126213,174.261078 58.091984,179.542206 72.259583,183.577164 
	C74.851898,183.726562 77.444214,183.875946 80.529839,184.264236 
	C81.023277,184.502838 81.516716,184.741440 82.897339,184.993301 
	C87.712234,184.669769 92.522652,184.188477 97.342850,184.051392 
	C113.740463,183.585098 128.407440,177.522842 141.464920,168.444229 
	C165.249985,151.906967 177.176895,128.644592 176.870087,99.478981 
	C176.837753,96.403999 177.668640,94.432152 180.369324,93.030609 
	C185.188278,90.529762 187.499725,86.182709 188.612335,81.104004 
	C189.700928,76.134987 187.863083,72.162659 183.809708,69.389633 
	C179.724014,66.594505 175.323776,65.637070 170.424118,68.885689 
	C170.424118,68.885689 170.004822,69.006294 169.397064,68.699280 
	C168.024078,67.343254 166.488785,66.113991 165.310852,64.605652 
	C162.589554,61.121033 160.392685,57.156662 157.326736,54.030663 
	C154.107147,50.748024 153.615829,47.709038 155.993576,43.485771 
	C155.993576,43.485771 155.994308,42.994263 156.366302,42.345974 
z"/>
<path fill="#120F0B" opacity="1.000000" stroke="none" 
	d="
M170.839554,68.753952 
	C175.323776,65.637070 179.724014,66.594505 183.809708,69.389633 
	C187.863083,72.162659 189.700928,76.134987 188.612335,81.104004 
	C187.499725,86.182709 185.188278,90.529762 180.369324,93.030609 
	C177.668640,94.432152 176.837753,96.403999 176.870087,99.478981 
	C177.176895,128.644592 165.249985,151.906967 141.464920,168.444229 
	C128.407440,177.522842 113.740463,183.585098 97.342850,184.051392 
	C92.522652,184.188477 87.712234,184.669769 82.449585,184.606262 
	C81.989647,183.203064 81.977470,182.186905 82.391205,181.143616 
	C106.690880,182.580139 128.067490,176.033630 146.435928,160.643600 
	C156.892441,151.882584 164.856506,141.187698 168.930298,127.519989 
	C172.395096,117.711548 173.734192,108.009041 172.864563,97.668861 
	C171.867691,95.936615 170.872635,94.548332 169.968140,92.747528 
	C170.115677,92.059265 170.172684,91.783524 170.578690,91.641968 
	C173.397202,91.605499 175.866714,91.434845 178.664459,91.172310 
	C182.790207,88.199944 184.706985,84.341270 185.026260,79.618240 
	C185.489944,72.759163 182.756470,70.475235 172.780731,69.492233 
	C171.967606,69.138519 171.403580,68.946236 170.839554,68.753952 
z"/>
<path fill="#3C3832" opacity="1.000000" stroke="none" 
	d="
M26.942081,153.135681 
	C26.330103,152.286987 25.718121,151.438309 24.844608,150.020126 
	C24.291756,148.432343 24.000435,147.414047 24.004139,146.234985 
	C25.717978,146.310928 27.316429,146.205063 28.526617,146.839645 
	C36.729836,151.141022 44.851063,155.598755 52.998230,160.333313 
	C52.997032,161.097183 52.996399,161.533691 52.807434,162.137924 
	C52.403343,162.843903 52.187580,163.382141 51.971817,163.920395 
	C52.649532,163.947342 53.327251,163.974274 54.450607,164.001343 
	C62.152164,164.426819 69.437775,164.595718 76.646309,165.430344 
	C78.872124,165.688049 80.887924,167.759567 82.581810,168.975571 
	C74.551079,169.036118 66.937943,169.097183 59.326477,169.244415 
	C58.544800,169.259537 57.773094,169.790009 56.626144,170.021439 
	C52.776871,168.438354 49.293747,166.925308 45.820862,165.389130 
	C42.541771,163.938629 39.273449,162.463806 35.821392,160.845551 
	C35.409122,160.479324 35.188168,160.255081 34.879089,159.712219 
	C33.816216,158.651657 32.853779,157.897583 31.634762,156.951813 
	C29.899477,155.551987 28.420778,154.343826 26.942081,153.135681 
z"/>
<path fill="#0E0B07" opacity="1.000000" stroke="none" 
	d="
M23.709114,146.395767 
	C24.000435,147.414047 24.291756,148.432343 24.669399,149.757263 
	C22.235262,148.195724 18.710224,146.866943 17.367466,144.366364 
	C11.410926,133.273605 8.812003,121.516731 8.601145,108.605972 
	C8.344192,92.872917 13.005373,79.311607 20.859730,66.313324 
	C21.283415,65.612160 21.917219,65.037956 22.718235,64.601669 
	C22.966608,66.464561 22.949955,68.130447 22.854671,70.153145 
	C22.043770,71.996338 21.311501,73.482719 20.369995,75.125107 
	C19.771641,75.848351 19.382524,76.415581 18.928246,77.359299 
	C18.701677,78.482750 18.540268,79.229721 18.130707,80.131241 
	C17.259386,81.533379 16.636219,82.780960 15.933928,84.397041 
	C10.833915,100.543053 10.084206,116.291672 16.260242,132.338364 
	C18.800388,137.253754 21.254751,141.824753 23.709114,146.395767 
z"/>
<path fill="#14110E" opacity="1.000000" stroke="none" 
	d="
M23.080744,62.006607 
	C22.005030,53.479771 19.197296,44.909115 22.560804,36.398663 
	C24.180405,32.300701 26.115232,28.028181 28.980495,24.781940 
	C35.606133,17.275341 44.775951,17.189768 52.310528,23.932701 
	C55.152512,26.476080 57.820278,29.214130 61.026714,32.304306 
	C62.965179,33.126450 64.444389,33.507732 65.798004,34.191002 
	C64.135765,35.647514 62.599133,36.802036 60.730049,37.862938 
	C56.984272,34.058483 54.083595,29.576683 50.005787,26.865152 
	C46.319271,24.413809 40.367085,21.620792 37.148201,23.006601 
	C30.726034,25.771502 25.674744,31.767492 25.246506,39.427773 
	C24.827894,46.915855 25.644226,54.472977 25.562889,62.000191 
	C24.498457,62.002598 23.789600,62.004601 23.080744,62.006607 
M34.488865,23.667971 
	C34.488865,23.667971 34.409431,23.543470 34.488865,23.667971 
z"/>
<path fill="#0D0B09" opacity="1.000000" stroke="none" 
	d="
M34.979527,160.018692 
	C35.188168,160.255081 35.409122,160.479324 35.996941,161.130951 
	C49.180004,173.633514 64.693520,179.448044 81.965286,181.170761 
	C81.977470,182.186905 81.989647,183.203064 82.005997,184.599625 
	C81.516716,184.741440 81.023277,184.502838 79.967682,183.968536 
	C76.879074,183.487625 74.352608,183.302399 71.826149,183.117188 
	C58.091984,179.542206 45.126213,174.261078 34.561253,164.525558 
	C31.379452,161.593552 29.381334,157.377029 26.891533,153.442307 
	C28.420778,154.343826 29.899477,155.551987 31.763790,157.236389 
	C33.092777,158.481323 34.036152,159.250015 34.979527,160.018692 
z"/>
<path fill="#15120E" opacity="1.000000" stroke="none" 
	d="
M118.010170,28.111448 
	C121.884109,17.708755 128.721756,10.071192 139.662628,7.413554 
	C148.225220,5.333624 154.195007,9.100674 157.738556,18.020798 
	C157.385086,22.119539 157.114944,25.556625 156.610779,28.993210 
	C156.063644,28.991371 155.750549,28.988451 155.339630,28.551710 
	C154.692780,24.517076 154.425079,20.842457 153.523407,17.330610 
	C152.401291,12.960108 146.608017,8.975357 142.623077,9.344927 
	C135.589737,9.997211 123.590919,19.974188 121.347908,27.079430 
	C120.121552,27.547558 119.065857,27.829504 118.010170,28.111448 
z"/>
<path fill="#34302B" opacity="1.000000" stroke="none" 
	d="
M117.590645,28.082947 
	C119.065857,27.829504 120.121552,27.547558 121.633484,27.209473 
	C122.889069,27.755104 123.688400,28.356876 124.756042,29.194084 
	C125.413734,29.698561 125.803101,29.967600 126.143509,30.451405 
	C126.094543,30.666168 125.837479,31.023937 125.502914,31.035078 
	C124.120262,31.396297 123.072166,31.746376 121.646423,31.983906 
	C118.368004,31.198004 115.447289,30.599962 112.569969,29.838049 
	C101.086777,26.797316 89.531815,28.486607 78.150391,29.044312 
	C78.779999,28.423357 79.248207,27.992716 79.716423,27.562073 
	C90.392433,24.371687 101.081421,25.130175 111.791832,27.394529 
	C113.552727,27.766811 115.376442,27.841969 117.590645,28.082947 
z"/>
<path fill="#120F0B" opacity="1.000000" stroke="none" 
	d="
M155.977829,43.976479 
	C153.615829,47.709038 154.107147,50.748024 157.326736,54.030663 
	C160.392685,57.156662 162.589554,61.121033 165.310852,64.605652 
	C166.488785,66.113991 168.024078,67.343254 169.689362,69.135590 
	C169.974594,69.949219 169.967529,70.326546 169.804260,70.994629 
	C168.974731,71.822990 168.301407,72.360588 167.388245,72.774170 
	C166.695923,72.359734 166.243454,72.069321 165.702576,71.469810 
	C164.762299,69.553177 164.102859,67.801308 163.024597,66.363556 
	C158.777634,60.700615 154.399002,55.136417 150.441116,49.276321 
	C151.540939,47.337013 152.268875,45.656967 153.099884,43.650421 
	C153.463303,42.210320 153.723618,41.096722 154.153503,40.246101 
	C154.563095,41.299789 154.803101,42.090500 155.186127,43.075085 
	C155.531433,43.517574 155.747665,43.753414 155.977829,43.976479 
z"/>
<path fill="#151210" opacity="1.000000" stroke="none" 
	d="
M23.054829,62.332230 
	C23.789600,62.004601 24.498457,62.002598 25.704393,62.328579 
	C27.591948,65.930061 28.982420,69.203560 30.372894,72.477066 
	C30.030186,72.731895 29.687477,72.986732 29.344769,73.241570 
	C28.410643,72.531036 27.546646,71.688293 26.523521,71.145531 
	C25.403421,70.551323 24.136333,70.234207 22.933304,69.796333 
	C22.949955,68.130447 22.966608,66.464561 22.972578,64.380089 
	C22.984236,63.526955 23.006575,63.092407 23.054829,62.332230 
M26.516888,67.508453 
	C26.516888,67.508453 26.454191,67.535881 26.516888,67.508453 
z"/>
<path fill="#2E2A25" opacity="1.000000" stroke="none" 
	d="
M79.355484,27.517513 
	C79.248207,27.992716 78.779999,28.423357 77.842178,29.204752 
	C73.572533,31.014864 69.772499,32.474224 65.964211,33.919022 
	C65.955963,33.904461 65.923599,33.889015 65.923599,33.889015 
	C64.444389,33.507732 62.965179,33.126450 61.340111,32.454994 
	C67.127678,30.600863 73.061104,29.036907 79.355484,27.517513 
z"/>
<path fill="#2B2622" opacity="1.000000" stroke="none" 
	d="
M155.043121,42.881210 
	C154.803101,42.090500 154.563095,41.299789 154.148300,39.999611 
	C153.973526,39.490143 154.001938,38.997688 154.304123,38.813423 
	C155.352478,35.417339 156.098633,32.205528 156.844788,28.993713 
	C157.114944,25.556625 157.385086,22.119539 157.816544,18.366446 
	C160.191803,26.331436 159.106140,34.393566 155.942429,42.642746 
	C155.518555,42.939514 155.043121,42.881210 155.043121,42.881210 
z"/>
<path fill="#120F0B" opacity="1.000000" stroke="none" 
	d="
M72.042862,183.347168 
	C74.352608,183.302399 76.879074,183.487625 79.721031,183.849091 
	C77.444214,183.875946 74.851898,183.726562 72.042862,183.347168 
z"/>
<path fill="#1E1914" opacity="1.000000" stroke="none" 
	d="
M169.960464,70.703865 
	C169.967529,70.326546 169.974594,69.949219 169.993225,69.289093 
	C170.004822,69.006294 170.424118,68.885689 170.631836,68.819824 
	C171.403580,68.946236 171.967606,69.138519 172.457306,69.577339 
	C171.575470,70.117203 170.767975,70.410530 169.960464,70.703865 
z"/>
<path fill="#171411" opacity="1.000000" stroke="none" 
	d="
M155.186127,43.075085 
	C155.043121,42.881210 155.518555,42.939514 155.756439,42.966888 
	C155.994308,42.994263 155.993576,43.485771 155.985703,43.731125 
	C155.747665,43.753414 155.531433,43.517574 155.186127,43.075085 
z"/>
<path fill="#38342F" opacity="1.000000" stroke="none" 
	d="
M56.996761,170.081375 
	C57.773094,169.790009 58.544800,169.259537 59.326477,169.244415 
	C66.937943,169.097183 74.551079,169.036118 82.994492,168.924103 
	C87.094650,168.653763 90.568787,167.581909 93.592972,168.329727 
	C101.031624,170.169067 107.542267,168.203018 114.251938,164.843201 
	C115.339088,164.123093 116.171097,163.562927 117.389526,162.980835 
	C121.850082,161.307465 125.924225,159.656006 130.256546,157.868561 
	C131.020691,157.160126 131.526642,156.587677 132.382233,155.958313 
	C136.299835,153.617340 139.980438,151.482437 143.350449,148.936371 
	C144.119080,148.355667 143.814514,146.354477 144.258545,144.867798 
	C145.009201,144.152252 145.505203,143.575958 146.004456,142.753967 
	C146.007721,142.508255 146.015625,142.016861 146.312256,141.851425 
	C149.760254,137.718948 149.537903,136.810959 145.160583,134.708878 
	C149.883469,129.291382 154.412247,124.144142 159.298798,118.945839 
	C165.457138,116.892967 167.641800,112.241096 169.070847,106.732391 
	C169.857101,103.701630 171.570831,100.911469 172.866394,98.012833 
	C173.734192,108.009041 172.395096,117.711548 168.651810,127.697830 
	C167.657974,128.997314 166.829071,129.644836 166.372787,130.492844 
	C159.614624,143.052444 149.781998,152.711182 138.519302,161.287216 
	C117.092567,177.602692 93.330017,179.832565 67.914864,173.844147 
	C67.226326,173.735153 66.636787,173.810196 65.687088,173.822632 
	C62.550209,172.533813 59.773487,171.307587 56.996761,170.081375 
z"/>
<path fill="#25211C" opacity="1.000000" stroke="none" 
	d="
M56.626144,170.021439 
	C59.773487,171.307587 62.550209,172.533813 66.013176,173.857483 
	C67.137566,173.979370 67.575714,174.003784 68.013863,174.028198 
	C93.330017,179.832565 117.092567,177.602692 138.519302,161.287216 
	C149.781998,152.711182 159.614624,143.052444 166.372787,130.492844 
	C166.829071,129.644836 167.657974,128.997314 168.592072,128.078720 
	C164.856506,141.187698 156.892441,151.882584 146.435928,160.643600 
	C128.067490,176.033630 106.690880,182.580139 82.391205,181.143616 
	C64.693520,179.448044 49.180004,173.633514 36.175941,161.285065 
	C39.273449,162.463806 42.541771,163.938629 45.820862,165.389130 
	C49.293747,166.925308 52.776871,168.438354 56.626144,170.021439 
z"/>
<path fill="#C07E6B" opacity="1.000000" stroke="none" 
	d="
M169.804260,70.994629 
	C170.767975,70.410530 171.575470,70.117203 172.706421,69.738762 
	C182.756470,70.475235 185.489944,72.759163 185.026260,79.618240 
	C184.706985,84.341270 182.790207,88.199944 178.466125,91.023941 
	C175.420746,89.338562 172.894928,88.811218 170.119965,90.648148 
	C162.037933,84.167442 161.998978,84.150597 165.101868,76.976082 
	C165.729797,75.524170 166.775162,74.252792 167.628082,72.898178 
	C168.301407,72.360588 168.974731,71.822990 169.804260,70.994629 
z"/>
<path fill="#3C3832" opacity="1.000000" stroke="none" 
	d="
M172.864578,97.668869 
	C171.570831,100.911469 169.857101,103.701630 169.070847,106.732391 
	C167.641800,112.241096 165.457138,116.892967 159.358551,118.562744 
	C159.493515,116.808365 160.130814,115.412941 160.322403,113.958801 
	C160.978394,108.979996 161.477905,103.980591 162.018066,98.531281 
	C161.773041,94.854752 161.547028,91.635979 161.655365,88.626816 
	C164.619019,90.277634 167.248291,91.718849 169.877579,93.160049 
	C170.872635,94.548332 171.867691,95.936615 172.864578,97.668869 
z"/>
<path fill="#1E1914" opacity="1.000000" stroke="none" 
	d="
M169.968140,92.747528 
	C167.248291,91.718849 164.619019,90.277634 161.616180,88.548004 
	C161.156433,88.074051 161.071564,87.887886 161.092346,87.331108 
	C160.501617,81.226624 161.429382,75.983200 165.790985,71.778908 
	C166.243454,72.069321 166.695923,72.359734 167.388245,72.774162 
	C166.775162,74.252792 165.729797,75.524170 165.101868,76.976082 
	C161.998978,84.150597 162.037933,84.167442 170.087433,90.794907 
	C170.287308,91.212715 170.229675,91.507790 170.229675,91.507790 
	C170.172684,91.783524 170.115677,92.059265 169.968140,92.747528 
z"/>
<path fill="#A26D5A" opacity="1.000000" stroke="none" 
	d="
M170.578690,91.641968 
	C170.229675,91.507790 170.287308,91.212715 170.319824,91.065956 
	C172.894928,88.811218 175.420746,89.338562 178.137878,91.115829 
	C175.866714,91.434845 173.397202,91.605499 170.578690,91.641968 
z"/>
<path fill="#3C3832" opacity="1.000000" stroke="none" 
	d="
M113.996796,165.003159 
	C107.542267,168.203018 101.031624,170.169067 93.592972,168.329727 
	C90.568787,167.581909 87.094650,168.653763 83.412567,168.949127 
	C80.887924,167.759567 78.872124,165.688049 76.646309,165.430344 
	C69.437775,164.595718 62.152164,164.426819 54.353973,163.733826 
	C53.539726,162.967499 53.267742,162.468857 52.995766,161.970200 
	C52.996399,161.533691 52.997032,161.097183 53.246292,160.333466 
	C53.494911,160.006241 53.991001,160.007294 54.366894,160.009094 
	C55.494251,160.010681 56.245720,160.010483 57.250584,160.268494 
	C60.478931,161.342712 63.408855,162.525497 66.438324,162.897369 
	C72.494194,163.640717 78.603699,163.951752 84.693306,164.411575 
	C85.836128,164.497879 87.011894,164.598251 88.134300,164.433014 
	C96.521332,163.198318 104.897987,161.893311 113.283081,160.645111 
	C113.523056,160.609375 113.820572,160.960266 114.218582,161.211151 
	C114.147156,162.432404 114.071976,163.717773 113.996796,165.003159 
z"/>
<path fill="#413C36" opacity="1.000000" stroke="none" 
	d="
M53.991001,160.007294 
	C53.991001,160.007294 53.494911,160.006241 53.246849,160.006088 
	C44.851063,155.598755 36.729836,151.141022 28.526617,146.839645 
	C27.316429,146.205063 25.717978,146.310928 24.004139,146.234985 
	C21.254751,141.824753 18.800388,137.253754 16.601803,132.395096 
	C19.111454,133.439911 21.380173,134.747971 23.616518,136.109222 
	C31.487597,140.900284 39.338078,145.725235 47.219810,150.498642 
	C48.771389,151.438309 50.453850,152.159393 52.029240,153.062744 
	C54.921516,154.721237 56.016014,156.936172 53.991001,160.007294 
z"/>
<path fill="#413C36" opacity="1.000000" stroke="none" 
	d="
M52.807434,162.137924 
	C53.267742,162.468857 53.539726,162.967499 53.908340,163.733673 
	C53.327251,163.974274 52.649532,163.947342 51.971817,163.920395 
	C52.187580,163.382141 52.403343,162.843903 52.807434,162.137924 
z"/>
<path fill="#25211C" opacity="1.000000" stroke="none" 
	d="
M34.879089,159.712219 
	C34.036152,159.250015 33.092777,158.481323 32.020374,157.428070 
	C32.853779,157.897583 33.816216,158.651657 34.879089,159.712219 
z"/>
<path fill="#443E38" opacity="1.000000" stroke="none" 
	d="
M54.366894,160.009094 
	C56.016014,156.936172 54.921516,154.721237 52.029240,153.062744 
	C50.453850,152.159393 48.771389,151.438309 47.219810,150.498642 
	C39.338078,145.725235 31.487597,140.900284 23.616518,136.109222 
	C21.380173,134.747971 19.111454,133.439911 16.516022,132.050720 
	C10.084206,116.291672 10.833915,100.543053 16.208275,84.241531 
	C17.167452,82.470589 17.773155,81.223640 18.378860,79.976692 
	C18.540268,79.229721 18.701677,78.482750 19.170866,77.225510 
	C19.845509,76.133194 20.212370,75.551147 20.579231,74.969101 
	C21.311501,73.482719 22.043770,71.996338 22.854671,70.153145 
	C24.136333,70.234207 25.403421,70.551323 26.523521,71.145531 
	C27.546646,71.688293 28.410643,72.531036 29.344769,73.241570 
	C29.687477,72.986732 30.030186,72.731895 30.372894,72.477066 
	C28.982420,69.203560 27.591948,65.930061 26.059967,62.328178 
	C25.644226,54.472977 24.827894,46.915855 25.246506,39.427773 
	C25.674744,31.767492 30.726034,25.771502 37.148201,23.006601 
	C40.367085,21.620792 46.319271,24.413809 50.005787,26.865152 
	C54.083595,29.576683 56.984272,34.058483 60.885704,38.143719 
	C62.332272,39.719452 63.290722,40.920784 64.574097,42.529373 
	C65.864510,39.462189 66.851959,37.115131 68.157364,34.792152 
	C69.986610,34.484577 71.497894,34.152931 73.314217,33.798431 
	C74.265137,33.351768 74.911018,32.927959 75.916245,32.596779 
	C76.520500,32.724228 76.765419,32.759048 77.328613,32.780273 
	C78.491646,32.201843 79.336411,31.637007 80.546013,31.134800 
	C82.621925,31.331957 84.333008,31.466486 86.264755,31.639036 
	C87.328285,31.448488 88.171135,31.219919 89.476837,31.003098 
	C93.683769,30.916359 97.427856,30.817875 101.489380,30.874636 
	C103.197968,31.287727 104.589127,31.545572 106.361588,31.839844 
	C112.173325,32.710861 117.603760,33.545452 123.279373,34.578243 
	C132.372772,39.696159 141.221008,44.615871 150.069229,49.535583 
	C154.399002,55.136417 158.777634,60.700615 163.024597,66.363556 
	C164.102859,67.801308 164.762299,69.553177 165.702576,71.469810 
	C161.429382,75.983200 160.501617,81.226624 160.933990,86.925339 
	C160.001312,84.865608 159.471420,82.781738 158.636459,80.828270 
	C155.356400,73.154381 151.119278,66.265602 142.866791,62.449673 
	C138.618942,60.335899 134.553207,58.440529 130.403992,56.750011 
	C129.998016,56.584602 129.078415,57.679867 128.003815,58.361267 
	C127.050629,58.646954 126.490837,58.761330 125.839874,58.518295 
	C125.055893,57.516708 124.467751,56.530182 123.654037,56.281353 
	C115.588074,53.814873 101.137329,58.959728 95.735733,66.166016 
	C94.975197,67.235573 94.498131,68.153053 94.025269,69.038788 
	C94.029480,69.007050 94.089172,69.030251 93.726395,69.046280 
	C91.499649,71.335442 89.635666,73.608574 87.549728,76.040573 
	C86.876190,76.763885 86.424606,77.328331 85.745766,78.169060 
	C84.380867,82.277245 83.243225,86.109161 82.057220,90.364311 
	C82.093590,95.861412 82.178307,100.935265 81.911888,106.142616 
	C77.672173,108.748062 78.722198,112.344872 79.947296,115.488205 
	C82.388252,121.751175 85.294785,127.832680 88.115944,134.312653 
	C94.052292,143.869858 102.177910,149.039352 113.338783,149.040375 
	C115.581467,149.040588 117.824104,149.569534 120.066765,149.854706 
	C120.151138,150.565765 120.235504,151.276840 120.319878,151.987900 
	C116.488892,153.721451 112.803566,156.389313 108.799644,157.013550 
	C96.738281,158.893906 84.730095,161.635406 72.267754,159.546066 
	C67.341957,158.720245 62.096882,159.798828 56.997185,160.010284 
	C56.245720,160.010483 55.494251,160.010681 54.366894,160.009094 
M58.621120,49.582230 
	C58.894535,45.152184 54.849411,39.724255 49.667507,37.651848 
	C49.440907,37.428703 49.217949,37.201977 48.823204,36.299381 
	C47.220814,35.024284 45.773186,33.046688 43.977062,32.651001 
	C41.705547,32.150585 38.399868,31.990383 38.800922,36.819180 
	C37.253403,38.509823 35.705887,40.200466 33.550701,42.321938 
	C30.205423,46.424320 30.832094,57.398426 35.158512,64.449120 
	C36.196262,65.955070 37.234013,67.461021 38.353252,69.085228 
	C41.465130,66.359123 44.204903,64.374931 46.404644,61.909012 
	C48.401680,59.670322 49.810921,56.907295 51.895641,54.040085 
	C52.028896,53.921776 52.162151,53.803463 52.918804,53.779396 
	C54.682144,52.489281 56.445488,51.199162 58.621120,49.582230 
M50.009506,122.989670 
	C50.009506,122.989670 49.986534,122.921394 50.431572,123.532303 
	C55.548672,126.546852 60.592762,124.706024 65.054619,122.431358 
	C71.890472,118.946442 73.826180,109.106758 69.508354,102.967552 
	C64.829926,96.315628 54.538902,94.660530 48.259144,99.550056 
	C40.738281,105.405914 40.064915,116.722244 47.524521,121.080894 
	C47.701557,121.127678 47.878590,121.174461 48.045624,121.664513 
	C48.722427,122.097015 49.399227,122.529518 50.009506,122.989670 
M68.295189,81.001884 
	C66.879257,79.594498 65.463318,78.187119 64.047379,76.779739 
	C63.092606,78.318642 61.374393,79.869614 61.398502,81.393028 
	C61.422443,82.906189 63.199055,84.391617 64.207054,85.889206 
	C65.596916,84.497169 66.986778,83.105141 68.295189,81.001884 
M152.339050,56.331593 
	C150.992706,56.482021 148.525436,56.490940 148.485626,56.806316 
	C148.261246,58.583759 148.379501,60.509720 148.911453,62.220051 
	C149.096542,62.815151 151.576614,63.387730 151.680496,63.207039 
	C152.484711,61.808231 153.066650,60.249611 153.482452,58.678295 
	C153.613495,58.183075 153.029175,57.498547 152.339050,56.331593 
z"/>
<path fill="#151210" opacity="1.000000" stroke="none" 
	d="
M18.130707,80.131241 
	C17.773155,81.223640 17.167452,82.470589 16.287399,83.873047 
	C16.636219,82.780960 17.259386,81.533379 18.130707,80.131241 
z"/>
<path fill="#151210" opacity="1.000000" stroke="none" 
	d="
M20.369995,75.125107 
	C20.212370,75.551147 19.845509,76.133194 19.236027,76.849030 
	C19.382524,76.415581 19.771641,75.848351 20.369995,75.125107 
z"/>
<path fill="#171411" opacity="1.000000" stroke="none" 
	d="
M67.839401,34.768074 
	C66.851959,37.115131 65.864510,39.462189 64.574097,42.529373 
	C63.290722,40.920784 62.332272,39.719452 61.218159,38.237335 
	C62.599133,36.802036 64.135765,35.647514 65.798004,34.191002 
	C65.923599,33.889015 65.955963,33.904461 66.207001,34.005146 
	C66.918495,34.326580 67.378944,34.547325 67.839401,34.768074 
z"/>
<path fill="#443E38" opacity="1.000000" stroke="none" 
	d="
M34.449150,23.605721 
	C34.409431,23.543470 34.488865,23.667971 34.449150,23.605721 
z"/>
<path fill="#423D37" opacity="1.000000" stroke="none" 
	d="
M154.001938,38.997688 
	C154.001938,38.997688 153.973526,39.490143 153.978729,39.736633 
	C153.723618,41.096722 153.463303,42.210320 152.739166,43.686932 
	C150.483932,43.926640 148.692520,43.803337 147.003510,43.374523 
	C147.655273,41.667522 148.204681,40.266029 148.819489,38.480019 
	C148.951614,37.060230 149.018341,36.024963 149.423126,34.856598 
	C153.649170,30.928028 152.244537,26.986492 149.970505,22.683277 
	C146.729324,16.173292 140.879761,14.651487 134.591766,18.600380 
	C130.312286,21.240841 126.228889,23.627979 126.111221,29.075354 
	C126.098022,29.022257 126.155060,29.115919 125.742027,29.036314 
	C125.048576,28.957355 124.768150,28.958004 124.487724,28.958649 
	C123.688400,28.356876 122.889069,27.755104 121.804153,27.023291 
	C123.590919,19.974188 135.589737,9.997211 142.623077,9.344927 
	C146.608017,8.975357 152.401291,12.960108 153.523407,17.330610 
	C154.425079,20.842457 154.692780,24.517076 155.240829,28.980267 
	C154.827240,32.893272 154.414597,35.945480 154.001938,38.997688 
z"/>
<path fill="#151210" opacity="1.000000" stroke="none" 
	d="
M154.304123,38.813423 
	C154.414597,35.945480 154.827240,32.893272 155.338684,29.412506 
	C155.750549,28.988451 156.063644,28.991371 156.610779,28.993210 
	C156.098633,32.205528 155.352478,35.417339 154.304123,38.813423 
z"/>
<path fill="#14110E" opacity="1.000000" stroke="none" 
	d="
M68.157364,34.792152 
	C67.378944,34.547325 66.918495,34.326580 66.215248,34.019707 
	C69.772499,32.474224 73.572533,31.014864 77.680779,29.395065 
	C89.531815,28.486607 101.086777,26.797316 112.569969,29.838049 
	C115.447289,30.599962 118.368004,31.198004 121.777618,32.261879 
	C122.535698,33.228279 122.784950,33.804161 123.034195,34.380039 
	C117.603760,33.545452 112.173325,32.710861 106.179794,31.598190 
	C104.135109,31.119871 102.653534,30.919632 101.171951,30.719391 
	C97.427856,30.817875 93.683769,30.916359 89.472420,31.014784 
	C89.005165,31.014725 89.031654,31.023880 88.894485,30.822647 
	C88.544533,30.371243 88.295128,30.165455 87.768539,30.104591 
	C87.033340,30.670425 86.538712,31.135717 86.044083,31.601013 
	C84.333008,31.466486 82.621925,31.331957 80.226456,31.171654 
	C78.698151,31.695210 77.854248,32.244541 77.010345,32.793869 
	C76.765419,32.759048 76.520500,32.724228 75.721161,32.572472 
	C74.447556,32.910786 73.728363,33.366035 73.009178,33.821285 
	C71.497894,34.152931 69.986610,34.484577 68.157364,34.792152 
z"/>
<path fill="#A26750" opacity="1.000000" stroke="none" 
	d="
M148.754074,38.864536 
	C148.204681,40.266029 147.655273,41.667522 146.662537,43.398491 
	C140.120422,40.471149 134.021637,37.214333 127.856598,33.842258 
	C127.636696,33.596241 127.470947,33.578484 127.010262,33.399864 
	C126.430794,32.425320 126.134140,31.724628 125.837479,31.023937 
	C125.837479,31.023937 126.094543,30.666168 126.243744,30.167217 
	C126.313652,29.484152 126.234352,29.300035 126.155060,29.115919 
	C126.155060,29.115919 126.098022,29.022257 126.424072,29.117321 
	C127.354233,28.645742 127.958344,28.079103 128.764923,27.793411 
	C129.250687,28.438251 129.533981,28.802145 130.105392,29.365948 
	C135.235474,32.092976 140.077469,34.620098 145.151199,37.344967 
	C146.506653,37.983322 147.630371,38.423931 148.754074,38.864536 
z"/>
<path fill="#171411" opacity="1.000000" stroke="none" 
	d="
M125.502914,31.035078 
	C126.134140,31.724628 126.430794,32.425320 127.105927,33.462440 
	C127.484406,33.798870 127.922867,33.957520 127.922867,33.957520 
	C134.021637,37.214333 140.120422,40.471149 146.560150,43.703995 
	C148.692520,43.803337 150.483932,43.926640 152.636063,44.013428 
	C152.268875,45.656967 151.540939,47.337013 150.441116,49.276321 
	C141.221008,44.615871 132.372772,39.696159 123.279373,34.578243 
	C122.784950,33.804161 122.535698,33.228279 122.155258,32.374428 
	C123.072166,31.746376 124.120262,31.396297 125.502914,31.035078 
z"/>
<path fill="#171411" opacity="1.000000" stroke="none" 
	d="
M125.742027,29.036314 
	C126.234352,29.300035 126.313652,29.484152 126.292709,29.952454 
	C125.803101,29.967600 125.413734,29.698561 124.756042,29.194086 
	C124.768150,28.958004 125.048576,28.957355 125.742027,29.036314 
z"/>
<path fill="#443E38" opacity="1.000000" stroke="none" 
	d="
M26.485538,67.522171 
	C26.454191,67.535881 26.516888,67.508453 26.485538,67.522171 
z"/>
<path fill="#413C36" opacity="1.000000" stroke="none" 
	d="
M57.250584,160.268494 
	C62.096882,159.798828 67.341957,158.720245 72.267754,159.546066 
	C84.730095,161.635406 96.738281,158.893906 108.799644,157.013550 
	C112.803566,156.389313 116.488892,153.721451 120.319878,151.987900 
	C120.235504,151.276840 120.151138,150.565765 120.066765,149.854706 
	C117.824104,149.569534 115.581467,149.040588 113.338783,149.040375 
	C102.177910,149.039352 94.052292,143.869858 88.469559,134.367188 
	C90.649254,135.288040 92.790497,136.238464 94.480110,137.708115 
	C102.802109,144.946732 112.223717,147.560654 123.356583,145.115616 
	C127.100555,146.141815 130.497391,147.015732 133.872955,147.884171 
	C133.209290,150.816391 132.620956,153.415817 132.032623,156.015244 
	C131.526642,156.587677 131.020691,157.160126 130.157288,157.533173 
	C128.823349,154.250153 126.813248,153.928589 124.064224,155.003799 
	C120.299065,156.476456 117.807732,158.968262 117.003113,163.002762 
	C116.171097,163.562927 115.339088,164.123093 114.251930,164.843201 
	C114.071976,163.717773 114.147156,162.432404 114.218582,161.211151 
	C113.820572,160.960266 113.523056,160.609375 113.283081,160.645111 
	C104.897987,161.893311 96.521332,163.198318 88.134300,164.433014 
	C87.011894,164.598251 85.836128,164.497879 84.693306,164.411575 
	C78.603699,163.951752 72.494194,163.640717 66.438324,162.897369 
	C63.408855,162.525497 60.478931,161.342712 57.250584,160.268494 
z"/>
<path fill="#3C3832" opacity="1.000000" stroke="none" 
	d="
M123.009453,144.963333 
	C112.223717,147.560654 102.802109,144.946732 94.480110,137.708115 
	C92.790497,136.238464 90.649254,135.288040 88.362610,134.043701 
	C85.294785,127.832680 82.388252,121.751175 79.947296,115.488205 
	C78.722198,112.344872 77.672173,108.748062 82.042282,106.371872 
	C82.702209,106.971626 82.880615,107.475632 83.101349,108.359787 
	C84.145920,111.800720 85.148155,114.861504 86.229095,118.236298 
	C87.384628,119.437775 88.461449,120.325249 89.607994,121.510452 
	C89.793854,122.198868 89.909988,122.589546 90.069855,123.334961 
	C95.951912,134.140976 104.877365,139.721695 116.752510,141.006363 
	C126.874023,142.101318 136.153168,139.754227 144.966492,134.979141 
	C149.537903,136.810959 149.760254,137.718948 146.152084,141.624802 
	C145.111252,141.367050 144.428711,140.866913 143.958084,141.019684 
	C137.356216,143.162659 130.907166,146.152451 123.652267,144.270996 
	C123.507576,144.233475 123.226761,144.720840 123.009453,144.963333 
z"/>
<path fill="#2B2925" opacity="1.000000" stroke="none" 
	d="
M145.160583,134.708878 
	C136.153168,139.754227 126.874023,142.101318 116.752510,141.006363 
	C104.877365,139.721695 95.951912,134.140976 90.350266,123.521194 
	C92.749176,124.553200 94.911400,125.753693 97.047211,126.969482 
	C97.020798,126.984779 97.030357,126.924492 97.120987,127.257721 
	C98.768600,128.794083 100.325592,129.997238 102.116989,131.452637 
	C103.901237,132.586319 105.369919,133.988647 107.017097,134.245239 
	C110.955559,134.858795 114.789772,138.140808 119.310081,134.989716 
	C120.093590,134.949860 120.543785,134.972366 121.188904,135.294556 
	C122.079788,135.992783 122.821266,136.799835 123.464813,136.728119 
	C131.925873,135.785156 140.030807,133.914352 146.372345,127.049026 
	C149.605667,123.622498 153.297684,120.722450 155.250900,116.927483 
	C158.157654,111.279800 159.835999,104.999893 162.037109,98.989037 
	C161.477905,103.980591 160.978394,108.979996 160.322403,113.958801 
	C160.130814,115.412941 159.493515,116.808365 159.000763,118.613800 
	C154.412247,124.144142 149.883469,129.291382 145.160583,134.708878 
z"/>
<path fill="#3C3832" opacity="1.000000" stroke="none" 
	d="
M123.356583,145.115616 
	C123.226761,144.720840 123.507576,144.233475 123.652267,144.270996 
	C130.907166,146.152451 137.356216,143.162659 143.958084,141.019684 
	C144.428711,140.866913 145.111252,141.367050 145.855438,141.790237 
	C146.015625,142.016861 146.007721,142.508255 145.749176,142.892334 
	C144.995056,143.853287 144.499481,144.430176 144.003906,145.007065 
	C143.814514,146.354477 144.119080,148.355667 143.350449,148.936371 
	C139.980438,151.482437 136.299835,153.617340 132.382248,155.958313 
	C132.620956,153.415817 133.209290,150.816391 133.872955,147.884171 
	C130.497391,147.015732 127.100555,146.141815 123.356583,145.115616 
z"/>
<path fill="#3C3832" opacity="1.000000" stroke="none" 
	d="
M117.389526,162.980835 
	C117.807732,158.968262 120.299065,156.476456 124.064224,155.003799 
	C126.813248,153.928589 128.823349,154.250153 129.899109,157.669174 
	C125.924225,159.656006 121.850082,161.307465 117.389526,162.980835 
z"/>
<path fill="#3C3832" opacity="1.000000" stroke="none" 
	d="
M67.914864,173.844147 
	C67.575714,174.003784 67.137566,173.979370 66.373337,173.920105 
	C66.636787,173.810196 67.226326,173.735153 67.914864,173.844147 
z"/>
<path fill="#3C3832" opacity="1.000000" stroke="none" 
	d="
M144.258545,144.867798 
	C144.499481,144.430176 144.995056,143.853287 145.745911,143.138031 
	C145.505203,143.575958 145.009201,144.152252 144.258545,144.867798 
z"/>
<path fill="#151210" opacity="1.000000" stroke="none" 
	d="
M162.018082,98.531281 
	C159.835999,104.999893 158.157654,111.279800 155.250900,116.927483 
	C153.297684,120.722450 149.605667,123.622498 146.354324,126.668259 
	C145.998383,125.909500 145.979721,125.405403 146.150085,124.629608 
	C151.846130,118.820702 155.631866,112.340973 157.252670,104.642151 
	C160.707230,88.233017 155.131744,75.066895 142.890091,63.901009 
	C142.969666,63.248375 142.997604,62.986855 143.025558,62.725334 
	C151.119278,66.265602 155.356400,73.154381 158.636459,80.828270 
	C159.471420,82.781738 160.001312,84.865608 160.829712,87.295334 
	C161.071564,87.887886 161.156433,88.074051 161.281830,88.338394 
	C161.547028,91.635979 161.773041,94.854752 162.018082,98.531281 
z"/>
<path fill="#706156" opacity="1.000000" stroke="none" 
	d="
M142.838440,64.292122 
	C155.131744,75.066895 160.707230,88.233017 157.252670,104.642151 
	C155.631866,112.340973 151.846130,118.820702 145.841034,124.775620 
	C138.442215,131.480255 130.139816,134.285172 120.993988,134.994873 
	C120.543785,134.972366 120.093590,134.949860 118.910843,134.942688 
	C112.785225,133.355469 107.392159,131.752930 101.741898,129.940933 
	C99.999916,128.795822 98.515137,127.860161 97.030357,126.924492 
	C97.030357,126.924492 97.020798,126.984779 96.935684,126.650841 
	C94.596245,124.103500 92.341919,121.890099 90.091049,119.435593 
	C89.886475,118.777046 89.678444,118.359604 89.378708,117.573112 
	C87.882416,114.132500 86.477829,111.060936 84.927704,107.605804 
	C84.544617,101.151085 84.307068,95.079941 84.325272,88.757370 
	C85.746002,84.999313 86.910995,81.492691 88.376984,77.825546 
	C89.794624,76.168648 90.911270,74.672264 92.176895,73.090012 
	C92.650787,72.668625 92.975693,72.333092 93.508583,71.667892 
	C93.840767,70.568893 93.964966,69.799576 94.089172,69.030251 
	C94.089172,69.030251 94.029480,69.007050 94.280197,68.890633 
	C95.005547,68.425873 95.480179,68.077530 96.128159,67.756577 
	C97.219231,67.199120 98.136955,66.614281 99.318886,65.851265 
	C100.722252,64.738602 101.861404,63.804115 103.174637,62.803848 
	C103.348701,62.738068 103.689995,62.589649 104.030266,62.610603 
	C111.100441,58.756577 118.541740,58.965427 125.931038,58.875710 
	C126.490837,58.761330 127.050629,58.646954 128.379761,58.448769 
	C133.712204,60.340687 138.275330,62.316402 142.838440,64.292122 
M120.618500,82.832253 
	C121.392426,82.179001 122.166351,81.525742 122.971596,80.965736 
	C122.971596,80.965736 122.898247,80.900169 123.647125,81.027130 
	C125.103943,79.272736 127.470787,77.624367 127.691971,75.725998 
	C127.835213,74.496643 124.842293,72.901894 122.508743,71.196449 
	C117.900558,72.556145 113.153694,73.594810 108.775192,75.486214 
	C107.580894,76.002113 106.676956,79.342422 107.171776,80.899742 
	C107.533615,82.038521 110.403587,82.380356 112.877899,83.055946 
	C113.599022,83.011917 114.320145,82.967888 115.454117,82.993530 
	C115.454117,82.993530 115.863586,83.080269 116.257072,83.701408 
	C117.252319,86.128075 118.247566,88.554749 119.242805,90.981415 
	C119.489212,90.914879 119.735611,90.848351 119.982010,90.781815 
	C119.982010,88.182892 119.982010,85.583969 120.618500,82.832253 
M102.258820,97.998627 
	C97.799461,98.922493 96.017769,101.661957 96.871117,106.816399 
	C99.844353,108.972969 102.817596,111.129539 106.221939,113.663689 
	C107.134010,113.548767 108.046082,113.433846 109.252548,113.895653 
	C109.196693,116.482742 109.140846,119.069832 108.576004,122.189552 
	C108.801582,129.455826 111.720383,132.072037 117.113174,129.414825 
	C117.239021,129.226578 117.402603,129.080612 118.389900,128.811508 
	C123.184479,124.030396 121.131401,118.579231 120.704025,112.968903 
	C121.795303,112.906700 122.886589,112.844498 124.706062,112.777046 
	C126.459740,112.086319 128.213425,111.395592 130.461426,110.849663 
	C130.632767,110.838730 130.804123,110.827805 131.564423,110.706879 
	C132.033707,110.337639 132.502991,109.968399 133.652390,109.724800 
	C136.687820,106.771339 140.694336,104.292122 142.443527,100.710472 
	C143.780777,97.972336 142.262436,93.839584 142.014297,90.327179 
	C139.173416,90.981972 136.253876,91.405289 133.507614,92.338509 
	C127.297539,94.448784 121.172981,96.810738 114.336258,98.996071 
	C113.884232,99.030197 113.432213,99.064316 112.195892,99.007378 
	C111.145103,98.947067 110.094315,98.886757 108.487396,98.266953 
	C106.655045,98.226898 104.822685,98.186844 102.258820,97.998627 
z"/>
<path fill="#CA816D" opacity="1.000000" stroke="none" 
	d="
M48.998631,36.971676 
	C49.217949,37.201977 49.440907,37.428703 49.879456,38.169868 
	C51.807251,41.120800 53.523106,43.553715 54.935917,46.151527 
	C48.349804,51.597382 42.066734,56.878334 35.585705,61.806679 
	C34.977955,54.933083 34.568161,48.412094 34.158367,41.891109 
	C35.705887,40.200466 37.253403,38.509823 39.414337,36.485184 
	C43.018044,36.424683 46.008339,36.698177 48.998631,36.971676 
z"/>
<path fill="#AA715D" opacity="1.000000" stroke="none" 
	d="
M48.055626,121.221252 
	C47.878590,121.174461 47.701557,121.127678 47.243347,120.698486 
	C47.029964,119.877213 47.097755,119.438332 47.334728,118.973602 
	C47.715408,118.768661 47.926903,118.589584 48.138401,118.410500 
	C47.714050,118.269981 47.289696,118.129471 46.648869,117.895210 
	C46.432392,117.801468 46.160603,117.415817 46.313515,117.208374 
	C45.965416,116.338600 45.464405,115.676270 44.687920,114.811752 
	C45.650002,111.409081 46.887550,108.208595 48.354145,104.827423 
	C48.807693,103.931587 49.032200,103.216446 49.258202,102.405731 
	C49.259705,102.310150 49.441536,102.251099 49.754417,102.232277 
	C50.606968,101.659286 51.146633,101.105125 51.734169,100.559700 
	C51.782043,100.568443 51.764660,100.664207 52.166611,100.747543 
	C53.371670,100.955139 54.174782,101.079399 54.921978,101.477661 
	C55.837906,106.796539 59.404736,103.842804 62.133118,104.139954 
	C62.532440,104.833603 62.745121,105.436050 62.760361,106.282059 
	C62.047131,107.665756 61.531338,108.805893 60.852715,110.195244 
	C60.458725,110.994331 60.227570,111.544197 60.001297,112.320015 
	C60.006180,112.545967 60.007622,112.997971 59.691757,113.125229 
	C57.918339,113.834244 56.460785,114.416008 54.805653,114.840500 
	C53.927269,114.870499 53.246464,115.057777 52.565659,115.245056 
	C53.362225,116.220551 54.053963,117.832985 54.985844,117.986351 
	C55.858501,118.129982 56.985531,116.728104 58.346107,115.995911 
	C59.152927,115.963844 59.614250,115.942245 60.136284,116.185593 
	C60.804443,118.198997 61.411896,119.947456 61.634941,121.782455 
	C57.495865,122.219795 53.741199,122.570595 49.986534,122.921402 
	C49.986534,122.921394 50.009506,122.989670 49.944584,122.711853 
	C49.271648,122.029770 48.663635,121.625511 48.055626,121.221252 
M51.847134,110.037132 
	C51.847134,110.037132 52.151245,109.989799 52.151245,109.989799 
	C52.151245,109.989799 51.855537,109.911430 51.847134,110.037132 
M49.478760,113.508118 
	C49.478760,113.508118 49.512527,113.498917 49.478760,113.508118 
z"/>
<path fill="#201C17" opacity="1.000000" stroke="none" 
	d="
M48.125103,105.008110 
	C46.887550,108.208595 45.650002,111.409081 44.739990,115.084488 
	C45.431885,116.178207 45.796246,116.797012 46.160603,117.415817 
	C46.160603,117.415817 46.432392,117.801468 46.738625,118.143539 
	C47.085087,118.656898 47.125317,118.828178 47.165546,118.999458 
	C47.097755,119.438332 47.029964,119.877213 46.972946,120.650246 
	C40.064915,116.722244 40.738281,105.405914 48.259144,99.550056 
	C54.538902,94.660530 64.829926,96.315628 69.508354,102.967552 
	C73.826180,109.106758 71.890472,118.946442 65.054619,122.431358 
	C60.592762,124.706024 55.548672,126.546852 50.209053,123.226852 
	C53.741199,122.570595 57.495865,122.219795 61.899708,121.727211 
	C63.056915,121.089996 63.564949,120.594574 64.407730,119.993073 
	C69.603607,115.313248 70.275459,110.879005 66.828308,106.289291 
	C66.863533,106.225372 66.772774,106.111046 66.811981,105.759674 
	C65.339310,103.562775 63.827435,101.717247 62.132523,99.576279 
	C60.625786,99.099579 59.302097,98.918320 57.746426,98.768684 
	C57.194942,99.145760 56.875439,99.491211 56.199654,99.778061 
	C54.483807,100.034370 53.124233,100.349289 51.764660,100.664215 
	C51.764660,100.664207 51.782043,100.568443 51.429245,100.578209 
	C50.531479,101.142349 49.986511,101.696724 49.441536,102.251099 
	C49.441536,102.251099 49.259705,102.310150 49.011658,102.593765 
	C48.550777,103.587624 48.337940,104.297867 48.125103,105.008110 
z"/>
<path fill="#A56851" opacity="1.000000" stroke="none" 
	d="
M35.783661,62.159286 
	C42.066734,56.878334 48.349804,51.597382 55.187538,46.331314 
	C56.564411,47.533817 57.386620,48.721432 58.208828,49.909046 
	C56.445488,51.199162 54.682144,52.489281 52.451584,53.598232 
	C51.816010,53.736519 51.647648,54.055969 51.479290,54.375427 
	C49.810921,56.907295 48.401680,59.670322 46.404644,61.909012 
	C44.204903,64.374931 41.465130,66.359123 38.353252,69.085228 
	C37.234013,67.461021 36.196262,65.955070 35.154663,63.978577 
	C35.361767,63.058449 35.572712,62.608868 35.783661,62.159286 
z"/>
<path fill="#2E2A25" opacity="1.000000" stroke="none" 
	d="
M103.000565,62.869629 
	C101.861404,63.804115 100.722252,64.738602 98.937515,65.843590 
	C97.529770,66.011253 96.767601,66.008415 96.004501,66.004028 
	C96.003571,66.002480 96.019203,66.013931 96.019203,66.013931 
	C101.137329,58.959728 115.588074,53.814873 123.654037,56.281353 
	C124.467751,56.530182 125.055893,57.516708 125.839874,58.518299 
	C118.541740,58.965427 111.100441,58.756577 103.947823,62.616096 
	C103.327644,62.644928 103.152794,62.734592 103.000565,62.869629 
z"/>
<path fill="#0E0C0A" opacity="1.000000" stroke="none" 
	d="
M68.335915,81.357498 
	C66.986778,83.105141 65.596916,84.497169 64.207054,85.889206 
	C63.199055,84.391617 61.422443,82.906189 61.398502,81.393028 
	C61.374393,79.869614 63.092606,78.318642 64.047379,76.779739 
	C65.463318,78.187119 66.879257,79.594498 68.335915,81.357498 
z"/>
<path fill="#463626" opacity="1.000000" stroke="none" 
	d="
M35.585701,61.806679 
	C35.572712,62.608868 35.361767,63.058449 34.965210,63.675087 
	C30.832094,57.398426 30.205423,46.424320 33.854534,42.106522 
	C34.568161,48.412094 34.977955,54.933083 35.585701,61.806679 
z"/>
<path fill="#0D0B09" opacity="1.000000" stroke="none" 
	d="
M152.555664,56.616127 
	C153.029175,57.498547 153.613495,58.183075 153.482452,58.678295 
	C153.066650,60.249611 152.484711,61.808231 151.680496,63.207039 
	C151.576614,63.387730 149.096542,62.815151 148.911453,62.220051 
	C148.379501,60.509720 148.261246,58.583759 148.485626,56.806316 
	C148.525436,56.490940 150.992706,56.482021 152.555664,56.616127 
z"/>
<path fill="#1D1A16" opacity="1.000000" stroke="none" 
	d="
M84.069519,89.008789 
	C84.307068,95.079941 84.544617,101.151085 84.591713,107.606491 
	C83.953850,107.987045 83.506432,107.983337 83.059021,107.979630 
	C82.880615,107.475632 82.702209,106.971626 82.393417,106.238373 
	C82.178307,100.935265 82.093590,95.861412 82.301903,90.248398 
	C83.086464,89.475754 83.577995,89.242271 84.069519,89.008789 
z"/>
<path fill="#23201C" opacity="1.000000" stroke="none" 
	d="
M142.890091,63.901009 
	C138.275330,62.316402 133.712204,60.340687 128.773163,58.277466 
	C129.078415,57.679867 129.998016,56.584602 130.403992,56.750011 
	C134.553207,58.440529 138.618942,60.335899 142.866791,62.449673 
	C142.997604,62.986855 142.969666,63.248375 142.890091,63.901009 
z"/>
<path fill="#352B20" opacity="1.000000" stroke="none" 
	d="
M58.414974,49.745636 
	C57.386620,48.721432 56.564411,47.533817 55.490578,46.166416 
	C53.523106,43.553715 51.807251,41.120800 50.041294,38.345039 
	C54.849411,39.724255 58.894535,45.152184 58.414974,49.745636 
z"/>
<path fill="#171411" opacity="1.000000" stroke="none" 
	d="
M48.910919,36.635529 
	C46.008339,36.698177 43.018044,36.424683 39.609741,36.222828 
	C38.399868,31.990383 41.705547,32.150585 43.977062,32.651001 
	C45.773186,33.046688 47.220814,35.024284 48.910919,36.635529 
z"/>
<path fill="#171411" opacity="1.000000" stroke="none" 
	d="
M84.325264,88.757370 
	C83.577995,89.242271 83.086464,89.475754 82.350266,89.825150 
	C83.243225,86.109161 84.380867,82.277245 86.074936,78.201096 
	C87.070953,77.990860 87.510529,78.024864 87.991364,78.057587 
	C88.032623,78.056313 88.075989,77.986061 88.075989,77.986061 
	C86.910995,81.492691 85.746002,84.999313 84.325264,88.757370 
z"/>
<path fill="#2E2A25" opacity="1.000000" stroke="none" 
	d="
M93.726395,69.046280 
	C93.964966,69.799576 93.840767,70.568893 93.360588,71.761002 
	C92.679039,72.514473 92.353470,72.845169 92.027908,73.175873 
	C90.911270,74.672264 89.794624,76.168648 88.376984,77.825546 
	C88.075989,77.986061 88.032623,78.056313 87.978600,77.693771 
	C87.873611,76.848061 87.822647,76.364891 87.771683,75.881714 
	C89.635666,73.608574 91.499649,71.335442 93.726395,69.046280 
z"/>
<path fill="#171411" opacity="1.000000" stroke="none" 
	d="
M101.489380,30.874636 
	C102.653534,30.919632 104.135109,31.119871 105.798492,31.561766 
	C104.589127,31.545572 103.197968,31.287727 101.489380,30.874636 
z"/>
<path fill="#171411" opacity="1.000000" stroke="none" 
	d="
M86.264755,31.639034 
	C86.538712,31.135717 87.033340,30.670425 87.887375,30.322029 
	C88.446152,30.717443 88.707779,30.912428 89.031654,31.023880 
	C89.031654,31.023880 89.005165,31.014725 89.009583,31.003036 
	C88.171135,31.219919 87.328285,31.448488 86.264755,31.639034 
z"/>
<path fill="#171411" opacity="1.000000" stroke="none" 
	d="
M77.328613,32.780273 
	C77.854248,32.244541 78.698151,31.695210 79.861618,31.109024 
	C79.336411,31.637007 78.491646,32.201843 77.328613,32.780273 
z"/>
<path fill="#171411" opacity="1.000000" stroke="none" 
	d="
M73.314217,33.798431 
	C73.728363,33.366035 74.447556,32.910786 75.361824,32.479843 
	C74.911018,32.927959 74.265137,33.351768 73.314217,33.798431 
z"/>
<path fill="#2E2A25" opacity="1.000000" stroke="none" 
	d="
M95.954811,67.729179 
	C95.480179,68.077530 95.005547,68.425873 94.275986,68.922379 
	C94.498131,68.153053 94.975197,67.235573 95.735733,66.166016 
	C96.019203,66.013931 96.003571,66.002480 95.988152,66.291031 
	C95.966759,66.962776 95.960785,67.345978 95.954811,67.729179 
z"/>
<path fill="#201C17" opacity="1.000000" stroke="none" 
	d="
M48.050621,121.442886 
	C48.663635,121.625511 49.271648,122.029770 49.977844,122.698029 
	C49.399227,122.529518 48.722427,122.097015 48.050621,121.442886 
z"/>
<path fill="#37332D" opacity="1.000000" stroke="none" 
	d="
M87.549728,76.040573 
	C87.822647,76.364891 87.873611,76.848061 87.937347,77.695053 
	C87.510529,78.024864 87.070953,77.990860 86.302200,77.924820 
	C86.424606,77.328331 86.876190,76.763885 87.549728,76.040573 
z"/>
<path fill="#C57E6C" opacity="1.000000" stroke="none" 
	d="
M148.819489,38.480019 
	C147.630371,38.423931 146.506653,37.983322 145.202423,36.980537 
	C145.989655,33.238171 144.719681,31.104670 142.135941,29.202837 
	C137.941254,26.115213 133.919052,28.225973 129.817291,29.166035 
	C129.533981,28.802145 129.250687,28.438251 128.905838,27.494141 
	C130.894501,24.937849 132.944717,22.961777 135.322159,20.795967 
	C141.969208,17.549036 144.060471,17.959192 148.004227,23.404625 
	C148.391327,27.521740 148.738190,31.255716 149.085083,34.989693 
	C149.018341,36.024963 148.951614,37.060230 148.819489,38.480019 
z"/>
<path fill="#201A15" opacity="1.000000" stroke="none" 
	d="
M147.964005,23.021488 
	C144.060471,17.959192 141.969208,17.549036 135.304718,20.375347 
	C134.950562,19.582817 134.941071,19.021168 134.931595,18.459520 
	C140.879761,14.651487 146.729324,16.173292 149.616379,22.684513 
	C148.905182,23.024874 148.434601,23.023182 147.964005,23.021488 
z"/>
<path fill="#312920" opacity="1.000000" stroke="none" 
	d="
M148.004227,23.404625 
	C148.434601,23.023182 148.905182,23.024874 149.729904,23.025331 
	C152.244537,26.986492 153.649170,30.928028 149.423111,34.856598 
	C148.738190,31.255716 148.391327,27.521740 148.004227,23.404625 
z"/>
<path fill="#171411" opacity="1.000000" stroke="none" 
	d="
M134.591766,18.600380 
	C134.941071,19.021168 134.950562,19.582817 134.977478,20.565084 
	C132.944717,22.961777 130.894501,24.937849 128.703369,27.213192 
	C127.958344,28.079103 127.354233,28.645742 126.437271,29.170418 
	C126.228889,23.627979 130.312286,21.240841 134.591766,18.600380 
z"/>
<path fill="#443E38" opacity="1.000000" stroke="none" 
	d="
M88.894485,30.822647 
	C88.707779,30.912428 88.446152,30.717443 88.127945,30.221489 
	C88.295128,30.165455 88.544533,30.371243 88.894485,30.822647 
z"/>
<path fill="#C27B68" opacity="1.000000" stroke="none" 
	d="
M130.105392,29.365944 
	C133.919052,28.225973 137.941254,26.115213 142.135941,29.202837 
	C144.719681,31.104670 145.989655,33.238171 144.970673,36.782791 
	C140.077469,34.620098 135.235474,32.092976 130.105392,29.365944 
z"/>
<path fill="#201A15" opacity="1.000000" stroke="none" 
	d="
M127.856598,33.842258 
	C127.922867,33.957520 127.484406,33.798870 127.388741,33.736298 
	C127.470947,33.578484 127.636696,33.596241 127.856598,33.842258 
z"/>
<path fill="#25211C" opacity="1.000000" stroke="none" 
	d="
M83.101349,108.359787 
	C83.506432,107.983337 83.953850,107.987045 84.737251,107.990067 
	C86.477829,111.060936 87.882416,114.132500 88.960190,117.582520 
	C87.805717,117.948082 86.978050,117.935188 86.150391,117.922287 
	C85.148155,114.861504 84.145920,111.800720 83.101349,108.359787 
z"/>
<path fill="#191613" opacity="1.000000" stroke="none" 
	d="
M90.087593,119.676697 
	C92.341919,121.890099 94.596245,124.103500 96.962097,126.635544 
	C94.911400,125.753693 92.749176,124.553200 90.306534,123.166466 
	C89.909988,122.589546 89.793854,122.198868 89.753510,121.128174 
	C89.915390,120.191010 90.001495,119.933853 90.087593,119.676697 
z"/>
<path fill="#2B2925" opacity="1.000000" stroke="none" 
	d="
M90.091049,119.435593 
	C90.001495,119.933853 89.915390,120.191010 89.683777,120.830444 
	C88.461449,120.325249 87.384628,119.437775 86.229095,118.236298 
	C86.978050,117.935188 87.805717,117.948082 89.051895,117.951569 
	C89.678444,118.359604 89.886475,118.777046 90.091049,119.435593 
z"/>
<path fill="#171411" opacity="1.000000" stroke="none" 
	d="
M121.188904,135.294556 
	C130.139816,134.285172 138.442215,131.480255 145.652008,125.047318 
	C145.979721,125.405403 145.998383,125.909500 146.035065,126.794350 
	C140.030807,133.914352 131.925873,135.785156 123.464813,136.728119 
	C122.821266,136.799835 122.079788,135.992783 121.188904,135.294556 
z"/>
<path fill="#171411" opacity="1.000000" stroke="none" 
	d="
M101.999092,130.150375 
	C107.392159,131.752930 112.785225,133.355469 118.577530,135.005051 
	C114.789772,138.140808 110.955559,134.858795 107.017097,134.245239 
	C105.369919,133.988647 103.901237,132.586319 102.150101,131.189331 
	C101.965576,130.499298 101.982338,130.324829 101.999092,130.150375 
z"/>
<path fill="#191613" opacity="1.000000" stroke="none" 
	d="
M101.741898,129.940933 
	C101.982338,130.324829 101.965576,130.499298 101.915695,130.937073 
	C100.325592,129.997238 98.768600,128.794083 97.120987,127.257721 
	C98.515137,127.860161 99.999916,128.795822 101.741898,129.940933 
z"/>
<path fill="#14120F" opacity="1.000000" stroke="none" 
	d="
M123.977875,112.782288 
	C122.886589,112.844498 121.795303,112.906700 119.964546,113.118652 
	C118.994888,113.302208 118.764709,113.336021 118.288300,113.120850 
	C114.849808,109.682610 111.893028,111.278244 108.958153,113.318924 
	C108.046082,113.433846 107.134010,113.548767 106.099251,113.177856 
	C105.964890,110.475044 105.953209,108.258064 106.005356,105.843643 
	C105.376984,105.436287 104.684792,105.226387 103.831566,104.739647 
	C103.433586,103.645935 103.196648,102.829063 103.331192,101.965530 
	C105.482956,100.888054 107.263237,99.857246 109.043518,98.826447 
	C110.094315,98.886757 111.145103,98.947067 112.442566,99.322754 
	C112.175835,100.288399 111.115791,101.088051 111.245476,101.562584 
	C111.754143,103.423943 112.186203,105.924141 113.527580,106.741547 
	C114.572311,107.378189 116.922272,105.872948 118.692169,105.319595 
	C118.029114,103.831680 117.441612,102.303017 116.670563,100.873344 
	C116.295006,100.177010 115.576767,99.665504 115.013649,99.070328 
	C121.172981,96.810738 127.297539,94.448784 133.507614,92.338509 
	C136.253876,91.405289 139.173416,90.981972 142.014297,90.327179 
	C142.262436,93.839584 143.780777,97.972336 142.443527,100.710472 
	C140.694336,104.292122 136.687820,106.771339 133.340057,109.366837 
	C133.360718,107.005203 133.693710,105.001518 134.217590,102.937424 
	C134.936951,102.920113 135.465454,102.963219 136.128464,102.771118 
	C136.173508,101.688652 136.084045,100.841400 135.747864,99.995384 
	C135.501160,99.996613 135.007751,99.998985 134.732361,99.841507 
	C133.648117,99.462852 132.839264,99.241669 131.780014,99.014999 
	C131.362732,99.004982 131.195831,99.000450 130.841919,99.152985 
	C130.414993,99.531761 130.196808,99.773109 129.978333,100.244926 
	C129.956314,100.455734 129.918411,100.877945 129.684509,100.906776 
	C129.450607,100.935608 128.982727,100.992462 128.722626,101.081482 
	C128.305603,102.116074 128.148712,103.061638 128.224213,104.073441 
	C129.309158,103.429276 130.161713,102.718880 131.273712,102.099884 
	C132.011642,102.456818 132.490082,102.722343 132.785095,103.298203 
	C132.059586,106.011307 131.517517,108.414093 130.975464,110.816872 
	C130.804123,110.827805 130.632767,110.838730 130.148712,110.518326 
	C128.948669,109.824844 127.645180,108.907326 127.250702,109.202927 
	C125.979492,110.155472 125.043251,111.555054 123.977875,112.782288 
M118.520844,108.490891 
	C118.520844,108.490891 118.482681,108.502785 118.520844,108.490891 
z"/>
<path fill="#BE4626" opacity="1.000000" stroke="none" 
	d="
M109.105347,113.607285 
	C111.893028,111.278244 114.849808,109.682610 118.346893,113.557907 
	C118.302460,119.154930 117.953186,124.065933 117.603912,128.976929 
	C117.402603,129.080612 117.239021,129.226578 116.696350,129.502350 
	C110.895973,129.653046 111.692886,124.111046 109.084999,121.656921 
	C109.140846,119.069832 109.196693,116.482742 109.105347,113.607285 
z"/>
<path fill="#DF6933" opacity="1.000000" stroke="none" 
	d="
M115.041267,82.923859 
	C114.320145,82.967888 113.599022,83.011917 112.381317,82.794449 
	C111.309906,82.001823 110.735069,81.470711 110.289902,80.653046 
	C110.571106,79.546844 110.722626,78.727196 110.888863,77.914261 
	C110.903572,77.920990 110.907730,77.889015 111.227859,77.839668 
	C112.312019,77.143547 113.076042,76.496773 114.091125,75.576202 
	C117.226196,74.477402 120.110214,73.652397 123.321411,73.033112 
	C127.986122,76.241913 123.366508,78.367752 122.898247,80.900169 
	C122.898247,80.900169 122.971596,80.965736 122.569649,80.828995 
	C119.792221,81.436127 117.416740,82.179993 115.041267,82.923859 
M116.508293,80.521332 
	C116.508293,80.521332 116.498772,80.486832 116.508293,80.521332 
z"/>
<path fill="#28221B" opacity="1.000000" stroke="none" 
	d="
M110.160225,80.939598 
	C110.735069,81.470711 111.309906,82.001823 112.020164,82.805176 
	C110.403587,82.380356 107.533615,82.038521 107.171776,80.899742 
	C106.676956,79.342422 107.580894,76.002113 108.775192,75.486214 
	C113.153694,73.594810 117.900558,72.556145 122.812653,71.672722 
	C123.075798,72.375130 123.035019,72.601265 122.994232,72.827393 
	C120.110214,73.652397 117.226196,74.477402 113.779747,75.613174 
	C112.447449,76.578964 111.677589,77.233986 110.907730,77.889008 
	C110.907730,77.889015 110.903572,77.920990 110.595795,78.038223 
	C110.245422,79.083496 110.202820,80.011551 110.160225,80.939598 
z"/>
<path fill="#23201C" opacity="1.000000" stroke="none" 
	d="
M102.959702,102.012192 
	C103.196648,102.829063 103.433586,103.645935 104.060593,104.894485 
	C104.947609,105.564476 105.444572,105.802788 105.941536,106.041092 
	C105.953209,108.258064 105.964890,110.475044 105.883698,112.989059 
	C102.817596,111.129539 99.844353,108.972969 97.183754,106.420776 
	C99.002937,104.693985 100.509483,103.362808 102.251938,102.026093 
	C102.487839,102.020561 102.959709,102.012192 102.959702,102.012192 
z"/>
<path fill="#1F1B17" opacity="1.000000" stroke="none" 
	d="
M114.674957,99.033203 
	C115.576767,99.665504 116.295006,100.177010 116.670563,100.873344 
	C117.441612,102.303017 118.029114,103.831680 118.692169,105.319595 
	C116.922272,105.872948 114.572311,107.378189 113.527580,106.741547 
	C112.186203,105.924141 111.754143,103.423943 111.245476,101.562584 
	C111.115791,101.088051 112.175835,100.288399 112.834717,99.368286 
	C113.432213,99.064316 113.884232,99.030197 114.674957,99.033203 
M116.526321,102.492661 
	C116.526321,102.492661 116.485428,102.506279 116.526321,102.492661 
z"/>
<path fill="#14120F" opacity="1.000000" stroke="none" 
	d="
M102.016022,102.031631 
	C100.509483,103.362808 99.002937,104.693985 97.127174,106.068268 
	C96.017769,101.661957 97.799461,98.922493 102.546402,98.396553 
	C102.561340,99.873528 102.288681,100.952583 102.016022,102.031631 
z"/>
<path fill="#4A2C1A" opacity="1.000000" stroke="none" 
	d="
M117.996902,128.894226 
	C117.953186,124.065933 118.302460,119.154930 118.593132,113.806885 
	C118.764709,113.336021 118.994888,113.302208 119.570786,113.239243 
	C121.131401,118.579231 123.184479,124.030396 117.996902,128.894226 
z"/>
<path fill="#35251A" opacity="1.000000" stroke="none" 
	d="
M123.321411,73.033112 
	C123.035019,72.601265 123.075798,72.375130 123.185616,71.809937 
	C124.842293,72.901894 127.835213,74.496643 127.691971,75.725998 
	C127.470787,77.624367 125.103943,79.272736 123.272690,80.963654 
	C123.366508,78.367752 127.986122,76.241913 123.321411,73.033112 
z"/>
<path fill="#35251A" opacity="1.000000" stroke="none" 
	d="
M108.830505,121.923233 
	C111.692886,124.111046 110.895973,129.653046 116.625389,129.652176 
	C111.720383,132.072037 108.801582,129.455826 108.830505,121.923233 
z"/>
<path fill="#3A3027" opacity="1.000000" stroke="none" 
	d="
M119.982010,82.985046 
	C119.982010,85.583969 119.982010,88.182892 119.982010,90.781815 
	C119.735611,90.848351 119.489212,90.914879 119.242805,90.981415 
	C118.247566,88.554749 117.252319,86.128075 116.472305,83.377289 
	C117.785698,83.030457 118.883850,83.007751 119.982010,82.985046 
z"/>
<path fill="#181410" opacity="1.000000" stroke="none" 
	d="
M102.251930,102.026093 
	C102.288681,100.952583 102.561340,99.873528 102.912163,98.470642 
	C104.822685,98.186844 106.655045,98.226898 108.765457,98.546692 
	C107.263237,99.857246 105.482956,100.888054 103.331192,101.965530 
	C102.959709,102.012192 102.487839,102.020561 102.251930,102.026093 
z"/>
<path fill="#1D1A16" opacity="1.000000" stroke="none" 
	d="
M124.341965,112.779663 
	C125.043251,111.555054 125.979492,110.155472 127.250702,109.202927 
	C127.645180,108.907326 128.948669,109.824844 129.901550,110.445923 
	C128.213425,111.395592 126.459740,112.086319 124.341965,112.779663 
z"/>
<path fill="#1D1A16" opacity="1.000000" stroke="none" 
	d="
M131.269943,110.761871 
	C131.517517,108.414093 132.059586,106.011307 133.049820,103.300209 
	C133.674240,102.993874 133.850479,102.995857 134.026718,102.997841 
	C133.693710,105.001518 133.360718,107.005203 133.000000,109.304024 
	C132.502991,109.968399 132.033707,110.337639 131.269943,110.761871 
z"/>
<path fill="#35251A" opacity="1.000000" stroke="none" 
	d="
M120.300255,82.908646 
	C118.883850,83.007751 117.785698,83.030457 116.275558,83.066711 
	C115.863586,83.080269 115.454117,82.993530 115.247696,82.958694 
	C117.416740,82.179993 119.792221,81.436127 122.553986,80.782372 
	C122.166351,81.525742 121.392426,82.179001 120.300255,82.908646 
z"/>
<path fill="#37332D" opacity="1.000000" stroke="none" 
	d="
M96.128159,67.756577 
	C95.960785,67.345978 95.966759,66.962776 95.989082,66.292572 
	C96.767601,66.008415 97.529770,66.011253 98.673309,66.021759 
	C98.136955,66.614281 97.219231,67.199120 96.128159,67.756577 
z"/>
<path fill="#37332D" opacity="1.000000" stroke="none" 
	d="
M92.176895,73.090012 
	C92.353470,72.845169 92.679039,72.514473 93.152603,72.090668 
	C92.975693,72.333092 92.650787,72.668625 92.176895,73.090012 
z"/>
<path fill="#37332D" opacity="1.000000" stroke="none" 
	d="
M103.174637,62.803848 
	C103.152794,62.734592 103.327644,62.644928 103.607552,62.595142 
	C103.689995,62.589649 103.348701,62.738068 103.174637,62.803848 
z"/>
<path fill="#B77762" opacity="1.000000" stroke="none" 
	d="
M64.072975,120.099152 
	C63.564949,120.594574 63.056915,121.089996 62.284119,121.640671 
	C61.411896,119.947456 60.804443,118.198997 60.117943,115.821945 
	C60.028477,114.461555 60.018051,113.729767 60.007622,112.997971 
	C60.007622,112.997971 60.006180,112.545967 60.315895,112.259537 
	C61.425945,110.956566 62.226284,109.940033 63.091732,108.654877 
	C63.429184,107.714462 63.701527,107.042671 64.324120,106.341736 
	C65.373833,106.245422 66.073303,106.178230 66.772774,106.111046 
	C66.772774,106.111046 66.863533,106.225372 66.792259,106.656502 
	C65.849556,110.074699 64.978127,113.061760 64.079483,116.027481 
	C64.052269,116.006142 64.054260,116.099960 64.066299,116.499985 
	C64.076546,117.966393 64.074760,119.032768 64.072975,120.099152 
z"/>
<path fill="#986B56" opacity="1.000000" stroke="none" 
	d="
M66.811981,105.759674 
	C66.073303,106.178230 65.373833,106.245422 64.072685,106.249557 
	C63.299938,106.137169 63.128868,106.087837 62.957802,106.038498 
	C62.745121,105.436050 62.532440,104.833603 62.055405,103.929695 
	C61.226933,102.770866 60.662819,101.913498 60.375374,100.908371 
	C61.206551,100.464317 61.761055,100.168015 62.315559,99.871704 
	C63.827435,101.717247 65.339310,103.562775 66.811981,105.759674 
z"/>
<path fill="#AE715D" opacity="1.000000" stroke="none" 
	d="
M60.098701,101.056129 
	C60.662819,101.913498 61.226933,102.770866 61.868763,103.838486 
	C59.404736,103.842804 55.837906,106.796539 55.238762,101.548843 
	C57.107208,101.249405 58.602955,101.152771 60.098701,101.056129 
z"/>
<path fill="#AE715D" opacity="1.000000" stroke="none" 
	d="
M58.000610,116.006378 
	C56.985531,116.728104 55.858501,118.129982 54.985844,117.986351 
	C54.053963,117.832985 53.362225,116.220551 52.565659,115.245056 
	C53.246464,115.057777 53.927269,114.870499 55.097717,114.962952 
	C56.391773,115.497246 57.196194,115.751808 58.000610,116.006378 
z"/>
<path fill="#A97661" opacity="1.000000" stroke="none" 
	d="
M60.375374,100.908371 
	C58.602955,101.152771 57.107208,101.249405 55.294678,101.274857 
	C54.174782,101.079399 53.371670,100.955139 52.166611,100.747543 
	C53.124233,100.349289 54.483807,100.034370 56.428551,99.710472 
	C57.335281,99.380013 57.656841,99.058533 57.978405,98.737061 
	C59.302097,98.918320 60.625786,99.099579 62.132519,99.576279 
	C61.761055,100.168015 61.206551,100.464317 60.375374,100.908371 
z"/>
<path fill="#AD7361" opacity="1.000000" stroke="none" 
	d="
M58.346107,115.995911 
	C57.196194,115.751808 56.391773,115.497246 55.295296,115.120232 
	C56.460785,114.416008 57.918339,113.834244 59.691757,113.125229 
	C60.018051,113.729767 60.028477,114.461555 60.057240,115.556992 
	C59.614250,115.942245 59.152927,115.963844 58.346107,115.995911 
z"/>
<path fill="#986B56" opacity="1.000000" stroke="none" 
	d="
M63.026627,108.923508 
	C62.226284,109.940033 61.425945,110.956566 60.311008,112.033585 
	C60.227570,111.544197 60.458725,110.994331 61.121887,110.108932 
	C62.044800,109.490105 62.535717,109.206802 63.026627,108.923508 
z"/>
<path fill="#AE715D" opacity="1.000000" stroke="none" 
	d="
M63.091736,108.654877 
	C62.535717,109.206802 62.044800,109.490105 61.284718,109.859711 
	C61.531338,108.805893 62.047131,107.665756 62.760361,106.282059 
	C63.128868,106.087837 63.299938,106.137169 63.722443,106.278687 
	C63.701527,107.042671 63.429184,107.714462 63.091736,108.654877 
z"/>
<path fill="#AE715D" opacity="1.000000" stroke="none" 
	d="
M46.313515,117.208374 
	C45.796246,116.797012 45.431885,116.178207 45.015461,115.286674 
	C45.464405,115.676270 45.965416,116.338600 46.313515,117.208374 
z"/>
<path fill="#A97661" opacity="1.000000" stroke="none" 
	d="
M49.754417,102.232277 
	C49.986511,101.696724 50.531479,101.142349 51.381374,100.569466 
	C51.146633,101.105125 50.606968,101.659286 49.754417,102.232277 
z"/>
<path fill="#AE715D" opacity="1.000000" stroke="none" 
	d="
M51.851334,109.974281 
	C51.855537,109.911430 52.151245,109.989799 52.151245,109.989799 
	C52.151245,109.989799 51.847134,110.037132 51.851334,109.974281 
z"/>
<path fill="#A97661" opacity="1.000000" stroke="none" 
	d="
M48.354145,104.827423 
	C48.337940,104.297867 48.550777,103.587624 49.010159,102.689346 
	C49.032200,103.216446 48.807693,103.931587 48.354145,104.827423 
z"/>
<path fill="#AE715D" opacity="1.000000" stroke="none" 
	d="
M47.334728,118.973602 
	C47.125317,118.828178 47.085087,118.656898 46.955101,118.237289 
	C47.289696,118.129471 47.714050,118.269981 48.138401,118.410500 
	C47.926903,118.589584 47.715408,118.768661 47.334728,118.973602 
z"/>
<path fill="#AE715D" opacity="1.000000" stroke="none" 
	d="
M49.495644,113.503517 
	C49.512527,113.498917 49.478760,113.508118 49.495644,113.503517 
z"/>
<path fill="#986B56" opacity="1.000000" stroke="none" 
	d="
M64.106689,116.048828 
	C64.978127,113.061760 65.849556,110.074699 66.757034,106.720428 
	C70.275459,110.879005 69.603607,115.313248 64.407730,119.993065 
	C64.074760,119.032768 64.076546,117.966393 64.071785,116.479530 
	C64.065239,116.059044 64.106697,116.048828 64.106689,116.048828 
z"/>
<path fill="#986B56" opacity="1.000000" stroke="none" 
	d="
M57.746426,98.768684 
	C57.656841,99.058533 57.335281,99.380013 56.784828,99.769073 
	C56.875439,99.491211 57.194942,99.145760 57.746426,98.768684 
z"/>
<path fill="#443E38" opacity="1.000000" stroke="none" 
	d="
M51.687462,54.207756 
	C51.647648,54.055969 51.816010,53.736519 52.139889,53.551109 
	C52.162151,53.803463 52.028896,53.921776 51.687462,54.207756 
z"/>
<path fill="#1B1814" opacity="1.000000" stroke="none" 
	d="
M134.217590,102.937424 
	C133.850479,102.995857 133.674240,102.993874 133.233276,102.989883 
	C132.490082,102.722343 132.011642,102.456818 131.085770,101.917534 
	C130.398361,101.388504 130.158386,101.133224 129.918411,100.877945 
	C129.918411,100.877945 129.956314,100.455734 130.153854,100.075745 
	C130.583115,99.468163 130.808960,99.234879 131.028931,98.995911 
	C131.195831,99.000450 131.362732,99.004982 132.055115,99.168304 
	C133.389664,99.551048 134.198700,99.775017 135.007751,99.998985 
	C135.007751,99.998985 135.501160,99.996613 135.748489,100.371948 
	C135.995193,101.500298 135.994568,102.253319 135.993958,103.006332 
	C135.465454,102.963219 134.936951,102.920113 134.217590,102.937424 
z"/>
<path fill="#1D1A16" opacity="1.000000" stroke="none" 
	d="
M129.684509,100.906776 
	C130.158386,101.133224 130.398361,101.388504 130.826294,101.826134 
	C130.161713,102.718880 129.309158,103.429276 128.346558,103.779602 
	C128.485229,102.610504 128.733978,101.801483 128.982727,100.992462 
	C128.982727,100.992462 129.450607,100.935608 129.684509,100.906776 
z"/>
<path fill="#1B1814" opacity="1.000000" stroke="none" 
	d="
M128.722626,101.081482 
	C128.733978,101.801483 128.485229,102.610504 128.114151,103.713364 
	C128.148712,103.061638 128.305603,102.116074 128.722626,101.081482 
z"/>
<path fill="#181410" opacity="1.000000" stroke="none" 
	d="
M106.005356,105.843643 
	C105.444572,105.802788 104.947609,105.564476 104.221634,105.171326 
	C104.684792,105.226387 105.376984,105.436287 106.005356,105.843643 
z"/>
<path fill="#1D1A16" opacity="1.000000" stroke="none" 
	d="
M136.128448,102.771118 
	C135.994568,102.253319 135.995193,101.500298 135.995193,100.370720 
	C136.084045,100.841400 136.173508,101.688652 136.128448,102.771118 
z"/>
<path fill="#1D1A16" opacity="1.000000" stroke="none" 
	d="
M134.732361,99.841507 
	C134.198700,99.775017 133.389664,99.551048 132.305511,99.173782 
	C132.839264,99.241669 133.648117,99.462852 134.732361,99.841507 
z"/>
<path fill="#1D1A16" opacity="1.000000" stroke="none" 
	d="
M130.841919,99.152985 
	C130.808960,99.234879 130.583115,99.468163 130.175873,99.864929 
	C130.196808,99.773109 130.414993,99.531761 130.841919,99.152985 
z"/>
<path fill="#1F1B17" opacity="1.000000" stroke="none" 
	d="
M118.501762,108.496841 
	C118.482681,108.502785 118.520844,108.490891 118.501762,108.496841 
z"/>
<path fill="#DF6B37" opacity="1.000000" stroke="none" 
	d="
M110.289902,80.653046 
	C110.202820,80.011551 110.245422,79.083496 110.581085,78.031494 
	C110.722626,78.727196 110.571106,79.546844 110.289902,80.653046 
z"/>
<path fill="#DF6B37" opacity="1.000000" stroke="none" 
	d="
M111.227859,77.839661 
	C111.677589,77.233986 112.447449,76.578964 113.528694,75.886971 
	C113.076042,76.496773 112.312019,77.143547 111.227859,77.839661 
z"/>
<path fill="#DF6B37" opacity="1.000000" stroke="none" 
	d="
M116.503532,80.504082 
	C116.498772,80.486832 116.508293,80.521332 116.503532,80.504082 
z"/>
<path fill="#14120F" opacity="1.000000" stroke="none" 
	d="
M116.505875,102.499466 
	C116.485428,102.506279 116.526321,102.492661 116.505875,102.499466 
z"/>
<path fill="#AD7361" opacity="1.000000" stroke="none" 
	d="
M64.059753,116.079498 
	C64.054260,116.099960 64.052269,116.006142 64.079483,116.027481 
	C64.106697,116.048828 64.065239,116.059044 64.059753,116.079498 
z"/>
</svg>